<?xml version="1.0" encoding="utf-8" standalone="no"?>
<!DOCTYPE svg PUBLIC "-//W3C//DTD SVG 1.1//EN"
  "http://www.w3.org/Graphics/SVG/1.1/DTD/svg11.dtd">
<svg xmlns:xlink="http://www.w3.org/1999/xlink" width="999.42625pt" height="566.726625pt" viewBox="0 0 999.42625 566.726625" xmlns="http://www.w3.org/2000/svg" version="1.1">
 <metadata>
  <rdf:RDF xmlns:dc="http://purl.org/dc/elements/1.1/" xmlns:cc="http://creativecommons.org/ns#" xmlns:rdf="http://www.w3.org/1999/02/22-rdf-syntax-ns#">
   <cc:Work>
    <dc:type rdf:resource="http://purl.org/dc/dcmitype/StillImage"/>
    <dc:date>2025-12-29T01:55:55.764208</dc:date>
    <dc:format>image/svg+xml</dc:format>
    <dc:creator>
     <cc:Agent>
      <dc:title>Matplotlib v3.10.8, https://matplotlib.org/</dc:title>
     </cc:Agent>
    </dc:creator>
   </cc:Work>
  </rdf:RDF>
 </metadata>
 <defs>
  <style type="text/css">*{stroke-linejoin: round; stroke-linecap: butt}</style>
 </defs>
 <g id="figure_1">
  <g id="patch_1">
   <path d="M 0 566.726625 
L 999.42625 566.726625 
L 999.42625 0 
L 0 0 
z
" style="fill: #ffffff"/>
  </g>
  <g id="axes_1">
   <g id="patch_2">
    <path d="M 36.17625 527.23475 
L 992.22625 527.23475 
L 992.22625 53.51475 
L 36.17625 53.51475 
z
" style="fill: #ffffff"/>
   </g>
   <g id="matplotlib.axis_1">
    <g id="xtick_1">
     <g id="text_1">
      <!-- RadixMLP Enabled (0.95, mbt=65536) -->
      <g style="fill: #262626" transform="translate(59.921562 541.833187) scale(0.1 -0.1)">
       <defs>
        <path id="DejaVuSans-52" d="M 2841 2188 
Q 3044 2119 3236 1894 
Q 3428 1669 3622 1275 
L 4263 0 
L 3584 0 
L 2988 1197 
Q 2756 1666 2539 1819 
Q 2322 1972 1947 1972 
L 1259 1972 
L 1259 0 
L 628 0 
L 628 4666 
L 2053 4666 
Q 2853 4666 3247 4331 
Q 3641 3997 3641 3322 
Q 3641 2881 3436 2590 
Q 3231 2300 2841 2188 
z
M 1259 4147 
L 1259 2491 
L 2053 2491 
Q 2509 2491 2742 2702 
Q 2975 2913 2975 3322 
Q 2975 3731 2742 3939 
Q 2509 4147 2053 4147 
L 1259 4147 
z
" transform="scale(0.015625)"/>
        <path id="DejaVuSans-61" d="M 2194 1759 
Q 1497 1759 1228 1600 
Q 959 1441 959 1056 
Q 959 750 1161 570 
Q 1363 391 1709 391 
Q 2188 391 2477 730 
Q 2766 1069 2766 1631 
L 2766 1759 
L 2194 1759 
z
M 3341 1997 
L 3341 0 
L 2766 0 
L 2766 531 
Q 2569 213 2275 61 
Q 1981 -91 1556 -91 
Q 1019 -91 701 211 
Q 384 513 384 1019 
Q 384 1609 779 1909 
Q 1175 2209 1959 2209 
L 2766 2209 
L 2766 2266 
Q 2766 2663 2505 2880 
Q 2244 3097 1772 3097 
Q 1472 3097 1187 3025 
Q 903 2953 641 2809 
L 641 3341 
Q 956 3463 1253 3523 
Q 1550 3584 1831 3584 
Q 2591 3584 2966 3190 
Q 3341 2797 3341 1997 
z
" transform="scale(0.015625)"/>
        <path id="DejaVuSans-64" d="M 2906 2969 
L 2906 4863 
L 3481 4863 
L 3481 0 
L 2906 0 
L 2906 525 
Q 2725 213 2448 61 
Q 2172 -91 1784 -91 
Q 1150 -91 751 415 
Q 353 922 353 1747 
Q 353 2572 751 3078 
Q 1150 3584 1784 3584 
Q 2172 3584 2448 3432 
Q 2725 3281 2906 2969 
z
M 947 1747 
Q 947 1113 1208 752 
Q 1469 391 1925 391 
Q 2381 391 2643 752 
Q 2906 1113 2906 1747 
Q 2906 2381 2643 2742 
Q 2381 3103 1925 3103 
Q 1469 3103 1208 2742 
Q 947 2381 947 1747 
z
" transform="scale(0.015625)"/>
        <path id="DejaVuSans-69" d="M 603 3500 
L 1178 3500 
L 1178 0 
L 603 0 
L 603 3500 
z
M 603 4863 
L 1178 4863 
L 1178 4134 
L 603 4134 
L 603 4863 
z
" transform="scale(0.015625)"/>
        <path id="DejaVuSans-78" d="M 3513 3500 
L 2247 1797 
L 3578 0 
L 2900 0 
L 1881 1375 
L 863 0 
L 184 0 
L 1544 1831 
L 300 3500 
L 978 3500 
L 1906 2253 
L 2834 3500 
L 3513 3500 
z
" transform="scale(0.015625)"/>
        <path id="DejaVuSans-4d" d="M 628 4666 
L 1569 4666 
L 2759 1491 
L 3956 4666 
L 4897 4666 
L 4897 0 
L 4281 0 
L 4281 4097 
L 3078 897 
L 2444 897 
L 1241 4097 
L 1241 0 
L 628 0 
L 628 4666 
z
" transform="scale(0.015625)"/>
        <path id="DejaVuSans-4c" d="M 628 4666 
L 1259 4666 
L 1259 531 
L 3531 531 
L 3531 0 
L 628 0 
L 628 4666 
z
" transform="scale(0.015625)"/>
        <path id="DejaVuSans-50" d="M 1259 4147 
L 1259 2394 
L 2053 2394 
Q 2494 2394 2734 2622 
Q 2975 2850 2975 3272 
Q 2975 3691 2734 3919 
Q 2494 4147 2053 4147 
L 1259 4147 
z
M 628 4666 
L 2053 4666 
Q 2838 4666 3239 4311 
Q 3641 3956 3641 3272 
Q 3641 2581 3239 2228 
Q 2838 1875 2053 1875 
L 1259 1875 
L 1259 0 
L 628 0 
L 628 4666 
z
" transform="scale(0.015625)"/>
        <path id="DejaVuSans-20" transform="scale(0.015625)"/>
        <path id="DejaVuSans-45" d="M 628 4666 
L 3578 4666 
L 3578 4134 
L 1259 4134 
L 1259 2753 
L 3481 2753 
L 3481 2222 
L 1259 2222 
L 1259 531 
L 3634 531 
L 3634 0 
L 628 0 
L 628 4666 
z
" transform="scale(0.015625)"/>
        <path id="DejaVuSans-6e" d="M 3513 2113 
L 3513 0 
L 2938 0 
L 2938 2094 
Q 2938 2591 2744 2837 
Q 2550 3084 2163 3084 
Q 1697 3084 1428 2787 
Q 1159 2491 1159 1978 
L 1159 0 
L 581 0 
L 581 3500 
L 1159 3500 
L 1159 2956 
Q 1366 3272 1645 3428 
Q 1925 3584 2291 3584 
Q 2894 3584 3203 3211 
Q 3513 2838 3513 2113 
z
" transform="scale(0.015625)"/>
        <path id="DejaVuSans-62" d="M 3116 1747 
Q 3116 2381 2855 2742 
Q 2594 3103 2138 3103 
Q 1681 3103 1420 2742 
Q 1159 2381 1159 1747 
Q 1159 1113 1420 752 
Q 1681 391 2138 391 
Q 2594 391 2855 752 
Q 3116 1113 3116 1747 
z
M 1159 2969 
Q 1341 3281 1617 3432 
Q 1894 3584 2278 3584 
Q 2916 3584 3314 3078 
Q 3713 2572 3713 1747 
Q 3713 922 3314 415 
Q 2916 -91 2278 -91 
Q 1894 -91 1617 61 
Q 1341 213 1159 525 
L 1159 0 
L 581 0 
L 581 4863 
L 1159 4863 
L 1159 2969 
z
" transform="scale(0.015625)"/>
        <path id="DejaVuSans-6c" d="M 603 4863 
L 1178 4863 
L 1178 0 
L 603 0 
L 603 4863 
z
" transform="scale(0.015625)"/>
        <path id="DejaVuSans-65" d="M 3597 1894 
L 3597 1613 
L 953 1613 
Q 991 1019 1311 708 
Q 1631 397 2203 397 
Q 2534 397 2845 478 
Q 3156 559 3463 722 
L 3463 178 
Q 3153 47 2828 -22 
Q 2503 -91 2169 -91 
Q 1331 -91 842 396 
Q 353 884 353 1716 
Q 353 2575 817 3079 
Q 1281 3584 2069 3584 
Q 2775 3584 3186 3129 
Q 3597 2675 3597 1894 
z
M 3022 2063 
Q 3016 2534 2758 2815 
Q 2500 3097 2075 3097 
Q 1594 3097 1305 2825 
Q 1016 2553 972 2059 
L 3022 2063 
z
" transform="scale(0.015625)"/>
        <path id="DejaVuSans-28" d="M 1984 4856 
Q 1566 4138 1362 3434 
Q 1159 2731 1159 2009 
Q 1159 1288 1364 580 
Q 1569 -128 1984 -844 
L 1484 -844 
Q 1016 -109 783 600 
Q 550 1309 550 2009 
Q 550 2706 781 3412 
Q 1013 4119 1484 4856 
L 1984 4856 
z
" transform="scale(0.015625)"/>
        <path id="DejaVuSans-30" d="M 2034 4250 
Q 1547 4250 1301 3770 
Q 1056 3291 1056 2328 
Q 1056 1369 1301 889 
Q 1547 409 2034 409 
Q 2525 409 2770 889 
Q 3016 1369 3016 2328 
Q 3016 3291 2770 3770 
Q 2525 4250 2034 4250 
z
M 2034 4750 
Q 2819 4750 3233 4129 
Q 3647 3509 3647 2328 
Q 3647 1150 3233 529 
Q 2819 -91 2034 -91 
Q 1250 -91 836 529 
Q 422 1150 422 2328 
Q 422 3509 836 4129 
Q 1250 4750 2034 4750 
z
" transform="scale(0.015625)"/>
        <path id="DejaVuSans-2e" d="M 684 794 
L 1344 794 
L 1344 0 
L 684 0 
L 684 794 
z
" transform="scale(0.015625)"/>
        <path id="DejaVuSans-39" d="M 703 97 
L 703 672 
Q 941 559 1184 500 
Q 1428 441 1663 441 
Q 2288 441 2617 861 
Q 2947 1281 2994 2138 
Q 2813 1869 2534 1725 
Q 2256 1581 1919 1581 
Q 1219 1581 811 2004 
Q 403 2428 403 3163 
Q 403 3881 828 4315 
Q 1253 4750 1959 4750 
Q 2769 4750 3195 4129 
Q 3622 3509 3622 2328 
Q 3622 1225 3098 567 
Q 2575 -91 1691 -91 
Q 1453 -91 1209 -44 
Q 966 3 703 97 
z
M 1959 2075 
Q 2384 2075 2632 2365 
Q 2881 2656 2881 3163 
Q 2881 3666 2632 3958 
Q 2384 4250 1959 4250 
Q 1534 4250 1286 3958 
Q 1038 3666 1038 3163 
Q 1038 2656 1286 2365 
Q 1534 2075 1959 2075 
z
" transform="scale(0.015625)"/>
        <path id="DejaVuSans-35" d="M 691 4666 
L 3169 4666 
L 3169 4134 
L 1269 4134 
L 1269 2991 
Q 1406 3038 1543 3061 
Q 1681 3084 1819 3084 
Q 2600 3084 3056 2656 
Q 3513 2228 3513 1497 
Q 3513 744 3044 326 
Q 2575 -91 1722 -91 
Q 1428 -91 1123 -41 
Q 819 9 494 109 
L 494 744 
Q 775 591 1075 516 
Q 1375 441 1709 441 
Q 2250 441 2565 725 
Q 2881 1009 2881 1497 
Q 2881 1984 2565 2268 
Q 2250 2553 1709 2553 
Q 1456 2553 1204 2497 
Q 953 2441 691 2322 
L 691 4666 
z
" transform="scale(0.015625)"/>
        <path id="DejaVuSans-2c" d="M 750 794 
L 1409 794 
L 1409 256 
L 897 -744 
L 494 -744 
L 750 256 
L 750 794 
z
" transform="scale(0.015625)"/>
        <path id="DejaVuSans-6d" d="M 3328 2828 
Q 3544 3216 3844 3400 
Q 4144 3584 4550 3584 
Q 5097 3584 5394 3201 
Q 5691 2819 5691 2113 
L 5691 0 
L 5113 0 
L 5113 2094 
Q 5113 2597 4934 2840 
Q 4756 3084 4391 3084 
Q 3944 3084 3684 2787 
Q 3425 2491 3425 1978 
L 3425 0 
L 2847 0 
L 2847 2094 
Q 2847 2600 2669 2842 
Q 2491 3084 2119 3084 
Q 1678 3084 1418 2786 
Q 1159 2488 1159 1978 
L 1159 0 
L 581 0 
L 581 3500 
L 1159 3500 
L 1159 2956 
Q 1356 3278 1631 3431 
Q 1906 3584 2284 3584 
Q 2666 3584 2933 3390 
Q 3200 3197 3328 2828 
z
" transform="scale(0.015625)"/>
        <path id="DejaVuSans-74" d="M 1172 4494 
L 1172 3500 
L 2356 3500 
L 2356 3053 
L 1172 3053 
L 1172 1153 
Q 1172 725 1289 603 
Q 1406 481 1766 481 
L 2356 481 
L 2356 0 
L 1766 0 
Q 1100 0 847 248 
Q 594 497 594 1153 
L 594 3053 
L 172 3053 
L 172 3500 
L 594 3500 
L 594 4494 
L 1172 4494 
z
" transform="scale(0.015625)"/>
        <path id="DejaVuSans-3d" d="M 678 2906 
L 4684 2906 
L 4684 2381 
L 678 2381 
L 678 2906 
z
M 678 1631 
L 4684 1631 
L 4684 1100 
L 678 1100 
L 678 1631 
z
" transform="scale(0.015625)"/>
        <path id="DejaVuSans-36" d="M 2113 2584 
Q 1688 2584 1439 2293 
Q 1191 2003 1191 1497 
Q 1191 994 1439 701 
Q 1688 409 2113 409 
Q 2538 409 2786 701 
Q 3034 994 3034 1497 
Q 3034 2003 2786 2293 
Q 2538 2584 2113 2584 
z
M 3366 4563 
L 3366 3988 
Q 3128 4100 2886 4159 
Q 2644 4219 2406 4219 
Q 1781 4219 1451 3797 
Q 1122 3375 1075 2522 
Q 1259 2794 1537 2939 
Q 1816 3084 2150 3084 
Q 2853 3084 3261 2657 
Q 3669 2231 3669 1497 
Q 3669 778 3244 343 
Q 2819 -91 2113 -91 
Q 1303 -91 875 529 
Q 447 1150 447 2328 
Q 447 3434 972 4092 
Q 1497 4750 2381 4750 
Q 2619 4750 2861 4703 
Q 3103 4656 3366 4563 
z
" transform="scale(0.015625)"/>
        <path id="DejaVuSans-33" d="M 2597 2516 
Q 3050 2419 3304 2112 
Q 3559 1806 3559 1356 
Q 3559 666 3084 287 
Q 2609 -91 1734 -91 
Q 1441 -91 1130 -33 
Q 819 25 488 141 
L 488 750 
Q 750 597 1062 519 
Q 1375 441 1716 441 
Q 2309 441 2620 675 
Q 2931 909 2931 1356 
Q 2931 1769 2642 2001 
Q 2353 2234 1838 2234 
L 1294 2234 
L 1294 2753 
L 1863 2753 
Q 2328 2753 2575 2939 
Q 2822 3125 2822 3475 
Q 2822 3834 2567 4026 
Q 2313 4219 1838 4219 
Q 1578 4219 1281 4162 
Q 984 4106 628 3988 
L 628 4550 
Q 988 4650 1302 4700 
Q 1616 4750 1894 4750 
Q 2613 4750 3031 4423 
Q 3450 4097 3450 3541 
Q 3450 3153 3228 2886 
Q 3006 2619 2597 2516 
z
" transform="scale(0.015625)"/>
        <path id="DejaVuSans-29" d="M 513 4856 
L 1013 4856 
Q 1481 4119 1714 3412 
Q 1947 2706 1947 2009 
Q 1947 1309 1714 600 
Q 1481 -109 1013 -844 
L 513 -844 
Q 928 -128 1133 580 
Q 1338 1288 1338 2009 
Q 1338 2731 1133 3434 
Q 928 4138 513 4856 
z
" transform="scale(0.015625)"/>
       </defs>
       <use xlink:href="#DejaVuSans-52"/>
       <use xlink:href="#DejaVuSans-61" transform="translate(67.232422 0)"/>
       <use xlink:href="#DejaVuSans-64" transform="translate(128.511719 0)"/>
       <use xlink:href="#DejaVuSans-69" transform="translate(191.988281 0)"/>
       <use xlink:href="#DejaVuSans-78" transform="translate(219.771484 0)"/>
       <use xlink:href="#DejaVuSans-4d" transform="translate(278.951172 0)"/>
       <use xlink:href="#DejaVuSans-4c" transform="translate(365.230469 0)"/>
       <use xlink:href="#DejaVuSans-50" transform="translate(420.943359 0)"/>
       <use xlink:href="#DejaVuSans-20" transform="translate(481.246094 0)"/>
       <use xlink:href="#DejaVuSans-45" transform="translate(513.033203 0)"/>
       <use xlink:href="#DejaVuSans-6e" transform="translate(576.216797 0)"/>
       <use xlink:href="#DejaVuSans-61" transform="translate(639.595703 0)"/>
       <use xlink:href="#DejaVuSans-62" transform="translate(700.875 0)"/>
       <use xlink:href="#DejaVuSans-6c" transform="translate(764.351562 0)"/>
       <use xlink:href="#DejaVuSans-65" transform="translate(792.134766 0)"/>
       <use xlink:href="#DejaVuSans-64" transform="translate(853.658203 0)"/>
       <use xlink:href="#DejaVuSans-20" transform="translate(917.134766 0)"/>
       <use xlink:href="#DejaVuSans-28" transform="translate(948.921875 0)"/>
       <use xlink:href="#DejaVuSans-30" transform="translate(987.935547 0)"/>
       <use xlink:href="#DejaVuSans-2e" transform="translate(1051.558594 0)"/>
       <use xlink:href="#DejaVuSans-39" transform="translate(1083.345703 0)"/>
       <use xlink:href="#DejaVuSans-35" transform="translate(1146.96875 0)"/>
       <use xlink:href="#DejaVuSans-2c" transform="translate(1210.591797 0)"/>
       <use xlink:href="#DejaVuSans-20" transform="translate(1242.378906 0)"/>
       <use xlink:href="#DejaVuSans-6d" transform="translate(1274.166016 0)"/>
       <use xlink:href="#DejaVuSans-62" transform="translate(1371.578125 0)"/>
       <use xlink:href="#DejaVuSans-74" transform="translate(1435.054688 0)"/>
       <use xlink:href="#DejaVuSans-3d" transform="translate(1474.263672 0)"/>
       <use xlink:href="#DejaVuSans-36" transform="translate(1558.052734 0)"/>
       <use xlink:href="#DejaVuSans-35" transform="translate(1621.675781 0)"/>
       <use xlink:href="#DejaVuSans-35" transform="translate(1685.298828 0)"/>
       <use xlink:href="#DejaVuSans-33" transform="translate(1748.921875 0)"/>
       <use xlink:href="#DejaVuSans-36" transform="translate(1812.544922 0)"/>
       <use xlink:href="#DejaVuSans-29" transform="translate(1876.167969 0)"/>
      </g>
     </g>
    </g>
    <g id="xtick_2">
     <g id="text_2">
      <!-- RadixMLP Enabled (0.95, mbt=16384) -->
      <g style="fill: #262626" transform="translate(298.934063 541.833187) scale(0.1 -0.1)">
       <defs>
        <path id="DejaVuSans-31" d="M 794 531 
L 1825 531 
L 1825 4091 
L 703 3866 
L 703 4441 
L 1819 4666 
L 2450 4666 
L 2450 531 
L 3481 531 
L 3481 0 
L 794 0 
L 794 531 
z
" transform="scale(0.015625)"/>
        <path id="DejaVuSans-38" d="M 2034 2216 
Q 1584 2216 1326 1975 
Q 1069 1734 1069 1313 
Q 1069 891 1326 650 
Q 1584 409 2034 409 
Q 2484 409 2743 651 
Q 3003 894 3003 1313 
Q 3003 1734 2745 1975 
Q 2488 2216 2034 2216 
z
M 1403 2484 
Q 997 2584 770 2862 
Q 544 3141 544 3541 
Q 544 4100 942 4425 
Q 1341 4750 2034 4750 
Q 2731 4750 3128 4425 
Q 3525 4100 3525 3541 
Q 3525 3141 3298 2862 
Q 3072 2584 2669 2484 
Q 3125 2378 3379 2068 
Q 3634 1759 3634 1313 
Q 3634 634 3220 271 
Q 2806 -91 2034 -91 
Q 1263 -91 848 271 
Q 434 634 434 1313 
Q 434 1759 690 2068 
Q 947 2378 1403 2484 
z
M 1172 3481 
Q 1172 3119 1398 2916 
Q 1625 2713 2034 2713 
Q 2441 2713 2670 2916 
Q 2900 3119 2900 3481 
Q 2900 3844 2670 4047 
Q 2441 4250 2034 4250 
Q 1625 4250 1398 4047 
Q 1172 3844 1172 3481 
z
" transform="scale(0.015625)"/>
        <path id="DejaVuSans-34" d="M 2419 4116 
L 825 1625 
L 2419 1625 
L 2419 4116 
z
M 2253 4666 
L 3047 4666 
L 3047 1625 
L 3713 1625 
L 3713 1100 
L 3047 1100 
L 3047 0 
L 2419 0 
L 2419 1100 
L 313 1100 
L 313 1709 
L 2253 4666 
z
" transform="scale(0.015625)"/>
       </defs>
       <use xlink:href="#DejaVuSans-52"/>
       <use xlink:href="#DejaVuSans-61" transform="translate(67.232422 0)"/>
       <use xlink:href="#DejaVuSans-64" transform="translate(128.511719 0)"/>
       <use xlink:href="#DejaVuSans-69" transform="translate(191.988281 0)"/>
       <use xlink:href="#DejaVuSans-78" transform="translate(219.771484 0)"/>
       <use xlink:href="#DejaVuSans-4d" transform="translate(278.951172 0)"/>
       <use xlink:href="#DejaVuSans-4c" transform="translate(365.230469 0)"/>
       <use xlink:href="#DejaVuSans-50" transform="translate(420.943359 0)"/>
       <use xlink:href="#DejaVuSans-20" transform="translate(481.246094 0)"/>
       <use xlink:href="#DejaVuSans-45" transform="translate(513.033203 0)"/>
       <use xlink:href="#DejaVuSans-6e" transform="translate(576.216797 0)"/>
       <use xlink:href="#DejaVuSans-61" transform="translate(639.595703 0)"/>
       <use xlink:href="#DejaVuSans-62" transform="translate(700.875 0)"/>
       <use xlink:href="#DejaVuSans-6c" transform="translate(764.351562 0)"/>
       <use xlink:href="#DejaVuSans-65" transform="translate(792.134766 0)"/>
       <use xlink:href="#DejaVuSans-64" transform="translate(853.658203 0)"/>
       <use xlink:href="#DejaVuSans-20" transform="translate(917.134766 0)"/>
       <use xlink:href="#DejaVuSans-28" transform="translate(948.921875 0)"/>
       <use xlink:href="#DejaVuSans-30" transform="translate(987.935547 0)"/>
       <use xlink:href="#DejaVuSans-2e" transform="translate(1051.558594 0)"/>
       <use xlink:href="#DejaVuSans-39" transform="translate(1083.345703 0)"/>
       <use xlink:href="#DejaVuSans-35" transform="translate(1146.96875 0)"/>
       <use xlink:href="#DejaVuSans-2c" transform="translate(1210.591797 0)"/>
       <use xlink:href="#DejaVuSans-20" transform="translate(1242.378906 0)"/>
       <use xlink:href="#DejaVuSans-6d" transform="translate(1274.166016 0)"/>
       <use xlink:href="#DejaVuSans-62" transform="translate(1371.578125 0)"/>
       <use xlink:href="#DejaVuSans-74" transform="translate(1435.054688 0)"/>
       <use xlink:href="#DejaVuSans-3d" transform="translate(1474.263672 0)"/>
       <use xlink:href="#DejaVuSans-31" transform="translate(1558.052734 0)"/>
       <use xlink:href="#DejaVuSans-36" transform="translate(1621.675781 0)"/>
       <use xlink:href="#DejaVuSans-33" transform="translate(1685.298828 0)"/>
       <use xlink:href="#DejaVuSans-38" transform="translate(1748.921875 0)"/>
       <use xlink:href="#DejaVuSans-34" transform="translate(1812.544922 0)"/>
       <use xlink:href="#DejaVuSans-29" transform="translate(1876.167969 0)"/>
      </g>
     </g>
    </g>
    <g id="xtick_3">
     <g id="text_3">
      <!-- RadixMLP Disabled (mbt=16384) -->
      <g style="fill: #262626" transform="translate(550.741875 541.833187) scale(0.1 -0.1)">
       <defs>
        <path id="DejaVuSans-44" d="M 1259 4147 
L 1259 519 
L 2022 519 
Q 2988 519 3436 956 
Q 3884 1394 3884 2338 
Q 3884 3275 3436 3711 
Q 2988 4147 2022 4147 
L 1259 4147 
z
M 628 4666 
L 1925 4666 
Q 3281 4666 3915 4102 
Q 4550 3538 4550 2338 
Q 4550 1131 3912 565 
Q 3275 0 1925 0 
L 628 0 
L 628 4666 
z
" transform="scale(0.015625)"/>
        <path id="DejaVuSans-73" d="M 2834 3397 
L 2834 2853 
Q 2591 2978 2328 3040 
Q 2066 3103 1784 3103 
Q 1356 3103 1142 2972 
Q 928 2841 928 2578 
Q 928 2378 1081 2264 
Q 1234 2150 1697 2047 
L 1894 2003 
Q 2506 1872 2764 1633 
Q 3022 1394 3022 966 
Q 3022 478 2636 193 
Q 2250 -91 1575 -91 
Q 1294 -91 989 -36 
Q 684 19 347 128 
L 347 722 
Q 666 556 975 473 
Q 1284 391 1588 391 
Q 1994 391 2212 530 
Q 2431 669 2431 922 
Q 2431 1156 2273 1281 
Q 2116 1406 1581 1522 
L 1381 1569 
Q 847 1681 609 1914 
Q 372 2147 372 2553 
Q 372 3047 722 3315 
Q 1072 3584 1716 3584 
Q 2034 3584 2315 3537 
Q 2597 3491 2834 3397 
z
" transform="scale(0.015625)"/>
       </defs>
       <use xlink:href="#DejaVuSans-52"/>
       <use xlink:href="#DejaVuSans-61" transform="translate(67.232422 0)"/>
       <use xlink:href="#DejaVuSans-64" transform="translate(128.511719 0)"/>
       <use xlink:href="#DejaVuSans-69" transform="translate(191.988281 0)"/>
       <use xlink:href="#DejaVuSans-78" transform="translate(219.771484 0)"/>
       <use xlink:href="#DejaVuSans-4d" transform="translate(278.951172 0)"/>
       <use xlink:href="#DejaVuSans-4c" transform="translate(365.230469 0)"/>
       <use xlink:href="#DejaVuSans-50" transform="translate(420.943359 0)"/>
       <use xlink:href="#DejaVuSans-20" transform="translate(481.246094 0)"/>
       <use xlink:href="#DejaVuSans-44" transform="translate(513.033203 0)"/>
       <use xlink:href="#DejaVuSans-69" transform="translate(590.035156 0)"/>
       <use xlink:href="#DejaVuSans-73" transform="translate(617.818359 0)"/>
       <use xlink:href="#DejaVuSans-61" transform="translate(669.917969 0)"/>
       <use xlink:href="#DejaVuSans-62" transform="translate(731.197266 0)"/>
       <use xlink:href="#DejaVuSans-6c" transform="translate(794.673828 0)"/>
       <use xlink:href="#DejaVuSans-65" transform="translate(822.457031 0)"/>
       <use xlink:href="#DejaVuSans-64" transform="translate(883.980469 0)"/>
       <use xlink:href="#DejaVuSans-20" transform="translate(947.457031 0)"/>
       <use xlink:href="#DejaVuSans-28" transform="translate(979.244141 0)"/>
       <use xlink:href="#DejaVuSans-6d" transform="translate(1018.257812 0)"/>
       <use xlink:href="#DejaVuSans-62" transform="translate(1115.669922 0)"/>
       <use xlink:href="#DejaVuSans-74" transform="translate(1179.146484 0)"/>
       <use xlink:href="#DejaVuSans-3d" transform="translate(1218.355469 0)"/>
       <use xlink:href="#DejaVuSans-31" transform="translate(1302.144531 0)"/>
       <use xlink:href="#DejaVuSans-36" transform="translate(1365.767578 0)"/>
       <use xlink:href="#DejaVuSans-33" transform="translate(1429.390625 0)"/>
       <use xlink:href="#DejaVuSans-38" transform="translate(1493.013672 0)"/>
       <use xlink:href="#DejaVuSans-34" transform="translate(1556.636719 0)"/>
       <use xlink:href="#DejaVuSans-29" transform="translate(1620.259766 0)"/>
      </g>
     </g>
    </g>
    <g id="xtick_4">
     <g id="text_4">
      <!-- RadixMLP Disabled (mbt=65536) -->
      <g style="fill: #262626" transform="translate(789.754375 541.833187) scale(0.1 -0.1)">
       <use xlink:href="#DejaVuSans-52"/>
       <use xlink:href="#DejaVuSans-61" transform="translate(67.232422 0)"/>
       <use xlink:href="#DejaVuSans-64" transform="translate(128.511719 0)"/>
       <use xlink:href="#DejaVuSans-69" transform="translate(191.988281 0)"/>
       <use xlink:href="#DejaVuSans-78" transform="translate(219.771484 0)"/>
       <use xlink:href="#DejaVuSans-4d" transform="translate(278.951172 0)"/>
       <use xlink:href="#DejaVuSans-4c" transform="translate(365.230469 0)"/>
       <use xlink:href="#DejaVuSans-50" transform="translate(420.943359 0)"/>
       <use xlink:href="#DejaVuSans-20" transform="translate(481.246094 0)"/>
       <use xlink:href="#DejaVuSans-44" transform="translate(513.033203 0)"/>
       <use xlink:href="#DejaVuSans-69" transform="translate(590.035156 0)"/>
       <use xlink:href="#DejaVuSans-73" transform="translate(617.818359 0)"/>
       <use xlink:href="#DejaVuSans-61" transform="translate(669.917969 0)"/>
       <use xlink:href="#DejaVuSans-62" transform="translate(731.197266 0)"/>
       <use xlink:href="#DejaVuSans-6c" transform="translate(794.673828 0)"/>
       <use xlink:href="#DejaVuSans-65" transform="translate(822.457031 0)"/>
       <use xlink:href="#DejaVuSans-64" transform="translate(883.980469 0)"/>
       <use xlink:href="#DejaVuSans-20" transform="translate(947.457031 0)"/>
       <use xlink:href="#DejaVuSans-28" transform="translate(979.244141 0)"/>
       <use xlink:href="#DejaVuSans-6d" transform="translate(1018.257812 0)"/>
       <use xlink:href="#DejaVuSans-62" transform="translate(1115.669922 0)"/>
       <use xlink:href="#DejaVuSans-74" transform="translate(1179.146484 0)"/>
       <use xlink:href="#DejaVuSans-3d" transform="translate(1218.355469 0)"/>
       <use xlink:href="#DejaVuSans-36" transform="translate(1302.144531 0)"/>
       <use xlink:href="#DejaVuSans-35" transform="translate(1365.767578 0)"/>
       <use xlink:href="#DejaVuSans-35" transform="translate(1429.390625 0)"/>
       <use xlink:href="#DejaVuSans-33" transform="translate(1493.013672 0)"/>
       <use xlink:href="#DejaVuSans-36" transform="translate(1556.636719 0)"/>
       <use xlink:href="#DejaVuSans-29" transform="translate(1620.259766 0)"/>
      </g>
     </g>
    </g>
    <g id="text_5">
     <!-- Configuration -->
     <g style="fill: #262626" transform="translate(473.510938 557.031) scale(0.12 -0.12)">
      <defs>
       <path id="DejaVuSans-43" d="M 4122 4306 
L 4122 3641 
Q 3803 3938 3442 4084 
Q 3081 4231 2675 4231 
Q 1875 4231 1450 3742 
Q 1025 3253 1025 2328 
Q 1025 1406 1450 917 
Q 1875 428 2675 428 
Q 3081 428 3442 575 
Q 3803 722 4122 1019 
L 4122 359 
Q 3791 134 3420 21 
Q 3050 -91 2638 -91 
Q 1578 -91 968 557 
Q 359 1206 359 2328 
Q 359 3453 968 4101 
Q 1578 4750 2638 4750 
Q 3056 4750 3426 4639 
Q 3797 4528 4122 4306 
z
" transform="scale(0.015625)"/>
       <path id="DejaVuSans-6f" d="M 1959 3097 
Q 1497 3097 1228 2736 
Q 959 2375 959 1747 
Q 959 1119 1226 758 
Q 1494 397 1959 397 
Q 2419 397 2687 759 
Q 2956 1122 2956 1747 
Q 2956 2369 2687 2733 
Q 2419 3097 1959 3097 
z
M 1959 3584 
Q 2709 3584 3137 3096 
Q 3566 2609 3566 1747 
Q 3566 888 3137 398 
Q 2709 -91 1959 -91 
Q 1206 -91 779 398 
Q 353 888 353 1747 
Q 353 2609 779 3096 
Q 1206 3584 1959 3584 
z
" transform="scale(0.015625)"/>
       <path id="DejaVuSans-66" d="M 2375 4863 
L 2375 4384 
L 1825 4384 
Q 1516 4384 1395 4259 
Q 1275 4134 1275 3809 
L 1275 3500 
L 2222 3500 
L 2222 3053 
L 1275 3053 
L 1275 0 
L 697 0 
L 697 3053 
L 147 3053 
L 147 3500 
L 697 3500 
L 697 3744 
Q 697 4328 969 4595 
Q 1241 4863 1831 4863 
L 2375 4863 
z
" transform="scale(0.015625)"/>
       <path id="DejaVuSans-67" d="M 2906 1791 
Q 2906 2416 2648 2759 
Q 2391 3103 1925 3103 
Q 1463 3103 1205 2759 
Q 947 2416 947 1791 
Q 947 1169 1205 825 
Q 1463 481 1925 481 
Q 2391 481 2648 825 
Q 2906 1169 2906 1791 
z
M 3481 434 
Q 3481 -459 3084 -895 
Q 2688 -1331 1869 -1331 
Q 1566 -1331 1297 -1286 
Q 1028 -1241 775 -1147 
L 775 -588 
Q 1028 -725 1275 -790 
Q 1522 -856 1778 -856 
Q 2344 -856 2625 -561 
Q 2906 -266 2906 331 
L 2906 616 
Q 2728 306 2450 153 
Q 2172 0 1784 0 
Q 1141 0 747 490 
Q 353 981 353 1791 
Q 353 2603 747 3093 
Q 1141 3584 1784 3584 
Q 2172 3584 2450 3431 
Q 2728 3278 2906 2969 
L 2906 3500 
L 3481 3500 
L 3481 434 
z
" transform="scale(0.015625)"/>
       <path id="DejaVuSans-75" d="M 544 1381 
L 544 3500 
L 1119 3500 
L 1119 1403 
Q 1119 906 1312 657 
Q 1506 409 1894 409 
Q 2359 409 2629 706 
Q 2900 1003 2900 1516 
L 2900 3500 
L 3475 3500 
L 3475 0 
L 2900 0 
L 2900 538 
Q 2691 219 2414 64 
Q 2138 -91 1772 -91 
Q 1169 -91 856 284 
Q 544 659 544 1381 
z
M 1991 3584 
L 1991 3584 
z
" transform="scale(0.015625)"/>
       <path id="DejaVuSans-72" d="M 2631 2963 
Q 2534 3019 2420 3045 
Q 2306 3072 2169 3072 
Q 1681 3072 1420 2755 
Q 1159 2438 1159 1844 
L 1159 0 
L 581 0 
L 581 3500 
L 1159 3500 
L 1159 2956 
Q 1341 3275 1631 3429 
Q 1922 3584 2338 3584 
Q 2397 3584 2469 3576 
Q 2541 3569 2628 3553 
L 2631 2963 
z
" transform="scale(0.015625)"/>
      </defs>
      <use xlink:href="#DejaVuSans-43"/>
      <use xlink:href="#DejaVuSans-6f" transform="translate(69.824219 0)"/>
      <use xlink:href="#DejaVuSans-6e" transform="translate(131.005859 0)"/>
      <use xlink:href="#DejaVuSans-66" transform="translate(194.384766 0)"/>
      <use xlink:href="#DejaVuSans-69" transform="translate(229.589844 0)"/>
      <use xlink:href="#DejaVuSans-67" transform="translate(257.373047 0)"/>
      <use xlink:href="#DejaVuSans-75" transform="translate(320.849609 0)"/>
      <use xlink:href="#DejaVuSans-72" transform="translate(384.228516 0)"/>
      <use xlink:href="#DejaVuSans-61" transform="translate(425.341797 0)"/>
      <use xlink:href="#DejaVuSans-74" transform="translate(486.621094 0)"/>
      <use xlink:href="#DejaVuSans-69" transform="translate(525.830078 0)"/>
      <use xlink:href="#DejaVuSans-6f" transform="translate(553.613281 0)"/>
      <use xlink:href="#DejaVuSans-6e" transform="translate(614.794922 0)"/>
     </g>
    </g>
   </g>
   <g id="matplotlib.axis_2">
    <g id="ytick_1">
     <g id="line2d_1">
      <path d="M 36.17625 523.081205 
L 992.22625 523.081205 
" clip-path="url(#pe7101729d6)" style="fill: none; stroke: #cccccc; stroke-width: 0.8; stroke-linecap: round"/>
     </g>
     <g id="text_6">
      <!-- 0 -->
      <g style="fill: #262626" transform="translate(22.81375 526.880424) scale(0.1 -0.1)">
       <use xlink:href="#DejaVuSans-30"/>
      </g>
     </g>
    </g>
    <g id="ytick_2">
     <g id="line2d_2">
      <path d="M 36.17625 458.39607 
L 992.22625 458.39607 
" clip-path="url(#pe7101729d6)" style="fill: none; stroke: #cccccc; stroke-width: 0.8; stroke-linecap: round"/>
     </g>
     <g id="text_7">
      <!-- 1 -->
      <g style="fill: #262626" transform="translate(22.81375 462.195288) scale(0.1 -0.1)">
       <use xlink:href="#DejaVuSans-31"/>
      </g>
     </g>
    </g>
    <g id="ytick_3">
     <g id="line2d_3">
      <path d="M 36.17625 393.710934 
L 992.22625 393.710934 
" clip-path="url(#pe7101729d6)" style="fill: none; stroke: #cccccc; stroke-width: 0.8; stroke-linecap: round"/>
     </g>
     <g id="text_8">
      <!-- 2 -->
      <g style="fill: #262626" transform="translate(22.81375 397.510153) scale(0.1 -0.1)">
       <defs>
        <path id="DejaVuSans-32" d="M 1228 531 
L 3431 531 
L 3431 0 
L 469 0 
L 469 531 
Q 828 903 1448 1529 
Q 2069 2156 2228 2338 
Q 2531 2678 2651 2914 
Q 2772 3150 2772 3378 
Q 2772 3750 2511 3984 
Q 2250 4219 1831 4219 
Q 1534 4219 1204 4116 
Q 875 4013 500 3803 
L 500 4441 
Q 881 4594 1212 4672 
Q 1544 4750 1819 4750 
Q 2544 4750 2975 4387 
Q 3406 4025 3406 3419 
Q 3406 3131 3298 2873 
Q 3191 2616 2906 2266 
Q 2828 2175 2409 1742 
Q 1991 1309 1228 531 
z
" transform="scale(0.015625)"/>
       </defs>
       <use xlink:href="#DejaVuSans-32"/>
      </g>
     </g>
    </g>
    <g id="ytick_4">
     <g id="line2d_4">
      <path d="M 36.17625 329.025799 
L 992.22625 329.025799 
" clip-path="url(#pe7101729d6)" style="fill: none; stroke: #cccccc; stroke-width: 0.8; stroke-linecap: round"/>
     </g>
     <g id="text_9">
      <!-- 3 -->
      <g style="fill: #262626" transform="translate(22.81375 332.825018) scale(0.1 -0.1)">
       <use xlink:href="#DejaVuSans-33"/>
      </g>
     </g>
    </g>
    <g id="ytick_5">
     <g id="line2d_5">
      <path d="M 36.17625 264.340664 
L 992.22625 264.340664 
" clip-path="url(#pe7101729d6)" style="fill: none; stroke: #cccccc; stroke-width: 0.8; stroke-linecap: round"/>
     </g>
     <g id="text_10">
      <!-- 4 -->
      <g style="fill: #262626" transform="translate(22.81375 268.139883) scale(0.1 -0.1)">
       <use xlink:href="#DejaVuSans-34"/>
      </g>
     </g>
    </g>
    <g id="ytick_6">
     <g id="line2d_6">
      <path d="M 36.17625 199.655529 
L 992.22625 199.655529 
" clip-path="url(#pe7101729d6)" style="fill: none; stroke: #cccccc; stroke-width: 0.8; stroke-linecap: round"/>
     </g>
     <g id="text_11">
      <!-- 5 -->
      <g style="fill: #262626" transform="translate(22.81375 203.454748) scale(0.1 -0.1)">
       <use xlink:href="#DejaVuSans-35"/>
      </g>
     </g>
    </g>
    <g id="ytick_7">
     <g id="line2d_7">
      <path d="M 36.17625 134.970394 
L 992.22625 134.970394 
" clip-path="url(#pe7101729d6)" style="fill: none; stroke: #cccccc; stroke-width: 0.8; stroke-linecap: round"/>
     </g>
     <g id="text_12">
      <!-- 6 -->
      <g style="fill: #262626" transform="translate(22.81375 138.769613) scale(0.1 -0.1)">
       <use xlink:href="#DejaVuSans-36"/>
      </g>
     </g>
    </g>
    <g id="ytick_8">
     <g id="line2d_8">
      <path d="M 36.17625 70.285259 
L 992.22625 70.285259 
" clip-path="url(#pe7101729d6)" style="fill: none; stroke: #cccccc; stroke-width: 0.8; stroke-linecap: round"/>
     </g>
     <g id="text_13">
      <!-- 7 -->
      <g style="fill: #262626" transform="translate(22.81375 74.084478) scale(0.1 -0.1)">
       <defs>
        <path id="DejaVuSans-37" d="M 525 4666 
L 3525 4666 
L 3525 4397 
L 1831 0 
L 1172 0 
L 2766 4134 
L 525 4134 
L 525 4666 
z
" transform="scale(0.015625)"/>
       </defs>
       <use xlink:href="#DejaVuSans-37"/>
      </g>
     </g>
    </g>
    <g id="text_14">
     <!-- Request Time (seconds) -->
     <g style="fill: #262626" transform="translate(16.318125 362.447875) rotate(-90) scale(0.12 -0.12)">
      <defs>
       <path id="DejaVuSans-71" d="M 947 1747 
Q 947 1113 1208 752 
Q 1469 391 1925 391 
Q 2381 391 2643 752 
Q 2906 1113 2906 1747 
Q 2906 2381 2643 2742 
Q 2381 3103 1925 3103 
Q 1469 3103 1208 2742 
Q 947 2381 947 1747 
z
M 2906 525 
Q 2725 213 2448 61 
Q 2172 -91 1784 -91 
Q 1150 -91 751 415 
Q 353 922 353 1747 
Q 353 2572 751 3078 
Q 1150 3584 1784 3584 
Q 2172 3584 2448 3432 
Q 2725 3281 2906 2969 
L 2906 3500 
L 3481 3500 
L 3481 -1331 
L 2906 -1331 
L 2906 525 
z
" transform="scale(0.015625)"/>
       <path id="DejaVuSans-54" d="M -19 4666 
L 3928 4666 
L 3928 4134 
L 2272 4134 
L 2272 0 
L 1638 0 
L 1638 4134 
L -19 4134 
L -19 4666 
z
" transform="scale(0.015625)"/>
       <path id="DejaVuSans-63" d="M 3122 3366 
L 3122 2828 
Q 2878 2963 2633 3030 
Q 2388 3097 2138 3097 
Q 1578 3097 1268 2742 
Q 959 2388 959 1747 
Q 959 1106 1268 751 
Q 1578 397 2138 397 
Q 2388 397 2633 464 
Q 2878 531 3122 666 
L 3122 134 
Q 2881 22 2623 -34 
Q 2366 -91 2075 -91 
Q 1284 -91 818 406 
Q 353 903 353 1747 
Q 353 2603 823 3093 
Q 1294 3584 2113 3584 
Q 2378 3584 2631 3529 
Q 2884 3475 3122 3366 
z
" transform="scale(0.015625)"/>
      </defs>
      <use xlink:href="#DejaVuSans-52"/>
      <use xlink:href="#DejaVuSans-65" transform="translate(64.982422 0)"/>
      <use xlink:href="#DejaVuSans-71" transform="translate(126.505859 0)"/>
      <use xlink:href="#DejaVuSans-75" transform="translate(189.982422 0)"/>
      <use xlink:href="#DejaVuSans-65" transform="translate(253.361328 0)"/>
      <use xlink:href="#DejaVuSans-73" transform="translate(314.884766 0)"/>
      <use xlink:href="#DejaVuSans-74" transform="translate(366.984375 0)"/>
      <use xlink:href="#DejaVuSans-20" transform="translate(406.193359 0)"/>
      <use xlink:href="#DejaVuSans-54" transform="translate(437.980469 0)"/>
      <use xlink:href="#DejaVuSans-69" transform="translate(495.939453 0)"/>
      <use xlink:href="#DejaVuSans-6d" transform="translate(523.722656 0)"/>
      <use xlink:href="#DejaVuSans-65" transform="translate(621.134766 0)"/>
      <use xlink:href="#DejaVuSans-20" transform="translate(682.658203 0)"/>
      <use xlink:href="#DejaVuSans-28" transform="translate(714.445312 0)"/>
      <use xlink:href="#DejaVuSans-73" transform="translate(753.458984 0)"/>
      <use xlink:href="#DejaVuSans-65" transform="translate(805.558594 0)"/>
      <use xlink:href="#DejaVuSans-63" transform="translate(867.082031 0)"/>
      <use xlink:href="#DejaVuSans-6f" transform="translate(922.0625 0)"/>
      <use xlink:href="#DejaVuSans-6e" transform="translate(983.244141 0)"/>
      <use xlink:href="#DejaVuSans-64" transform="translate(1046.623047 0)"/>
      <use xlink:href="#DejaVuSans-73" transform="translate(1110.099609 0)"/>
      <use xlink:href="#DejaVuSans-29" transform="translate(1162.199219 0)"/>
     </g>
    </g>
   </g>
   <g id="FillBetweenPolyCollection_1">
    <defs>
     <path id="m33ade1e0f2" d="M 155.819056 -61.024602 
L 155.545944 -61.024602 
L 155.584553 -63.793839 
L 155.646357 -66.563076 
L 155.675639 -69.332313 
L 155.68183 -72.10155 
L 155.682466 -74.870786 
L 155.682499 -77.640023 
L 155.6825 -80.40926 
L 155.6825 -83.178497 
L 155.6825 -85.947734 
L 155.6825 -88.71697 
L 155.6825 -91.486207 
L 155.6825 -94.255444 
L 155.6825 -97.024681 
L 155.6825 -99.793918 
L 155.6825 -102.563155 
L 155.6825 -105.332391 
L 155.6825 -108.101628 
L 155.6825 -110.870865 
L 155.6825 -113.640102 
L 155.6825 -116.409339 
L 155.6825 -119.178576 
L 155.6825 -121.947812 
L 155.6825 -124.717049 
L 155.6825 -127.486286 
L 155.6825 -130.255523 
L 155.6825 -133.02476 
L 155.6825 -135.793996 
L 155.6825 -138.563233 
L 155.6825 -141.33247 
L 155.682498 -144.101707 
L 155.682434 -146.870944 
L 155.681025 -149.640181 
L 155.66542 -152.409417 
L 155.579747 -155.178654 
L 155.360592 -157.947891 
L 155.155797 -160.717128 
L 155.231026 -163.486365 
L 155.479073 -166.255601 
L 155.632487 -169.024838 
L 155.6595 -171.794075 
L 155.59895 -174.563312 
L 155.472801 -177.332549 
L 155.410456 -180.101786 
L 155.500913 -182.871022 
L 155.620083 -185.640259 
L 155.670286 -188.409496 
L 155.668901 -191.178733 
L 155.614196 -193.94797 
L 155.492213 -196.717207 
L 155.409569 -199.486443 
L 155.481087 -202.25568 
L 155.606026 -205.024917 
L 155.667561 -207.794154 
L 155.680999 -210.563391 
L 155.682422 -213.332627 
L 155.682498 -216.101864 
L 155.6825 -218.871101 
L 155.6825 -221.640338 
L 155.6825 -224.409575 
L 155.6825 -227.178812 
L 155.6825 -229.948048 
L 155.6825 -232.717285 
L 155.6825 -235.486522 
L 155.6825 -238.255759 
L 155.682499 -241.024996 
L 155.682469 -243.794232 
L 155.681777 -246.563469 
L 155.673879 -249.332706 
L 155.629162 -252.101943 
L 155.507582 -254.87118 
L 155.357735 -257.640417 
L 155.283669 -260.409653 
L 155.280037 -263.17889 
L 155.172878 -265.948127 
L 154.291719 -268.717364 
L 150.99232 -271.486601 
L 141.973155 -274.255838 
L 123.398212 -277.025074 
L 96.021889 -279.794311 
L 70.040217 -282.563548 
L 60.0775 -285.332785 
L 70.084124 -288.102022 
L 91.696082 -290.871258 
L 115.268971 -293.640495 
L 134.948729 -296.409732 
L 147.902397 -299.178969 
L 153.765232 -301.948206 
L 155.342409 -304.717443 
L 155.515067 -307.486679 
L 155.319487 -310.255916 
L 154.616223 -313.025153 
L 153.308196 -315.79439 
L 152.556054 -318.563627 
L 153.201836 -321.332863 
L 154.062886 -324.1021 
L 154.226244 -326.871337 
L 153.865364 -329.640574 
L 153.275377 -332.409811 
L 153.357663 -335.179048 
L 158.007337 -335.179048 
L 158.007337 -335.179048 
L 158.089623 -332.409811 
L 157.499636 -329.640574 
L 157.138756 -326.871337 
L 157.302114 -324.1021 
L 158.163164 -321.332863 
L 158.808946 -318.563627 
L 158.056804 -315.79439 
L 156.748777 -313.025153 
L 156.045513 -310.255916 
L 155.849933 -307.486679 
L 156.022591 -304.717443 
L 157.599768 -301.948206 
L 163.462603 -299.178969 
L 176.416271 -296.409732 
L 196.096029 -293.640495 
L 219.668918 -290.871258 
L 241.280876 -288.102022 
L 251.2875 -285.332785 
L 241.324783 -282.563548 
L 215.343111 -279.794311 
L 187.966788 -277.025074 
L 169.391845 -274.255838 
L 160.37268 -271.486601 
L 157.073281 -268.717364 
L 156.192122 -265.948127 
L 156.084963 -263.17889 
L 156.081331 -260.409653 
L 156.007265 -257.640417 
L 155.857418 -254.87118 
L 155.735838 -252.101943 
L 155.691121 -249.332706 
L 155.683223 -246.563469 
L 155.682531 -243.794232 
L 155.682501 -241.024996 
L 155.6825 -238.255759 
L 155.6825 -235.486522 
L 155.6825 -232.717285 
L 155.6825 -229.948048 
L 155.6825 -227.178812 
L 155.6825 -224.409575 
L 155.6825 -221.640338 
L 155.6825 -218.871101 
L 155.682502 -216.101864 
L 155.682578 -213.332627 
L 155.684001 -210.563391 
L 155.697439 -207.794154 
L 155.758974 -205.024917 
L 155.883913 -202.25568 
L 155.955431 -199.486443 
L 155.872787 -196.717207 
L 155.750804 -193.94797 
L 155.696099 -191.178733 
L 155.694714 -188.409496 
L 155.744917 -185.640259 
L 155.864087 -182.871022 
L 155.954544 -180.101786 
L 155.892199 -177.332549 
L 155.76605 -174.563312 
L 155.7055 -171.794075 
L 155.732513 -169.024838 
L 155.885927 -166.255601 
L 156.133974 -163.486365 
L 156.209203 -160.717128 
L 156.004408 -157.947891 
L 155.785253 -155.178654 
L 155.69958 -152.409417 
L 155.683975 -149.640181 
L 155.682566 -146.870944 
L 155.682502 -144.101707 
L 155.6825 -141.33247 
L 155.6825 -138.563233 
L 155.6825 -135.793996 
L 155.6825 -133.02476 
L 155.6825 -130.255523 
L 155.6825 -127.486286 
L 155.6825 -124.717049 
L 155.6825 -121.947812 
L 155.6825 -119.178576 
L 155.6825 -116.409339 
L 155.6825 -113.640102 
L 155.6825 -110.870865 
L 155.6825 -108.101628 
L 155.6825 -105.332391 
L 155.6825 -102.563155 
L 155.6825 -99.793918 
L 155.6825 -97.024681 
L 155.6825 -94.255444 
L 155.6825 -91.486207 
L 155.6825 -88.71697 
L 155.6825 -85.947734 
L 155.6825 -83.178497 
L 155.6825 -80.40926 
L 155.682501 -77.640023 
L 155.682534 -74.870786 
L 155.68317 -72.10155 
L 155.689361 -69.332313 
L 155.718643 -66.563076 
L 155.780447 -63.793839 
L 155.819056 -61.024602 
z
" style="stroke: #3f3f3f; stroke-width: 1.25"/>
    </defs>
    <g clip-path="url(#pe7101729d6)">
     <use xlink:href="#m33ade1e0f2" x="0" y="566.726625" style="fill: #e1812c; stroke: #3f3f3f; stroke-width: 1.25"/>
    </g>
   </g>
   <g id="FillBetweenPolyCollection_2">
    <defs>
     <path id="m5b77254272" d="M 394.833452 -61.51471 
L 394.556548 -61.51471 
L 394.576222 -64.418948 
L 394.618327 -67.323186 
L 394.64973 -70.227425 
L 394.649227 -73.131663 
L 394.617132 -76.035902 
L 394.575204 -78.94014 
L 394.55657 -81.844378 
L 394.577791 -84.748617 
L 394.62249 -87.652855 
L 394.662235 -90.557094 
L 394.684186 -93.461332 
L 394.692393 -96.36557 
L 394.69454 -99.269809 
L 394.69493 -102.174047 
L 394.694879 -105.078286 
L 394.694101 -107.982524 
L 394.689876 -110.886762 
L 394.673672 -113.791001 
L 394.630154 -116.695239 
L 394.550999 -119.599478 
L 394.461434 -122.503716 
L 394.418265 -125.407954 
L 394.455232 -128.312193 
L 394.541386 -131.216431 
L 394.61401 -134.12067 
L 394.632029 -137.024908 
L 394.587323 -139.929146 
L 394.50165 -142.833385 
L 394.429721 -145.737623 
L 394.427974 -148.641862 
L 394.498593 -151.5461 
L 394.589477 -154.450338 
L 394.65359 -157.354577 
L 394.68313 -160.258815 
L 394.692514 -163.163054 
L 394.694611 -166.067292 
L 394.694859 -168.97153 
L 394.694165 -171.875769 
L 394.689873 -174.780007 
L 394.671921 -177.684246 
L 394.619111 -180.588484 
L 394.512735 -183.492722 
L 394.375254 -186.396961 
L 394.285279 -189.301199 
L 394.311419 -192.205438 
L 394.431999 -195.109676 
L 394.559711 -198.013914 
L 394.630887 -200.918153 
L 394.63773 -203.822391 
L 394.603981 -206.72663 
L 394.566096 -209.630868 
L 394.558426 -212.535106 
L 394.587572 -215.439345 
L 394.625745 -218.343583 
L 394.635314 -221.247822 
L 394.593978 -224.15206 
L 394.510777 -227.056298 
L 394.434539 -229.960537 
L 394.423952 -232.864775 
L 394.487034 -235.769014 
L 394.565554 -238.673252 
L 394.566012 -241.57749 
L 394.338493 -244.481729 
L 393.610563 -247.385967 
L 392.100646 -250.290206 
L 389.968691 -253.194444 
L 388.151827 -256.098682 
L 387.771349 -259.002921 
L 388.836768 -261.907159 
L 389.51615 -264.811398 
L 386.215392 -267.715636 
L 374.16865 -270.619874 
L 350.482536 -273.524113 
L 320.399866 -276.428351 
L 299.09 -279.33259 
L 300.580307 -282.236828 
L 323.458718 -285.141066 
L 352.149133 -288.045305 
L 371.525536 -290.949543 
L 376.131328 -293.853782 
L 368.817095 -296.75802 
L 357.266319 -299.662258 
L 350.818324 -302.566497 
L 354.76492 -305.470735 
L 366.336333 -308.374974 
L 378.339448 -311.279212 
L 386.019814 -314.18345 
L 389.0553 -317.087689 
L 389.152447 -319.991927 
L 388.17331 -322.896166 
L 387.649972 -325.800404 
L 388.19479 -328.704642 
L 389.288765 -331.608881 
L 390.207755 -334.513119 
L 390.778937 -337.417358 
L 391.066117 -340.321596 
L 391.101155 -343.225834 
L 391.166201 -346.130073 
L 391.684201 -349.034311 
L 397.705799 -349.034311 
L 397.705799 -349.034311 
L 398.223799 -346.130073 
L 398.288845 -343.225834 
L 398.323883 -340.321596 
L 398.611063 -337.417358 
L 399.182245 -334.513119 
L 400.101235 -331.608881 
L 401.19521 -328.704642 
L 401.740028 -325.800404 
L 401.21669 -322.896166 
L 400.237553 -319.991927 
L 400.3347 -317.087689 
L 403.370186 -314.18345 
L 411.050552 -311.279212 
L 423.053667 -308.374974 
L 434.62508 -305.470735 
L 438.571676 -302.566497 
L 432.123681 -299.662258 
L 420.572905 -296.75802 
L 413.258672 -293.853782 
L 417.864464 -290.949543 
L 437.240867 -288.045305 
L 465.931282 -285.141066 
L 488.809693 -282.236828 
L 490.3 -279.33259 
L 468.990134 -276.428351 
L 438.907464 -273.524113 
L 415.22135 -270.619874 
L 403.174608 -267.715636 
L 399.87385 -264.811398 
L 400.553232 -261.907159 
L 401.618651 -259.002921 
L 401.238173 -256.098682 
L 399.421309 -253.194444 
L 397.289354 -250.290206 
L 395.779437 -247.385967 
L 395.051507 -244.481729 
L 394.823988 -241.57749 
L 394.824446 -238.673252 
L 394.902966 -235.769014 
L 394.966048 -232.864775 
L 394.955461 -229.960537 
L 394.879223 -227.056298 
L 394.796022 -224.15206 
L 394.754686 -221.247822 
L 394.764255 -218.343583 
L 394.802428 -215.439345 
L 394.831574 -212.535106 
L 394.823904 -209.630868 
L 394.786019 -206.72663 
L 394.75227 -203.822391 
L 394.759113 -200.918153 
L 394.830289 -198.013914 
L 394.958001 -195.109676 
L 395.078581 -192.205438 
L 395.104721 -189.301199 
L 395.014746 -186.396961 
L 394.877265 -183.492722 
L 394.770889 -180.588484 
L 394.718079 -177.684246 
L 394.700127 -174.780007 
L 394.695835 -171.875769 
L 394.695141 -168.97153 
L 394.695389 -166.067292 
L 394.697486 -163.163054 
L 394.70687 -160.258815 
L 394.73641 -157.354577 
L 394.800523 -154.450338 
L 394.891407 -151.5461 
L 394.962026 -148.641862 
L 394.960279 -145.737623 
L 394.88835 -142.833385 
L 394.802677 -139.929146 
L 394.757971 -137.024908 
L 394.77599 -134.12067 
L 394.848614 -131.216431 
L 394.934768 -128.312193 
L 394.971735 -125.407954 
L 394.928566 -122.503716 
L 394.839001 -119.599478 
L 394.759846 -116.695239 
L 394.716328 -113.791001 
L 394.700124 -110.886762 
L 394.695899 -107.982524 
L 394.695121 -105.078286 
L 394.69507 -102.174047 
L 394.69546 -99.269809 
L 394.697607 -96.36557 
L 394.705814 -93.461332 
L 394.727765 -90.557094 
L 394.76751 -87.652855 
L 394.812209 -84.748617 
L 394.83343 -81.844378 
L 394.814796 -78.94014 
L 394.772868 -76.035902 
L 394.740773 -73.131663 
L 394.74027 -70.227425 
L 394.771673 -67.323186 
L 394.813778 -64.418948 
L 394.833452 -61.51471 
z
" style="stroke: #3f3f3f; stroke-width: 1.25"/>
    </defs>
    <g clip-path="url(#pe7101729d6)">
     <use xlink:href="#m5b77254272" x="0" y="566.726625" style="fill: #e1812c; stroke: #3f3f3f; stroke-width: 1.25"/>
    </g>
   </g>
   <g id="FillBetweenPolyCollection_3">
    <defs>
     <path id="m4f8fc58919" d="M 633.829496 -89.097116 
L 633.585504 -89.097116 
L 633.604722 -93.152694 
L 633.645802 -97.208273 
L 633.679259 -101.263851 
L 633.688385 -105.319429 
L 633.665173 -109.375007 
L 633.603406 -113.430586 
L 633.519345 -117.486164 
L 633.465727 -121.541742 
L 633.487085 -125.59732 
L 633.564864 -129.652899 
L 633.64132 -133.708477 
L 633.681918 -137.764055 
L 633.686084 -141.819633 
L 633.661813 -145.875212 
L 633.620829 -149.93079 
L 633.589024 -153.986368 
L 633.592497 -158.041946 
L 633.628204 -162.097525 
L 633.667845 -166.153103 
L 633.688308 -170.208681 
L 633.679974 -174.264259 
L 633.635017 -178.319838 
L 633.556064 -182.375416 
L 633.481478 -186.430994 
L 633.468098 -190.486572 
L 633.527593 -194.542151 
L 633.611352 -198.597729 
L 633.669468 -202.653307 
L 633.68953 -206.708885 
L 633.678579 -210.764464 
L 633.64422 -214.820042 
L 633.603376 -218.87562 
L 633.585535 -222.931198 
L 633.606126 -226.986776 
L 633.647597 -231.042355 
L 633.681448 -235.097933 
L 633.694645 -239.153511 
L 633.686175 -243.209089 
L 633.656348 -247.264668 
L 633.614421 -251.320246 
L 633.586868 -255.375824 
L 633.596564 -259.431402 
L 633.635062 -263.486981 
L 633.673402 -267.542559 
L 633.693027 -271.598137 
L 633.690945 -275.653715 
L 633.667172 -279.709294 
L 633.626741 -283.764872 
L 633.591702 -287.82045 
L 633.589647 -291.876028 
L 633.622345 -295.931607 
L 633.663247 -299.987185 
L 633.687377 -304.042763 
L 633.684286 -308.098341 
L 633.646291 -312.15392 
L 633.571879 -316.209498 
L 633.492004 -320.265076 
L 633.464448 -324.320654 
L 633.513015 -328.376233 
L 633.596936 -332.431811 
L 633.66174 -336.487389 
L 633.688319 -340.542967 
L 633.682322 -344.598546 
L 633.651175 -348.654124 
L 633.608095 -352.709702 
L 633.572656 -356.76528 
L 633.519042 -360.820858 
L 633.285555 -364.876437 
L 632.573913 -368.932015 
L 631.250796 -372.987593 
L 629.827995 -377.043171 
L 629.293272 -381.09875 
L 630.042513 -385.154328 
L 631.299 -389.209906 
L 631.503004 -393.265484 
L 627.837406 -397.321063 
L 615.008875 -401.376641 
L 588.71169 -405.432219 
L 556.090754 -409.487797 
L 538.1025 -413.543376 
L 549.48166 -417.598954 
L 580.340259 -421.654532 
L 608.672859 -425.71011 
L 622.837803 -429.765689 
L 623.504575 -433.821267 
L 614.168486 -437.876845 
L 599.443627 -441.932423 
L 588.314346 -445.988002 
L 589.472708 -450.04358 
L 602.006104 -454.099158 
L 616.757142 -458.154736 
L 626.593182 -462.210315 
L 630.843164 -466.265893 
L 631.918201 -470.321471 
L 631.785556 -474.377049 
L 631.312976 -478.432628 
L 630.910205 -482.488206 
L 630.922974 -486.543784 
L 631.482237 -490.599362 
L 635.932763 -490.599362 
L 635.932763 -490.599362 
L 636.492026 -486.543784 
L 636.504795 -482.488206 
L 636.102024 -478.432628 
L 635.629444 -474.377049 
L 635.496799 -470.321471 
L 636.571836 -466.265893 
L 640.821818 -462.210315 
L 650.657858 -458.154736 
L 665.408896 -454.099158 
L 677.942292 -450.04358 
L 679.100654 -445.988002 
L 667.971373 -441.932423 
L 653.246514 -437.876845 
L 643.910425 -433.821267 
L 644.577197 -429.765689 
L 658.742141 -425.71011 
L 687.074741 -421.654532 
L 717.93334 -417.598954 
L 729.3125 -413.543376 
L 711.324246 -409.487797 
L 678.70331 -405.432219 
L 652.406125 -401.376641 
L 639.577594 -397.321063 
L 635.911996 -393.265484 
L 636.116 -389.209906 
L 637.372487 -385.154328 
L 638.121728 -381.09875 
L 637.587005 -377.043171 
L 636.164204 -372.987593 
L 634.841087 -368.932015 
L 634.129445 -364.876437 
L 633.895958 -360.820858 
L 633.842344 -356.76528 
L 633.806905 -352.709702 
L 633.763825 -348.654124 
L 633.732678 -344.598546 
L 633.726681 -340.542967 
L 633.75326 -336.487389 
L 633.818064 -332.431811 
L 633.901985 -328.376233 
L 633.950552 -324.320654 
L 633.922996 -320.265076 
L 633.843121 -316.209498 
L 633.768709 -312.15392 
L 633.730714 -308.098341 
L 633.727623 -304.042763 
L 633.751753 -299.987185 
L 633.792655 -295.931607 
L 633.825353 -291.876028 
L 633.823298 -287.82045 
L 633.788259 -283.764872 
L 633.747828 -279.709294 
L 633.724055 -275.653715 
L 633.721973 -271.598137 
L 633.741598 -267.542559 
L 633.779938 -263.486981 
L 633.818436 -259.431402 
L 633.828132 -255.375824 
L 633.800579 -251.320246 
L 633.758652 -247.264668 
L 633.728825 -243.209089 
L 633.720355 -239.153511 
L 633.733552 -235.097933 
L 633.767403 -231.042355 
L 633.808874 -226.986776 
L 633.829465 -222.931198 
L 633.811624 -218.87562 
L 633.77078 -214.820042 
L 633.736421 -210.764464 
L 633.72547 -206.708885 
L 633.745532 -202.653307 
L 633.803648 -198.597729 
L 633.887407 -194.542151 
L 633.946902 -190.486572 
L 633.933522 -186.430994 
L 633.858936 -182.375416 
L 633.779983 -178.319838 
L 633.735026 -174.264259 
L 633.726692 -170.208681 
L 633.747155 -166.153103 
L 633.786796 -162.097525 
L 633.822503 -158.041946 
L 633.825976 -153.986368 
L 633.794171 -149.93079 
L 633.753187 -145.875212 
L 633.728916 -141.819633 
L 633.733082 -137.764055 
L 633.77368 -133.708477 
L 633.850136 -129.652899 
L 633.927915 -125.59732 
L 633.949273 -121.541742 
L 633.895655 -117.486164 
L 633.811594 -113.430586 
L 633.749827 -109.375007 
L 633.726615 -105.319429 
L 633.735741 -101.263851 
L 633.769198 -97.208273 
L 633.810278 -93.152694 
L 633.829496 -89.097116 
z
" style="stroke: #3f3f3f; stroke-width: 1.25"/>
    </defs>
    <g clip-path="url(#pe7101729d6)">
     <use xlink:href="#m4f8fc58919" x="0" y="566.726625" style="fill: #3274a1; stroke: #3f3f3f; stroke-width: 1.25"/>
    </g>
   </g>
   <g id="FillBetweenPolyCollection_4">
    <defs>
     <path id="m4d6eb1d4b4" d="M 873.403763 -202.605598 
L 872.036237 -202.605598 
L 872.135717 -205.525533 
L 872.368041 -208.445468 
L 872.570544 -211.365402 
L 872.675261 -214.285337 
L 872.710559 -217.205272 
L 872.718596 -220.125207 
L 872.719853 -223.045142 
L 872.719989 -225.965077 
L 872.719996 -228.885011 
L 872.719962 -231.804946 
L 872.719657 -234.724881 
L 872.71784 -237.644816 
L 872.710406 -240.564751 
L 872.689968 -243.484686 
L 872.653741 -246.404621 
L 872.616968 -249.324555 
L 872.607082 -252.24449 
L 872.63278 -255.164425 
L 872.672517 -258.08436 
L 872.701779 -261.004295 
L 872.715049 -263.92423 
L 872.718829 -266.844165 
L 872.718312 -269.764099 
L 872.712573 -272.684034 
L 872.695184 -275.603969 
L 872.66147 -278.523904 
L 872.622701 -281.443839 
L 872.606001 -284.363774 
L 872.625864 -287.283708 
L 872.665213 -290.203643 
L 872.697527 -293.123578 
L 872.713503 -296.043513 
L 872.718676 -298.963448 
L 872.71981 -301.883383 
L 872.719981 -304.803318 
L 872.719999 -307.723252 
L 872.72 -310.643187 
L 872.72 -313.563122 
L 872.72 -316.483057 
L 872.72 -319.402992 
L 872.72 -322.322927 
L 872.72 -325.242861 
L 872.72 -328.162796 
L 872.72 -331.082731 
L 872.72 -334.002666 
L 872.72 -336.922601 
L 872.72 -339.842536 
L 872.72 -342.762471 
L 872.72 -345.682405 
L 872.719999 -348.60234 
L 872.719978 -351.522275 
L 872.719767 -354.44221 
L 872.718237 -357.362145 
L 872.710542 -360.28208 
L 872.68392 -363.202014 
L 872.62119 -366.121949 
L 872.522163 -369.041884 
L 872.421061 -371.961819 
L 872.363176 -374.881754 
L 872.365805 -377.801689 
L 872.403991 -380.721624 
L 872.402994 -383.641558 
L 872.267495 -386.561493 
L 872.00146 -389.481428 
L 871.782512 -392.401363 
L 871.802592 -395.321298 
L 872.042449 -398.241233 
L 872.291985 -401.161167 
L 872.292057 -404.081102 
L 871.671924 -407.001037 
L 869.680514 -409.920972 
L 864.957845 -412.840907 
L 855.673445 -415.760842 
L 840.337338 -418.680777 
L 819.318787 -421.600711 
L 796.584131 -424.520646 
L 779.888918 -427.440581 
L 777.115 -430.360516 
L 790.407324 -433.280451 
L 814.038084 -436.200386 
L 838.443703 -439.12032 
L 856.392591 -442.040255 
L 866.093256 -444.96019 
L 869.822693 -447.880125 
L 870.775066 -450.80006 
L 871.079997 -453.719995 
L 871.462742 -456.63993 
L 871.782411 -459.559864 
L 871.760679 -462.479799 
L 871.369893 -465.399734 
L 870.768415 -468.319669 
L 870.134321 -471.239604 
L 869.660686 -474.159539 
L 869.513069 -477.079473 
L 869.643694 -479.999408 
L 869.87242 -482.919343 
L 870.212589 -485.839278 
L 870.802806 -488.759213 
L 871.549323 -491.679148 
L 873.890677 -491.679148 
L 873.890677 -491.679148 
L 874.637194 -488.759213 
L 875.227411 -485.839278 
L 875.56758 -482.919343 
L 875.796306 -479.999408 
L 875.926931 -477.079473 
L 875.779314 -474.159539 
L 875.305679 -471.239604 
L 874.671585 -468.319669 
L 874.070107 -465.399734 
L 873.679321 -462.479799 
L 873.657589 -459.559864 
L 873.977258 -456.63993 
L 874.360003 -453.719995 
L 874.664934 -450.80006 
L 875.617307 -447.880125 
L 879.346744 -444.96019 
L 889.047409 -442.040255 
L 906.996297 -439.12032 
L 931.401916 -436.200386 
L 955.032676 -433.280451 
L 968.325 -430.360516 
L 965.551082 -427.440581 
L 948.855869 -424.520646 
L 926.121213 -421.600711 
L 905.102662 -418.680777 
L 889.766555 -415.760842 
L 880.482155 -412.840907 
L 875.759486 -409.920972 
L 873.768076 -407.001037 
L 873.147943 -404.081102 
L 873.148015 -401.161167 
L 873.397551 -398.241233 
L 873.637408 -395.321298 
L 873.657488 -392.401363 
L 873.43854 -389.481428 
L 873.172505 -386.561493 
L 873.037006 -383.641558 
L 873.036009 -380.721624 
L 873.074195 -377.801689 
L 873.076824 -374.881754 
L 873.018939 -371.961819 
L 872.917837 -369.041884 
L 872.81881 -366.121949 
L 872.75608 -363.202014 
L 872.729458 -360.28208 
L 872.721763 -357.362145 
L 872.720233 -354.44221 
L 872.720022 -351.522275 
L 872.720001 -348.60234 
L 872.72 -345.682405 
L 872.72 -342.762471 
L 872.72 -339.842536 
L 872.72 -336.922601 
L 872.72 -334.002666 
L 872.72 -331.082731 
L 872.72 -328.162796 
L 872.72 -325.242861 
L 872.72 -322.322927 
L 872.72 -319.402992 
L 872.72 -316.483057 
L 872.72 -313.563122 
L 872.72 -310.643187 
L 872.720001 -307.723252 
L 872.720019 -304.803318 
L 872.72019 -301.883383 
L 872.721324 -298.963448 
L 872.726497 -296.043513 
L 872.742473 -293.123578 
L 872.774787 -290.203643 
L 872.814136 -287.283708 
L 872.833999 -284.363774 
L 872.817299 -281.443839 
L 872.77853 -278.523904 
L 872.744816 -275.603969 
L 872.727427 -272.684034 
L 872.721688 -269.764099 
L 872.721171 -266.844165 
L 872.724951 -263.92423 
L 872.738221 -261.004295 
L 872.767483 -258.08436 
L 872.80722 -255.164425 
L 872.832918 -252.24449 
L 872.823032 -249.324555 
L 872.786259 -246.404621 
L 872.750032 -243.484686 
L 872.729594 -240.564751 
L 872.72216 -237.644816 
L 872.720343 -234.724881 
L 872.720038 -231.804946 
L 872.720004 -228.885011 
L 872.720011 -225.965077 
L 872.720147 -223.045142 
L 872.721404 -220.125207 
L 872.729441 -217.205272 
L 872.764739 -214.285337 
L 872.869456 -211.365402 
L 873.071959 -208.445468 
L 873.304283 -205.525533 
L 873.403763 -202.605598 
z
" style="stroke: #3f3f3f; stroke-width: 1.25"/>
    </defs>
    <g clip-path="url(#pe7101729d6)">
     <use xlink:href="#m4d6eb1d4b4" x="0" y="566.726625" style="fill: #3274a1; stroke: #3f3f3f; stroke-width: 1.25"/>
    </g>
   </g>
   <g id="line2d_9">
    <path d="M 155.6825 294.597895 
L 155.6825 266.894272 
" clip-path="url(#pe7101729d6)" style="fill: none; stroke: #3f3f3f; stroke-width: 1.875; stroke-linecap: round"/>
   </g>
   <g id="line2d_10">
    <path d="M 155.6825 284.153988 
L 155.6825 277.084373 
" clip-path="url(#pe7101729d6)" style="fill: none; stroke: #3f3f3f; stroke-width: 5.625; stroke-linecap: round"/>
   </g>
   <g id="line2d_11">
    <path d="M 155.6825 281.177178 
" clip-path="url(#pe7101729d6)" style="fill: none; stroke: #3f3f3f; stroke-width: 1.5; stroke-linecap: round"/>
    <defs>
     <path id="m11ab321dc6" d="M 2.34375 0 
L -2.34375 -0 
" style="stroke: #ffffff; stroke-width: 1.125"/>
    </defs>
    <g clip-path="url(#pe7101729d6)">
     <use xlink:href="#m11ab321dc6" x="155.6825" y="281.177178" style="fill: #ffffff; stroke: #ffffff; stroke-width: 1.125"/>
    </g>
   </g>
   <g id="line2d_12">
    <path d="M 394.695 313.501162 
L 394.695 230.439475 
" clip-path="url(#pe7101729d6)" style="fill: none; stroke: #3f3f3f; stroke-width: 1.875; stroke-linecap: round"/>
   </g>
   <g id="line2d_13">
    <path d="M 394.695 286.910563 
L 394.695 264.306754 
" clip-path="url(#pe7101729d6)" style="fill: none; stroke: #3f3f3f; stroke-width: 5.625; stroke-linecap: round"/>
   </g>
   <g id="line2d_14">
    <path d="M 394.695 284.741677 
" clip-path="url(#pe7101729d6)" style="fill: none; stroke: #3f3f3f; stroke-width: 1.5; stroke-linecap: round"/>
    <g clip-path="url(#pe7101729d6)">
     <use xlink:href="#m11ab321dc6" x="394.695" y="284.741677" style="fill: #ffffff; stroke: #ffffff; stroke-width: 1.125"/>
    </g>
   </g>
   <g id="line2d_15">
    <path d="M 633.7075 187.243566 
L 633.7075 76.127263 
" clip-path="url(#pe7101729d6)" style="fill: none; stroke: #3f3f3f; stroke-width: 1.875; stroke-linecap: round"/>
   </g>
   <g id="line2d_16">
    <path d="M 633.7075 153.080819 
L 633.7075 119.645369 
" clip-path="url(#pe7101729d6)" style="fill: none; stroke: #3f3f3f; stroke-width: 5.625; stroke-linecap: round"/>
   </g>
   <g id="line2d_17">
    <path d="M 633.7075 152.379486 
" clip-path="url(#pe7101729d6)" style="fill: none; stroke: #3f3f3f; stroke-width: 1.5; stroke-linecap: round"/>
    <g clip-path="url(#pe7101729d6)">
     <use xlink:href="#m11ab321dc6" x="633.7075" y="152.379486" style="fill: #ffffff; stroke: #ffffff; stroke-width: 1.125"/>
    </g>
   </g>
   <g id="line2d_18">
    <path d="M 872.72 151.370771 
L 872.72 124.977019 
" clip-path="url(#pe7101729d6)" style="fill: none; stroke: #3f3f3f; stroke-width: 1.875; stroke-linecap: round"/>
   </g>
   <g id="line2d_19">
    <path d="M 872.72 140.957305 
L 872.72 133.243513 
" clip-path="url(#pe7101729d6)" style="fill: none; stroke: #3f3f3f; stroke-width: 5.625; stroke-linecap: round"/>
   </g>
   <g id="line2d_20">
    <path d="M 872.72 137.322307 
" clip-path="url(#pe7101729d6)" style="fill: none; stroke: #3f3f3f; stroke-width: 1.5; stroke-linecap: round"/>
    <g clip-path="url(#pe7101729d6)">
     <use xlink:href="#m11ab321dc6" x="872.72" y="137.322307" style="fill: #ffffff; stroke: #ffffff; stroke-width: 1.125"/>
    </g>
   </g>
   <g id="patch_3">
    <path d="M 36.17625 527.23475 
L 36.17625 53.51475 
" style="fill: none; stroke: #cccccc; stroke-width: 0.8; stroke-linejoin: miter; stroke-linecap: square"/>
   </g>
   <g id="patch_4">
    <path d="M 992.22625 527.23475 
L 992.22625 53.51475 
" style="fill: none; stroke: #cccccc; stroke-width: 0.8; stroke-linejoin: miter; stroke-linecap: square"/>
   </g>
   <g id="patch_5">
    <path d="M 36.17625 527.23475 
L 992.22625 527.23475 
" style="fill: none; stroke: #cccccc; stroke-width: 0.8; stroke-linejoin: miter; stroke-linecap: square"/>
   </g>
   <g id="patch_6">
    <path d="M 36.17625 53.51475 
L 992.22625 53.51475 
" style="fill: none; stroke: #cccccc; stroke-width: 0.8; stroke-linejoin: miter; stroke-linecap: square"/>
   </g>
   <g id="text_15">
    <g id="patch_7">
     <path d="M 124.1375 302.345346 
L 187.2275 302.345346 
Q 189.9275 302.345346 189.9275 299.645346 
L 189.9275 260.70094 
Q 189.9275 258.00094 187.2275 258.00094 
L 124.1375 258.00094 
Q 121.4375 258.00094 121.4375 260.70094 
L 121.4375 299.645346 
Q 121.4375 302.345346 124.1375 302.345346 
z
" style="fill: #ffffff; opacity: 0.8; stroke: #ffffff; stroke-linejoin: miter"/>
    </g>
    <!-- P50: 3.74s -->
    <g style="fill: #262626" transform="translate(131.933047 267.539534) scale(0.09 -0.09)">
     <defs>
      <path id="DejaVuSans-3a" d="M 750 794 
L 1409 794 
L 1409 0 
L 750 0 
L 750 794 
z
M 750 3309 
L 1409 3309 
L 1409 2516 
L 750 2516 
L 750 3309 
z
" transform="scale(0.015625)"/>
     </defs>
     <use xlink:href="#DejaVuSans-50"/>
     <use xlink:href="#DejaVuSans-35" transform="translate(60.302734 0)"/>
     <use xlink:href="#DejaVuSans-30" transform="translate(123.925781 0)"/>
     <use xlink:href="#DejaVuSans-3a" transform="translate(187.548828 0)"/>
     <use xlink:href="#DejaVuSans-20" transform="translate(221.240234 0)"/>
     <use xlink:href="#DejaVuSans-33" transform="translate(253.027344 0)"/>
     <use xlink:href="#DejaVuSans-2e" transform="translate(316.650391 0)"/>
     <use xlink:href="#DejaVuSans-37" transform="translate(348.4375 0)"/>
     <use xlink:href="#DejaVuSans-34" transform="translate(412.060547 0)"/>
     <use xlink:href="#DejaVuSans-73" transform="translate(475.683594 0)"/>
    </g>
    <!-- P90: 3.87s -->
    <g style="fill: #262626" transform="translate(131.933047 277.617565) scale(0.09 -0.09)">
     <use xlink:href="#DejaVuSans-50"/>
     <use xlink:href="#DejaVuSans-39" transform="translate(60.302734 0)"/>
     <use xlink:href="#DejaVuSans-30" transform="translate(123.925781 0)"/>
     <use xlink:href="#DejaVuSans-3a" transform="translate(187.548828 0)"/>
     <use xlink:href="#DejaVuSans-20" transform="translate(221.240234 0)"/>
     <use xlink:href="#DejaVuSans-33" transform="translate(253.027344 0)"/>
     <use xlink:href="#DejaVuSans-2e" transform="translate(316.650391 0)"/>
     <use xlink:href="#DejaVuSans-38" transform="translate(348.4375 0)"/>
     <use xlink:href="#DejaVuSans-37" transform="translate(412.060547 0)"/>
     <use xlink:href="#DejaVuSans-73" transform="translate(475.683594 0)"/>
    </g>
    <!-- Mean: 3.75s -->
    <g style="fill: #262626" transform="translate(128.111562 287.695596) scale(0.09 -0.09)">
     <use xlink:href="#DejaVuSans-4d"/>
     <use xlink:href="#DejaVuSans-65" transform="translate(86.279297 0)"/>
     <use xlink:href="#DejaVuSans-61" transform="translate(147.802734 0)"/>
     <use xlink:href="#DejaVuSans-6e" transform="translate(209.082031 0)"/>
     <use xlink:href="#DejaVuSans-3a" transform="translate(272.460938 0)"/>
     <use xlink:href="#DejaVuSans-20" transform="translate(306.152344 0)"/>
     <use xlink:href="#DejaVuSans-33" transform="translate(337.939453 0)"/>
     <use xlink:href="#DejaVuSans-2e" transform="translate(401.5625 0)"/>
     <use xlink:href="#DejaVuSans-37" transform="translate(433.349609 0)"/>
     <use xlink:href="#DejaVuSans-35" transform="translate(496.972656 0)"/>
     <use xlink:href="#DejaVuSans-73" transform="translate(560.595703 0)"/>
    </g>
    <!-- Total: 303.10s -->
    <g style="fill: #262626" transform="translate(124.1375 297.773628) scale(0.09 -0.09)">
     <use xlink:href="#DejaVuSans-54"/>
     <use xlink:href="#DejaVuSans-6f" transform="translate(44.083984 0)"/>
     <use xlink:href="#DejaVuSans-74" transform="translate(105.265625 0)"/>
     <use xlink:href="#DejaVuSans-61" transform="translate(144.474609 0)"/>
     <use xlink:href="#DejaVuSans-6c" transform="translate(205.753906 0)"/>
     <use xlink:href="#DejaVuSans-3a" transform="translate(233.537109 0)"/>
     <use xlink:href="#DejaVuSans-20" transform="translate(267.228516 0)"/>
     <use xlink:href="#DejaVuSans-33" transform="translate(299.015625 0)"/>
     <use xlink:href="#DejaVuSans-30" transform="translate(362.638672 0)"/>
     <use xlink:href="#DejaVuSans-33" transform="translate(426.261719 0)"/>
     <use xlink:href="#DejaVuSans-2e" transform="translate(489.884766 0)"/>
     <use xlink:href="#DejaVuSans-31" transform="translate(521.671875 0)"/>
     <use xlink:href="#DejaVuSans-30" transform="translate(585.294922 0)"/>
     <use xlink:href="#DejaVuSans-73" transform="translate(648.917969 0)"/>
    </g>
   </g>
   <g id="text_16">
    <g id="patch_8">
     <path d="M 363.15 289.875609 
L 426.24 289.875609 
Q 428.94 289.875609 428.94 287.175609 
L 428.94 248.231203 
Q 428.94 245.531203 426.24 245.531203 
L 363.15 245.531203 
Q 360.45 245.531203 360.45 248.231203 
L 360.45 287.175609 
Q 360.45 289.875609 363.15 289.875609 
z
" style="fill: #ffffff; opacity: 0.8; stroke: #ffffff; stroke-linejoin: miter"/>
    </g>
    <!-- P50: 3.68s -->
    <g style="fill: #262626" transform="translate(370.945547 255.069797) scale(0.09 -0.09)">
     <use xlink:href="#DejaVuSans-50"/>
     <use xlink:href="#DejaVuSans-35" transform="translate(60.302734 0)"/>
     <use xlink:href="#DejaVuSans-30" transform="translate(123.925781 0)"/>
     <use xlink:href="#DejaVuSans-3a" transform="translate(187.548828 0)"/>
     <use xlink:href="#DejaVuSans-20" transform="translate(221.240234 0)"/>
     <use xlink:href="#DejaVuSans-33" transform="translate(253.027344 0)"/>
     <use xlink:href="#DejaVuSans-2e" transform="translate(316.650391 0)"/>
     <use xlink:href="#DejaVuSans-36" transform="translate(348.4375 0)"/>
     <use xlink:href="#DejaVuSans-38" transform="translate(412.060547 0)"/>
     <use xlink:href="#DejaVuSans-73" transform="translate(475.683594 0)"/>
    </g>
    <!-- P90: 4.06s -->
    <g style="fill: #262626" transform="translate(370.945547 265.147828) scale(0.09 -0.09)">
     <use xlink:href="#DejaVuSans-50"/>
     <use xlink:href="#DejaVuSans-39" transform="translate(60.302734 0)"/>
     <use xlink:href="#DejaVuSans-30" transform="translate(123.925781 0)"/>
     <use xlink:href="#DejaVuSans-3a" transform="translate(187.548828 0)"/>
     <use xlink:href="#DejaVuSans-20" transform="translate(221.240234 0)"/>
     <use xlink:href="#DejaVuSans-34" transform="translate(253.027344 0)"/>
     <use xlink:href="#DejaVuSans-2e" transform="translate(316.650391 0)"/>
     <use xlink:href="#DejaVuSans-30" transform="translate(348.4375 0)"/>
     <use xlink:href="#DejaVuSans-36" transform="translate(412.060547 0)"/>
     <use xlink:href="#DejaVuSans-73" transform="translate(475.683594 0)"/>
    </g>
    <!-- Mean: 3.79s -->
    <g style="fill: #262626" transform="translate(367.124063 275.225859) scale(0.09 -0.09)">
     <use xlink:href="#DejaVuSans-4d"/>
     <use xlink:href="#DejaVuSans-65" transform="translate(86.279297 0)"/>
     <use xlink:href="#DejaVuSans-61" transform="translate(147.802734 0)"/>
     <use xlink:href="#DejaVuSans-6e" transform="translate(209.082031 0)"/>
     <use xlink:href="#DejaVuSans-3a" transform="translate(272.460938 0)"/>
     <use xlink:href="#DejaVuSans-20" transform="translate(306.152344 0)"/>
     <use xlink:href="#DejaVuSans-33" transform="translate(337.939453 0)"/>
     <use xlink:href="#DejaVuSans-2e" transform="translate(401.5625 0)"/>
     <use xlink:href="#DejaVuSans-37" transform="translate(433.349609 0)"/>
     <use xlink:href="#DejaVuSans-39" transform="translate(496.972656 0)"/>
     <use xlink:href="#DejaVuSans-73" transform="translate(560.595703 0)"/>
    </g>
    <!-- Total: 306.28s -->
    <g style="fill: #262626" transform="translate(363.15 285.30389) scale(0.09 -0.09)">
     <use xlink:href="#DejaVuSans-54"/>
     <use xlink:href="#DejaVuSans-6f" transform="translate(44.083984 0)"/>
     <use xlink:href="#DejaVuSans-74" transform="translate(105.265625 0)"/>
     <use xlink:href="#DejaVuSans-61" transform="translate(144.474609 0)"/>
     <use xlink:href="#DejaVuSans-6c" transform="translate(205.753906 0)"/>
     <use xlink:href="#DejaVuSans-3a" transform="translate(233.537109 0)"/>
     <use xlink:href="#DejaVuSans-20" transform="translate(267.228516 0)"/>
     <use xlink:href="#DejaVuSans-33" transform="translate(299.015625 0)"/>
     <use xlink:href="#DejaVuSans-30" transform="translate(362.638672 0)"/>
     <use xlink:href="#DejaVuSans-36" transform="translate(426.261719 0)"/>
     <use xlink:href="#DejaVuSans-2e" transform="translate(489.884766 0)"/>
     <use xlink:href="#DejaVuSans-32" transform="translate(521.671875 0)"/>
     <use xlink:href="#DejaVuSans-38" transform="translate(585.294922 0)"/>
     <use xlink:href="#DejaVuSans-73" transform="translate(648.917969 0)"/>
    </g>
   </g>
   <g id="text_17">
    <g id="patch_9">
     <path d="M 602.1625 162.467063 
L 665.2525 162.467063 
Q 667.9525 162.467063 667.9525 159.767063 
L 667.9525 120.822657 
Q 667.9525 118.122657 665.2525 118.122657 
L 602.1625 118.122657 
Q 599.4625 118.122657 599.4625 120.822657 
L 599.4625 159.767063 
Q 599.4625 162.467063 602.1625 162.467063 
z
" style="fill: #ffffff; opacity: 0.8; stroke: #ffffff; stroke-linejoin: miter"/>
    </g>
    <!-- P50: 5.73s -->
    <g style="fill: #262626" transform="translate(609.958047 127.661251) scale(0.09 -0.09)">
     <use xlink:href="#DejaVuSans-50"/>
     <use xlink:href="#DejaVuSans-35" transform="translate(60.302734 0)"/>
     <use xlink:href="#DejaVuSans-30" transform="translate(123.925781 0)"/>
     <use xlink:href="#DejaVuSans-3a" transform="translate(187.548828 0)"/>
     <use xlink:href="#DejaVuSans-20" transform="translate(221.240234 0)"/>
     <use xlink:href="#DejaVuSans-35" transform="translate(253.027344 0)"/>
     <use xlink:href="#DejaVuSans-2e" transform="translate(316.650391 0)"/>
     <use xlink:href="#DejaVuSans-37" transform="translate(348.4375 0)"/>
     <use xlink:href="#DejaVuSans-33" transform="translate(412.060547 0)"/>
     <use xlink:href="#DejaVuSans-73" transform="translate(475.683594 0)"/>
    </g>
    <!-- P90: 6.25s -->
    <g style="fill: #262626" transform="translate(609.958047 137.739282) scale(0.09 -0.09)">
     <use xlink:href="#DejaVuSans-50"/>
     <use xlink:href="#DejaVuSans-39" transform="translate(60.302734 0)"/>
     <use xlink:href="#DejaVuSans-30" transform="translate(123.925781 0)"/>
     <use xlink:href="#DejaVuSans-3a" transform="translate(187.548828 0)"/>
     <use xlink:href="#DejaVuSans-20" transform="translate(221.240234 0)"/>
     <use xlink:href="#DejaVuSans-36" transform="translate(253.027344 0)"/>
     <use xlink:href="#DejaVuSans-2e" transform="translate(316.650391 0)"/>
     <use xlink:href="#DejaVuSans-32" transform="translate(348.4375 0)"/>
     <use xlink:href="#DejaVuSans-35" transform="translate(412.060547 0)"/>
     <use xlink:href="#DejaVuSans-73" transform="translate(475.683594 0)"/>
    </g>
    <!-- Mean: 5.87s -->
    <g style="fill: #262626" transform="translate(606.136562 147.817313) scale(0.09 -0.09)">
     <use xlink:href="#DejaVuSans-4d"/>
     <use xlink:href="#DejaVuSans-65" transform="translate(86.279297 0)"/>
     <use xlink:href="#DejaVuSans-61" transform="translate(147.802734 0)"/>
     <use xlink:href="#DejaVuSans-6e" transform="translate(209.082031 0)"/>
     <use xlink:href="#DejaVuSans-3a" transform="translate(272.460938 0)"/>
     <use xlink:href="#DejaVuSans-20" transform="translate(306.152344 0)"/>
     <use xlink:href="#DejaVuSans-35" transform="translate(337.939453 0)"/>
     <use xlink:href="#DejaVuSans-2e" transform="translate(401.5625 0)"/>
     <use xlink:href="#DejaVuSans-38" transform="translate(433.349609 0)"/>
     <use xlink:href="#DejaVuSans-37" transform="translate(496.972656 0)"/>
     <use xlink:href="#DejaVuSans-73" transform="translate(560.595703 0)"/>
    </g>
    <!-- Total: 474.98s -->
    <g style="fill: #262626" transform="translate(602.1625 157.895344) scale(0.09 -0.09)">
     <use xlink:href="#DejaVuSans-54"/>
     <use xlink:href="#DejaVuSans-6f" transform="translate(44.083984 0)"/>
     <use xlink:href="#DejaVuSans-74" transform="translate(105.265625 0)"/>
     <use xlink:href="#DejaVuSans-61" transform="translate(144.474609 0)"/>
     <use xlink:href="#DejaVuSans-6c" transform="translate(205.753906 0)"/>
     <use xlink:href="#DejaVuSans-3a" transform="translate(233.537109 0)"/>
     <use xlink:href="#DejaVuSans-20" transform="translate(267.228516 0)"/>
     <use xlink:href="#DejaVuSans-34" transform="translate(299.015625 0)"/>
     <use xlink:href="#DejaVuSans-37" transform="translate(362.638672 0)"/>
     <use xlink:href="#DejaVuSans-34" transform="translate(426.261719 0)"/>
     <use xlink:href="#DejaVuSans-2e" transform="translate(489.884766 0)"/>
     <use xlink:href="#DejaVuSans-39" transform="translate(521.671875 0)"/>
     <use xlink:href="#DejaVuSans-38" transform="translate(585.294922 0)"/>
     <use xlink:href="#DejaVuSans-73" transform="translate(648.917969 0)"/>
    </g>
   </g>
   <g id="text_18">
    <g id="patch_10">
     <path d="M 841.175 161.495256 
L 904.265 161.495256 
Q 906.965 161.495256 906.965 158.795256 
L 906.965 119.85085 
Q 906.965 117.15085 904.265 117.15085 
L 841.175 117.15085 
Q 838.475 117.15085 838.475 119.85085 
L 838.475 158.795256 
Q 838.475 161.495256 841.175 161.495256 
z
" style="fill: #ffffff; opacity: 0.8; stroke: #ffffff; stroke-linejoin: miter"/>
    </g>
    <!-- P50: 5.96s -->
    <g style="fill: #262626" transform="translate(848.970547 126.689444) scale(0.09 -0.09)">
     <use xlink:href="#DejaVuSans-50"/>
     <use xlink:href="#DejaVuSans-35" transform="translate(60.302734 0)"/>
     <use xlink:href="#DejaVuSans-30" transform="translate(123.925781 0)"/>
     <use xlink:href="#DejaVuSans-3a" transform="translate(187.548828 0)"/>
     <use xlink:href="#DejaVuSans-20" transform="translate(221.240234 0)"/>
     <use xlink:href="#DejaVuSans-35" transform="translate(253.027344 0)"/>
     <use xlink:href="#DejaVuSans-2e" transform="translate(316.650391 0)"/>
     <use xlink:href="#DejaVuSans-39" transform="translate(348.4375 0)"/>
     <use xlink:href="#DejaVuSans-36" transform="translate(412.060547 0)"/>
     <use xlink:href="#DejaVuSans-73" transform="translate(475.683594 0)"/>
    </g>
    <!-- P90: 6.08s -->
    <g style="fill: #262626" transform="translate(848.970547 136.767475) scale(0.09 -0.09)">
     <use xlink:href="#DejaVuSans-50"/>
     <use xlink:href="#DejaVuSans-39" transform="translate(60.302734 0)"/>
     <use xlink:href="#DejaVuSans-30" transform="translate(123.925781 0)"/>
     <use xlink:href="#DejaVuSans-3a" transform="translate(187.548828 0)"/>
     <use xlink:href="#DejaVuSans-20" transform="translate(221.240234 0)"/>
     <use xlink:href="#DejaVuSans-36" transform="translate(253.027344 0)"/>
     <use xlink:href="#DejaVuSans-2e" transform="translate(316.650391 0)"/>
     <use xlink:href="#DejaVuSans-30" transform="translate(348.4375 0)"/>
     <use xlink:href="#DejaVuSans-38" transform="translate(412.060547 0)"/>
     <use xlink:href="#DejaVuSans-73" transform="translate(475.683594 0)"/>
    </g>
    <!-- Mean: 5.96s -->
    <g style="fill: #262626" transform="translate(845.149063 146.845506) scale(0.09 -0.09)">
     <use xlink:href="#DejaVuSans-4d"/>
     <use xlink:href="#DejaVuSans-65" transform="translate(86.279297 0)"/>
     <use xlink:href="#DejaVuSans-61" transform="translate(147.802734 0)"/>
     <use xlink:href="#DejaVuSans-6e" transform="translate(209.082031 0)"/>
     <use xlink:href="#DejaVuSans-3a" transform="translate(272.460938 0)"/>
     <use xlink:href="#DejaVuSans-20" transform="translate(306.152344 0)"/>
     <use xlink:href="#DejaVuSans-35" transform="translate(337.939453 0)"/>
     <use xlink:href="#DejaVuSans-2e" transform="translate(401.5625 0)"/>
     <use xlink:href="#DejaVuSans-39" transform="translate(433.349609 0)"/>
     <use xlink:href="#DejaVuSans-36" transform="translate(496.972656 0)"/>
     <use xlink:href="#DejaVuSans-73" transform="translate(560.595703 0)"/>
    </g>
    <!-- Total: 481.73s -->
    <g style="fill: #262626" transform="translate(841.175 156.923538) scale(0.09 -0.09)">
     <use xlink:href="#DejaVuSans-54"/>
     <use xlink:href="#DejaVuSans-6f" transform="translate(44.083984 0)"/>
     <use xlink:href="#DejaVuSans-74" transform="translate(105.265625 0)"/>
     <use xlink:href="#DejaVuSans-61" transform="translate(144.474609 0)"/>
     <use xlink:href="#DejaVuSans-6c" transform="translate(205.753906 0)"/>
     <use xlink:href="#DejaVuSans-3a" transform="translate(233.537109 0)"/>
     <use xlink:href="#DejaVuSans-20" transform="translate(267.228516 0)"/>
     <use xlink:href="#DejaVuSans-34" transform="translate(299.015625 0)"/>
     <use xlink:href="#DejaVuSans-38" transform="translate(362.638672 0)"/>
     <use xlink:href="#DejaVuSans-31" transform="translate(426.261719 0)"/>
     <use xlink:href="#DejaVuSans-2e" transform="translate(489.884766 0)"/>
     <use xlink:href="#DejaVuSans-37" transform="translate(521.671875 0)"/>
     <use xlink:href="#DejaVuSans-33" transform="translate(585.294922 0)"/>
     <use xlink:href="#DejaVuSans-73" transform="translate(648.917969 0)"/>
    </g>
   </g>
   <g id="text_19">
    <!-- Latency Distribution Comparison - Qwen/Qwen3-Embedding-8B -->
    <g style="fill: #262626" transform="translate(291.578281 17.837812) scale(0.14 -0.14)">
     <defs>
      <path id="DejaVuSans-79" d="M 2059 -325 
Q 1816 -950 1584 -1140 
Q 1353 -1331 966 -1331 
L 506 -1331 
L 506 -850 
L 844 -850 
Q 1081 -850 1212 -737 
Q 1344 -625 1503 -206 
L 1606 56 
L 191 3500 
L 800 3500 
L 1894 763 
L 2988 3500 
L 3597 3500 
L 2059 -325 
z
" transform="scale(0.015625)"/>
      <path id="DejaVuSans-70" d="M 1159 525 
L 1159 -1331 
L 581 -1331 
L 581 3500 
L 1159 3500 
L 1159 2969 
Q 1341 3281 1617 3432 
Q 1894 3584 2278 3584 
Q 2916 3584 3314 3078 
Q 3713 2572 3713 1747 
Q 3713 922 3314 415 
Q 2916 -91 2278 -91 
Q 1894 -91 1617 61 
Q 1341 213 1159 525 
z
M 3116 1747 
Q 3116 2381 2855 2742 
Q 2594 3103 2138 3103 
Q 1681 3103 1420 2742 
Q 1159 2381 1159 1747 
Q 1159 1113 1420 752 
Q 1681 391 2138 391 
Q 2594 391 2855 752 
Q 3116 1113 3116 1747 
z
" transform="scale(0.015625)"/>
      <path id="DejaVuSans-2d" d="M 313 2009 
L 1997 2009 
L 1997 1497 
L 313 1497 
L 313 2009 
z
" transform="scale(0.015625)"/>
      <path id="DejaVuSans-51" d="M 2522 4238 
Q 1834 4238 1429 3725 
Q 1025 3213 1025 2328 
Q 1025 1447 1429 934 
Q 1834 422 2522 422 
Q 3209 422 3611 934 
Q 4013 1447 4013 2328 
Q 4013 3213 3611 3725 
Q 3209 4238 2522 4238 
z
M 3406 84 
L 4238 -825 
L 3475 -825 
L 2784 -78 
Q 2681 -84 2626 -87 
Q 2572 -91 2522 -91 
Q 1538 -91 948 567 
Q 359 1225 359 2328 
Q 359 3434 948 4092 
Q 1538 4750 2522 4750 
Q 3503 4750 4090 4092 
Q 4678 3434 4678 2328 
Q 4678 1516 4351 937 
Q 4025 359 3406 84 
z
" transform="scale(0.015625)"/>
      <path id="DejaVuSans-77" d="M 269 3500 
L 844 3500 
L 1563 769 
L 2278 3500 
L 2956 3500 
L 3675 769 
L 4391 3500 
L 4966 3500 
L 4050 0 
L 3372 0 
L 2619 2869 
L 1863 0 
L 1184 0 
L 269 3500 
z
" transform="scale(0.015625)"/>
      <path id="DejaVuSans-2f" d="M 1625 4666 
L 2156 4666 
L 531 -594 
L 0 -594 
L 1625 4666 
z
" transform="scale(0.015625)"/>
      <path id="DejaVuSans-42" d="M 1259 2228 
L 1259 519 
L 2272 519 
Q 2781 519 3026 730 
Q 3272 941 3272 1375 
Q 3272 1813 3026 2020 
Q 2781 2228 2272 2228 
L 1259 2228 
z
M 1259 4147 
L 1259 2741 
L 2194 2741 
Q 2656 2741 2882 2914 
Q 3109 3088 3109 3444 
Q 3109 3797 2882 3972 
Q 2656 4147 2194 4147 
L 1259 4147 
z
M 628 4666 
L 2241 4666 
Q 2963 4666 3353 4366 
Q 3744 4066 3744 3513 
Q 3744 3084 3544 2831 
Q 3344 2578 2956 2516 
Q 3422 2416 3680 2098 
Q 3938 1781 3938 1306 
Q 3938 681 3513 340 
Q 3088 0 2303 0 
L 628 0 
L 628 4666 
z
" transform="scale(0.015625)"/>
     </defs>
     <use xlink:href="#DejaVuSans-4c"/>
     <use xlink:href="#DejaVuSans-61" transform="translate(55.712891 0)"/>
     <use xlink:href="#DejaVuSans-74" transform="translate(116.992188 0)"/>
     <use xlink:href="#DejaVuSans-65" transform="translate(156.201172 0)"/>
     <use xlink:href="#DejaVuSans-6e" transform="translate(217.724609 0)"/>
     <use xlink:href="#DejaVuSans-63" transform="translate(281.103516 0)"/>
     <use xlink:href="#DejaVuSans-79" transform="translate(336.083984 0)"/>
     <use xlink:href="#DejaVuSans-20" transform="translate(395.263672 0)"/>
     <use xlink:href="#DejaVuSans-44" transform="translate(427.050781 0)"/>
     <use xlink:href="#DejaVuSans-69" transform="translate(504.052734 0)"/>
     <use xlink:href="#DejaVuSans-73" transform="translate(531.835938 0)"/>
     <use xlink:href="#DejaVuSans-74" transform="translate(583.935547 0)"/>
     <use xlink:href="#DejaVuSans-72" transform="translate(623.144531 0)"/>
     <use xlink:href="#DejaVuSans-69" transform="translate(664.257812 0)"/>
     <use xlink:href="#DejaVuSans-62" transform="translate(692.041016 0)"/>
     <use xlink:href="#DejaVuSans-75" transform="translate(755.517578 0)"/>
     <use xlink:href="#DejaVuSans-74" transform="translate(818.896484 0)"/>
     <use xlink:href="#DejaVuSans-69" transform="translate(858.105469 0)"/>
     <use xlink:href="#DejaVuSans-6f" transform="translate(885.888672 0)"/>
     <use xlink:href="#DejaVuSans-6e" transform="translate(947.070312 0)"/>
     <use xlink:href="#DejaVuSans-20" transform="translate(1010.449219 0)"/>
     <use xlink:href="#DejaVuSans-43" transform="translate(1042.236328 0)"/>
     <use xlink:href="#DejaVuSans-6f" transform="translate(1112.060547 0)"/>
     <use xlink:href="#DejaVuSans-6d" transform="translate(1173.242188 0)"/>
     <use xlink:href="#DejaVuSans-70" transform="translate(1270.654297 0)"/>
     <use xlink:href="#DejaVuSans-61" transform="translate(1334.130859 0)"/>
     <use xlink:href="#DejaVuSans-72" transform="translate(1395.410156 0)"/>
     <use xlink:href="#DejaVuSans-69" transform="translate(1436.523438 0)"/>
     <use xlink:href="#DejaVuSans-73" transform="translate(1464.306641 0)"/>
     <use xlink:href="#DejaVuSans-6f" transform="translate(1516.40625 0)"/>
     <use xlink:href="#DejaVuSans-6e" transform="translate(1577.587891 0)"/>
     <use xlink:href="#DejaVuSans-20" transform="translate(1640.966797 0)"/>
     <use xlink:href="#DejaVuSans-2d" transform="translate(1672.753906 0)"/>
     <use xlink:href="#DejaVuSans-20" transform="translate(1708.837891 0)"/>
     <use xlink:href="#DejaVuSans-51" transform="translate(1740.625 0)"/>
     <use xlink:href="#DejaVuSans-77" transform="translate(1819.335938 0)"/>
     <use xlink:href="#DejaVuSans-65" transform="translate(1901.123047 0)"/>
     <use xlink:href="#DejaVuSans-6e" transform="translate(1962.646484 0)"/>
     <use xlink:href="#DejaVuSans-2f" transform="translate(2026.025391 0)"/>
     <use xlink:href="#DejaVuSans-51" transform="translate(2059.716797 0)"/>
     <use xlink:href="#DejaVuSans-77" transform="translate(2138.427734 0)"/>
     <use xlink:href="#DejaVuSans-65" transform="translate(2220.214844 0)"/>
     <use xlink:href="#DejaVuSans-6e" transform="translate(2281.738281 0)"/>
     <use xlink:href="#DejaVuSans-33" transform="translate(2345.117188 0)"/>
     <use xlink:href="#DejaVuSans-2d" transform="translate(2408.740234 0)"/>
     <use xlink:href="#DejaVuSans-45" transform="translate(2444.824219 0)"/>
     <use xlink:href="#DejaVuSans-6d" transform="translate(2508.007812 0)"/>
     <use xlink:href="#DejaVuSans-62" transform="translate(2605.419922 0)"/>
     <use xlink:href="#DejaVuSans-65" transform="translate(2668.896484 0)"/>
     <use xlink:href="#DejaVuSans-64" transform="translate(2730.419922 0)"/>
     <use xlink:href="#DejaVuSans-64" transform="translate(2793.896484 0)"/>
     <use xlink:href="#DejaVuSans-69" transform="translate(2857.373047 0)"/>
     <use xlink:href="#DejaVuSans-6e" transform="translate(2885.15625 0)"/>
     <use xlink:href="#DejaVuSans-67" transform="translate(2948.535156 0)"/>
     <use xlink:href="#DejaVuSans-2d" transform="translate(3012.011719 0)"/>
     <use xlink:href="#DejaVuSans-38" transform="translate(3048.095703 0)"/>
     <use xlink:href="#DejaVuSans-42" transform="translate(3111.71875 0)"/>
    </g>
    <!--  -->
    <g style="fill: #262626" transform="translate(514.20125 33.51475) scale(0.14 -0.14)"/>
   </g>
   <g id="legend_1">
    <g id="patch_11">
     <path d="M 855.299688 90.871 
L 985.22625 90.871 
Q 987.22625 90.871 987.22625 88.871 
L 987.22625 60.51475 
Q 987.22625 58.51475 985.22625 58.51475 
L 855.299688 58.51475 
Q 853.299688 58.51475 853.299688 60.51475 
L 853.299688 88.871 
Q 853.299688 90.871 855.299688 90.871 
z
" style="fill: #ffffff; opacity: 0.8; stroke: #cccccc; stroke-linejoin: miter"/>
    </g>
    <g id="patch_12">
     <path d="M 857.299688 70.113187 
L 877.299688 70.113187 
L 877.299688 63.113187 
L 857.299688 63.113187 
z
" style="fill: #1f77b4; stroke: #ffffff; stroke-linejoin: miter"/>
    </g>
    <g id="text_20">
     <!-- Radix MLP Disabled -->
     <g style="fill: #262626" transform="translate(885.299688 70.113187) scale(0.1 -0.1)">
      <use xlink:href="#DejaVuSans-52"/>
      <use xlink:href="#DejaVuSans-61" transform="translate(67.232422 0)"/>
      <use xlink:href="#DejaVuSans-64" transform="translate(128.511719 0)"/>
      <use xlink:href="#DejaVuSans-69" transform="translate(191.988281 0)"/>
      <use xlink:href="#DejaVuSans-78" transform="translate(219.771484 0)"/>
      <use xlink:href="#DejaVuSans-20" transform="translate(278.951172 0)"/>
      <use xlink:href="#DejaVuSans-4d" transform="translate(310.738281 0)"/>
      <use xlink:href="#DejaVuSans-4c" transform="translate(397.017578 0)"/>
      <use xlink:href="#DejaVuSans-50" transform="translate(452.730469 0)"/>
      <use xlink:href="#DejaVuSans-20" transform="translate(513.033203 0)"/>
      <use xlink:href="#DejaVuSans-44" transform="translate(544.820312 0)"/>
      <use xlink:href="#DejaVuSans-69" transform="translate(621.822266 0)"/>
      <use xlink:href="#DejaVuSans-73" transform="translate(649.605469 0)"/>
      <use xlink:href="#DejaVuSans-61" transform="translate(701.705078 0)"/>
      <use xlink:href="#DejaVuSans-62" transform="translate(762.984375 0)"/>
      <use xlink:href="#DejaVuSans-6c" transform="translate(826.460938 0)"/>
      <use xlink:href="#DejaVuSans-65" transform="translate(854.244141 0)"/>
      <use xlink:href="#DejaVuSans-64" transform="translate(915.767578 0)"/>
     </g>
    </g>
    <g id="patch_13">
     <path d="M 857.299688 84.791312 
L 877.299688 84.791312 
L 877.299688 77.791312 
L 857.299688 77.791312 
z
" style="fill: #ff7f0e; stroke: #ffffff; stroke-linejoin: miter"/>
    </g>
    <g id="text_21">
     <!-- Radix MLP Enabled -->
     <g style="fill: #262626" transform="translate(885.299688 84.791312) scale(0.1 -0.1)">
      <use xlink:href="#DejaVuSans-52"/>
      <use xlink:href="#DejaVuSans-61" transform="translate(67.232422 0)"/>
      <use xlink:href="#DejaVuSans-64" transform="translate(128.511719 0)"/>
      <use xlink:href="#DejaVuSans-69" transform="translate(191.988281 0)"/>
      <use xlink:href="#DejaVuSans-78" transform="translate(219.771484 0)"/>
      <use xlink:href="#DejaVuSans-20" transform="translate(278.951172 0)"/>
      <use xlink:href="#DejaVuSans-4d" transform="translate(310.738281 0)"/>
      <use xlink:href="#DejaVuSans-4c" transform="translate(397.017578 0)"/>
      <use xlink:href="#DejaVuSans-50" transform="translate(452.730469 0)"/>
      <use xlink:href="#DejaVuSans-20" transform="translate(513.033203 0)"/>
      <use xlink:href="#DejaVuSans-45" transform="translate(544.820312 0)"/>
      <use xlink:href="#DejaVuSans-6e" transform="translate(608.003906 0)"/>
      <use xlink:href="#DejaVuSans-61" transform="translate(671.382812 0)"/>
      <use xlink:href="#DejaVuSans-62" transform="translate(732.662109 0)"/>
      <use xlink:href="#DejaVuSans-6c" transform="translate(796.138672 0)"/>
      <use xlink:href="#DejaVuSans-65" transform="translate(823.921875 0)"/>
      <use xlink:href="#DejaVuSans-64" transform="translate(885.445312 0)"/>
     </g>
    </g>
   </g>
  </g>
 </g>
 <defs>
  <clipPath id="pe7101729d6">
   <rect x="36.17625" y="53.51475" width="956.05" height="473.72"/>
  </clipPath>
 </defs>
</svg>
