<?xml version="1.0" encoding="utf-8" standalone="no"?>
<!DOCTYPE svg PUBLIC "-//W3C//DTD SVG 1.1//EN"
  "http://www.w3.org/Graphics/SVG/1.1/DTD/svg11.dtd">
<svg xmlns:xlink="http://www.w3.org/1999/xlink" width="999.516875pt" height="566.726625pt" viewBox="0 0 999.516875 566.726625" xmlns="http://www.w3.org/2000/svg" version="1.1">
 <metadata>
  <rdf:RDF xmlns:dc="http://purl.org/dc/elements/1.1/" xmlns:cc="http://creativecommons.org/ns#" xmlns:rdf="http://www.w3.org/1999/02/22-rdf-syntax-ns#">
   <cc:Work>
    <dc:type rdf:resource="http://purl.org/dc/dcmitype/StillImage"/>
    <dc:date>2025-12-29T02:36:27.876591</dc:date>
    <dc:format>image/svg+xml</dc:format>
    <dc:creator>
     <cc:Agent>
      <dc:title>Matplotlib v3.10.8, https://matplotlib.org/</dc:title>
     </cc:Agent>
    </dc:creator>
   </cc:Work>
  </rdf:RDF>
 </metadata>
 <defs>
  <style type="text/css">*{stroke-linejoin: round; stroke-linecap: butt}</style>
 </defs>
 <g id="figure_1">
  <g id="patch_1">
   <path d="M 0 566.726625 
L 999.516875 566.726625 
L 999.516875 0 
L 0 0 
z
" style="fill: #ffffff"/>
  </g>
  <g id="axes_1">
   <g id="patch_2">
    <path d="M 45.716875 527.23475 
L 992.316875 527.23475 
L 992.316875 53.51475 
L 45.716875 53.51475 
z
" style="fill: #ffffff"/>
   </g>
   <g id="matplotlib.axis_1">
    <g id="xtick_1">
     <g id="text_1">
      <!-- RadixMLP Enabled (0.95, mbt=65536) -->
      <g style="fill: #262626" transform="translate(68.280938 541.833187) scale(0.1 -0.1)">
       <defs>
        <path id="DejaVuSans-52" d="M 2841 2188 
Q 3044 2119 3236 1894 
Q 3428 1669 3622 1275 
L 4263 0 
L 3584 0 
L 2988 1197 
Q 2756 1666 2539 1819 
Q 2322 1972 1947 1972 
L 1259 1972 
L 1259 0 
L 628 0 
L 628 4666 
L 2053 4666 
Q 2853 4666 3247 4331 
Q 3641 3997 3641 3322 
Q 3641 2881 3436 2590 
Q 3231 2300 2841 2188 
z
M 1259 4147 
L 1259 2491 
L 2053 2491 
Q 2509 2491 2742 2702 
Q 2975 2913 2975 3322 
Q 2975 3731 2742 3939 
Q 2509 4147 2053 4147 
L 1259 4147 
z
" transform="scale(0.015625)"/>
        <path id="DejaVuSans-61" d="M 2194 1759 
Q 1497 1759 1228 1600 
Q 959 1441 959 1056 
Q 959 750 1161 570 
Q 1363 391 1709 391 
Q 2188 391 2477 730 
Q 2766 1069 2766 1631 
L 2766 1759 
L 2194 1759 
z
M 3341 1997 
L 3341 0 
L 2766 0 
L 2766 531 
Q 2569 213 2275 61 
Q 1981 -91 1556 -91 
Q 1019 -91 701 211 
Q 384 513 384 1019 
Q 384 1609 779 1909 
Q 1175 2209 1959 2209 
L 2766 2209 
L 2766 2266 
Q 2766 2663 2505 2880 
Q 2244 3097 1772 3097 
Q 1472 3097 1187 3025 
Q 903 2953 641 2809 
L 641 3341 
Q 956 3463 1253 3523 
Q 1550 3584 1831 3584 
Q 2591 3584 2966 3190 
Q 3341 2797 3341 1997 
z
" transform="scale(0.015625)"/>
        <path id="DejaVuSans-64" d="M 2906 2969 
L 2906 4863 
L 3481 4863 
L 3481 0 
L 2906 0 
L 2906 525 
Q 2725 213 2448 61 
Q 2172 -91 1784 -91 
Q 1150 -91 751 415 
Q 353 922 353 1747 
Q 353 2572 751 3078 
Q 1150 3584 1784 3584 
Q 2172 3584 2448 3432 
Q 2725 3281 2906 2969 
z
M 947 1747 
Q 947 1113 1208 752 
Q 1469 391 1925 391 
Q 2381 391 2643 752 
Q 2906 1113 2906 1747 
Q 2906 2381 2643 2742 
Q 2381 3103 1925 3103 
Q 1469 3103 1208 2742 
Q 947 2381 947 1747 
z
" transform="scale(0.015625)"/>
        <path id="DejaVuSans-69" d="M 603 3500 
L 1178 3500 
L 1178 0 
L 603 0 
L 603 3500 
z
M 603 4863 
L 1178 4863 
L 1178 4134 
L 603 4134 
L 603 4863 
z
" transform="scale(0.015625)"/>
        <path id="DejaVuSans-78" d="M 3513 3500 
L 2247 1797 
L 3578 0 
L 2900 0 
L 1881 1375 
L 863 0 
L 184 0 
L 1544 1831 
L 300 3500 
L 978 3500 
L 1906 2253 
L 2834 3500 
L 3513 3500 
z
" transform="scale(0.015625)"/>
        <path id="DejaVuSans-4d" d="M 628 4666 
L 1569 4666 
L 2759 1491 
L 3956 4666 
L 4897 4666 
L 4897 0 
L 4281 0 
L 4281 4097 
L 3078 897 
L 2444 897 
L 1241 4097 
L 1241 0 
L 628 0 
L 628 4666 
z
" transform="scale(0.015625)"/>
        <path id="DejaVuSans-4c" d="M 628 4666 
L 1259 4666 
L 1259 531 
L 3531 531 
L 3531 0 
L 628 0 
L 628 4666 
z
" transform="scale(0.015625)"/>
        <path id="DejaVuSans-50" d="M 1259 4147 
L 1259 2394 
L 2053 2394 
Q 2494 2394 2734 2622 
Q 2975 2850 2975 3272 
Q 2975 3691 2734 3919 
Q 2494 4147 2053 4147 
L 1259 4147 
z
M 628 4666 
L 2053 4666 
Q 2838 4666 3239 4311 
Q 3641 3956 3641 3272 
Q 3641 2581 3239 2228 
Q 2838 1875 2053 1875 
L 1259 1875 
L 1259 0 
L 628 0 
L 628 4666 
z
" transform="scale(0.015625)"/>
        <path id="DejaVuSans-20" transform="scale(0.015625)"/>
        <path id="DejaVuSans-45" d="M 628 4666 
L 3578 4666 
L 3578 4134 
L 1259 4134 
L 1259 2753 
L 3481 2753 
L 3481 2222 
L 1259 2222 
L 1259 531 
L 3634 531 
L 3634 0 
L 628 0 
L 628 4666 
z
" transform="scale(0.015625)"/>
        <path id="DejaVuSans-6e" d="M 3513 2113 
L 3513 0 
L 2938 0 
L 2938 2094 
Q 2938 2591 2744 2837 
Q 2550 3084 2163 3084 
Q 1697 3084 1428 2787 
Q 1159 2491 1159 1978 
L 1159 0 
L 581 0 
L 581 3500 
L 1159 3500 
L 1159 2956 
Q 1366 3272 1645 3428 
Q 1925 3584 2291 3584 
Q 2894 3584 3203 3211 
Q 3513 2838 3513 2113 
z
" transform="scale(0.015625)"/>
        <path id="DejaVuSans-62" d="M 3116 1747 
Q 3116 2381 2855 2742 
Q 2594 3103 2138 3103 
Q 1681 3103 1420 2742 
Q 1159 2381 1159 1747 
Q 1159 1113 1420 752 
Q 1681 391 2138 391 
Q 2594 391 2855 752 
Q 3116 1113 3116 1747 
z
M 1159 2969 
Q 1341 3281 1617 3432 
Q 1894 3584 2278 3584 
Q 2916 3584 3314 3078 
Q 3713 2572 3713 1747 
Q 3713 922 3314 415 
Q 2916 -91 2278 -91 
Q 1894 -91 1617 61 
Q 1341 213 1159 525 
L 1159 0 
L 581 0 
L 581 4863 
L 1159 4863 
L 1159 2969 
z
" transform="scale(0.015625)"/>
        <path id="DejaVuSans-6c" d="M 603 4863 
L 1178 4863 
L 1178 0 
L 603 0 
L 603 4863 
z
" transform="scale(0.015625)"/>
        <path id="DejaVuSans-65" d="M 3597 1894 
L 3597 1613 
L 953 1613 
Q 991 1019 1311 708 
Q 1631 397 2203 397 
Q 2534 397 2845 478 
Q 3156 559 3463 722 
L 3463 178 
Q 3153 47 2828 -22 
Q 2503 -91 2169 -91 
Q 1331 -91 842 396 
Q 353 884 353 1716 
Q 353 2575 817 3079 
Q 1281 3584 2069 3584 
Q 2775 3584 3186 3129 
Q 3597 2675 3597 1894 
z
M 3022 2063 
Q 3016 2534 2758 2815 
Q 2500 3097 2075 3097 
Q 1594 3097 1305 2825 
Q 1016 2553 972 2059 
L 3022 2063 
z
" transform="scale(0.015625)"/>
        <path id="DejaVuSans-28" d="M 1984 4856 
Q 1566 4138 1362 3434 
Q 1159 2731 1159 2009 
Q 1159 1288 1364 580 
Q 1569 -128 1984 -844 
L 1484 -844 
Q 1016 -109 783 600 
Q 550 1309 550 2009 
Q 550 2706 781 3412 
Q 1013 4119 1484 4856 
L 1984 4856 
z
" transform="scale(0.015625)"/>
        <path id="DejaVuSans-30" d="M 2034 4250 
Q 1547 4250 1301 3770 
Q 1056 3291 1056 2328 
Q 1056 1369 1301 889 
Q 1547 409 2034 409 
Q 2525 409 2770 889 
Q 3016 1369 3016 2328 
Q 3016 3291 2770 3770 
Q 2525 4250 2034 4250 
z
M 2034 4750 
Q 2819 4750 3233 4129 
Q 3647 3509 3647 2328 
Q 3647 1150 3233 529 
Q 2819 -91 2034 -91 
Q 1250 -91 836 529 
Q 422 1150 422 2328 
Q 422 3509 836 4129 
Q 1250 4750 2034 4750 
z
" transform="scale(0.015625)"/>
        <path id="DejaVuSans-2e" d="M 684 794 
L 1344 794 
L 1344 0 
L 684 0 
L 684 794 
z
" transform="scale(0.015625)"/>
        <path id="DejaVuSans-39" d="M 703 97 
L 703 672 
Q 941 559 1184 500 
Q 1428 441 1663 441 
Q 2288 441 2617 861 
Q 2947 1281 2994 2138 
Q 2813 1869 2534 1725 
Q 2256 1581 1919 1581 
Q 1219 1581 811 2004 
Q 403 2428 403 3163 
Q 403 3881 828 4315 
Q 1253 4750 1959 4750 
Q 2769 4750 3195 4129 
Q 3622 3509 3622 2328 
Q 3622 1225 3098 567 
Q 2575 -91 1691 -91 
Q 1453 -91 1209 -44 
Q 966 3 703 97 
z
M 1959 2075 
Q 2384 2075 2632 2365 
Q 2881 2656 2881 3163 
Q 2881 3666 2632 3958 
Q 2384 4250 1959 4250 
Q 1534 4250 1286 3958 
Q 1038 3666 1038 3163 
Q 1038 2656 1286 2365 
Q 1534 2075 1959 2075 
z
" transform="scale(0.015625)"/>
        <path id="DejaVuSans-35" d="M 691 4666 
L 3169 4666 
L 3169 4134 
L 1269 4134 
L 1269 2991 
Q 1406 3038 1543 3061 
Q 1681 3084 1819 3084 
Q 2600 3084 3056 2656 
Q 3513 2228 3513 1497 
Q 3513 744 3044 326 
Q 2575 -91 1722 -91 
Q 1428 -91 1123 -41 
Q 819 9 494 109 
L 494 744 
Q 775 591 1075 516 
Q 1375 441 1709 441 
Q 2250 441 2565 725 
Q 2881 1009 2881 1497 
Q 2881 1984 2565 2268 
Q 2250 2553 1709 2553 
Q 1456 2553 1204 2497 
Q 953 2441 691 2322 
L 691 4666 
z
" transform="scale(0.015625)"/>
        <path id="DejaVuSans-2c" d="M 750 794 
L 1409 794 
L 1409 256 
L 897 -744 
L 494 -744 
L 750 256 
L 750 794 
z
" transform="scale(0.015625)"/>
        <path id="DejaVuSans-6d" d="M 3328 2828 
Q 3544 3216 3844 3400 
Q 4144 3584 4550 3584 
Q 5097 3584 5394 3201 
Q 5691 2819 5691 2113 
L 5691 0 
L 5113 0 
L 5113 2094 
Q 5113 2597 4934 2840 
Q 4756 3084 4391 3084 
Q 3944 3084 3684 2787 
Q 3425 2491 3425 1978 
L 3425 0 
L 2847 0 
L 2847 2094 
Q 2847 2600 2669 2842 
Q 2491 3084 2119 3084 
Q 1678 3084 1418 2786 
Q 1159 2488 1159 1978 
L 1159 0 
L 581 0 
L 581 3500 
L 1159 3500 
L 1159 2956 
Q 1356 3278 1631 3431 
Q 1906 3584 2284 3584 
Q 2666 3584 2933 3390 
Q 3200 3197 3328 2828 
z
" transform="scale(0.015625)"/>
        <path id="DejaVuSans-74" d="M 1172 4494 
L 1172 3500 
L 2356 3500 
L 2356 3053 
L 1172 3053 
L 1172 1153 
Q 1172 725 1289 603 
Q 1406 481 1766 481 
L 2356 481 
L 2356 0 
L 1766 0 
Q 1100 0 847 248 
Q 594 497 594 1153 
L 594 3053 
L 172 3053 
L 172 3500 
L 594 3500 
L 594 4494 
L 1172 4494 
z
" transform="scale(0.015625)"/>
        <path id="DejaVuSans-3d" d="M 678 2906 
L 4684 2906 
L 4684 2381 
L 678 2381 
L 678 2906 
z
M 678 1631 
L 4684 1631 
L 4684 1100 
L 678 1100 
L 678 1631 
z
" transform="scale(0.015625)"/>
        <path id="DejaVuSans-36" d="M 2113 2584 
Q 1688 2584 1439 2293 
Q 1191 2003 1191 1497 
Q 1191 994 1439 701 
Q 1688 409 2113 409 
Q 2538 409 2786 701 
Q 3034 994 3034 1497 
Q 3034 2003 2786 2293 
Q 2538 2584 2113 2584 
z
M 3366 4563 
L 3366 3988 
Q 3128 4100 2886 4159 
Q 2644 4219 2406 4219 
Q 1781 4219 1451 3797 
Q 1122 3375 1075 2522 
Q 1259 2794 1537 2939 
Q 1816 3084 2150 3084 
Q 2853 3084 3261 2657 
Q 3669 2231 3669 1497 
Q 3669 778 3244 343 
Q 2819 -91 2113 -91 
Q 1303 -91 875 529 
Q 447 1150 447 2328 
Q 447 3434 972 4092 
Q 1497 4750 2381 4750 
Q 2619 4750 2861 4703 
Q 3103 4656 3366 4563 
z
" transform="scale(0.015625)"/>
        <path id="DejaVuSans-33" d="M 2597 2516 
Q 3050 2419 3304 2112 
Q 3559 1806 3559 1356 
Q 3559 666 3084 287 
Q 2609 -91 1734 -91 
Q 1441 -91 1130 -33 
Q 819 25 488 141 
L 488 750 
Q 750 597 1062 519 
Q 1375 441 1716 441 
Q 2309 441 2620 675 
Q 2931 909 2931 1356 
Q 2931 1769 2642 2001 
Q 2353 2234 1838 2234 
L 1294 2234 
L 1294 2753 
L 1863 2753 
Q 2328 2753 2575 2939 
Q 2822 3125 2822 3475 
Q 2822 3834 2567 4026 
Q 2313 4219 1838 4219 
Q 1578 4219 1281 4162 
Q 984 4106 628 3988 
L 628 4550 
Q 988 4650 1302 4700 
Q 1616 4750 1894 4750 
Q 2613 4750 3031 4423 
Q 3450 4097 3450 3541 
Q 3450 3153 3228 2886 
Q 3006 2619 2597 2516 
z
" transform="scale(0.015625)"/>
        <path id="DejaVuSans-29" d="M 513 4856 
L 1013 4856 
Q 1481 4119 1714 3412 
Q 1947 2706 1947 2009 
Q 1947 1309 1714 600 
Q 1481 -109 1013 -844 
L 513 -844 
Q 928 -128 1133 580 
Q 1338 1288 1338 2009 
Q 1338 2731 1133 3434 
Q 928 4138 513 4856 
z
" transform="scale(0.015625)"/>
       </defs>
       <use xlink:href="#DejaVuSans-52"/>
       <use xlink:href="#DejaVuSans-61" transform="translate(67.232422 0)"/>
       <use xlink:href="#DejaVuSans-64" transform="translate(128.511719 0)"/>
       <use xlink:href="#DejaVuSans-69" transform="translate(191.988281 0)"/>
       <use xlink:href="#DejaVuSans-78" transform="translate(219.771484 0)"/>
       <use xlink:href="#DejaVuSans-4d" transform="translate(278.951172 0)"/>
       <use xlink:href="#DejaVuSans-4c" transform="translate(365.230469 0)"/>
       <use xlink:href="#DejaVuSans-50" transform="translate(420.943359 0)"/>
       <use xlink:href="#DejaVuSans-20" transform="translate(481.246094 0)"/>
       <use xlink:href="#DejaVuSans-45" transform="translate(513.033203 0)"/>
       <use xlink:href="#DejaVuSans-6e" transform="translate(576.216797 0)"/>
       <use xlink:href="#DejaVuSans-61" transform="translate(639.595703 0)"/>
       <use xlink:href="#DejaVuSans-62" transform="translate(700.875 0)"/>
       <use xlink:href="#DejaVuSans-6c" transform="translate(764.351562 0)"/>
       <use xlink:href="#DejaVuSans-65" transform="translate(792.134766 0)"/>
       <use xlink:href="#DejaVuSans-64" transform="translate(853.658203 0)"/>
       <use xlink:href="#DejaVuSans-20" transform="translate(917.134766 0)"/>
       <use xlink:href="#DejaVuSans-28" transform="translate(948.921875 0)"/>
       <use xlink:href="#DejaVuSans-30" transform="translate(987.935547 0)"/>
       <use xlink:href="#DejaVuSans-2e" transform="translate(1051.558594 0)"/>
       <use xlink:href="#DejaVuSans-39" transform="translate(1083.345703 0)"/>
       <use xlink:href="#DejaVuSans-35" transform="translate(1146.96875 0)"/>
       <use xlink:href="#DejaVuSans-2c" transform="translate(1210.591797 0)"/>
       <use xlink:href="#DejaVuSans-20" transform="translate(1242.378906 0)"/>
       <use xlink:href="#DejaVuSans-6d" transform="translate(1274.166016 0)"/>
       <use xlink:href="#DejaVuSans-62" transform="translate(1371.578125 0)"/>
       <use xlink:href="#DejaVuSans-74" transform="translate(1435.054688 0)"/>
       <use xlink:href="#DejaVuSans-3d" transform="translate(1474.263672 0)"/>
       <use xlink:href="#DejaVuSans-36" transform="translate(1558.052734 0)"/>
       <use xlink:href="#DejaVuSans-35" transform="translate(1621.675781 0)"/>
       <use xlink:href="#DejaVuSans-35" transform="translate(1685.298828 0)"/>
       <use xlink:href="#DejaVuSans-33" transform="translate(1748.921875 0)"/>
       <use xlink:href="#DejaVuSans-36" transform="translate(1812.544922 0)"/>
       <use xlink:href="#DejaVuSans-29" transform="translate(1876.167969 0)"/>
      </g>
     </g>
    </g>
    <g id="xtick_2">
     <g id="text_2">
      <!-- RadixMLP Enabled (0.95, mbt=16384) -->
      <g style="fill: #262626" transform="translate(304.930938 541.833187) scale(0.1 -0.1)">
       <defs>
        <path id="DejaVuSans-31" d="M 794 531 
L 1825 531 
L 1825 4091 
L 703 3866 
L 703 4441 
L 1819 4666 
L 2450 4666 
L 2450 531 
L 3481 531 
L 3481 0 
L 794 0 
L 794 531 
z
" transform="scale(0.015625)"/>
        <path id="DejaVuSans-38" d="M 2034 2216 
Q 1584 2216 1326 1975 
Q 1069 1734 1069 1313 
Q 1069 891 1326 650 
Q 1584 409 2034 409 
Q 2484 409 2743 651 
Q 3003 894 3003 1313 
Q 3003 1734 2745 1975 
Q 2488 2216 2034 2216 
z
M 1403 2484 
Q 997 2584 770 2862 
Q 544 3141 544 3541 
Q 544 4100 942 4425 
Q 1341 4750 2034 4750 
Q 2731 4750 3128 4425 
Q 3525 4100 3525 3541 
Q 3525 3141 3298 2862 
Q 3072 2584 2669 2484 
Q 3125 2378 3379 2068 
Q 3634 1759 3634 1313 
Q 3634 634 3220 271 
Q 2806 -91 2034 -91 
Q 1263 -91 848 271 
Q 434 634 434 1313 
Q 434 1759 690 2068 
Q 947 2378 1403 2484 
z
M 1172 3481 
Q 1172 3119 1398 2916 
Q 1625 2713 2034 2713 
Q 2441 2713 2670 2916 
Q 2900 3119 2900 3481 
Q 2900 3844 2670 4047 
Q 2441 4250 2034 4250 
Q 1625 4250 1398 4047 
Q 1172 3844 1172 3481 
z
" transform="scale(0.015625)"/>
        <path id="DejaVuSans-34" d="M 2419 4116 
L 825 1625 
L 2419 1625 
L 2419 4116 
z
M 2253 4666 
L 3047 4666 
L 3047 1625 
L 3713 1625 
L 3713 1100 
L 3047 1100 
L 3047 0 
L 2419 0 
L 2419 1100 
L 313 1100 
L 313 1709 
L 2253 4666 
z
" transform="scale(0.015625)"/>
       </defs>
       <use xlink:href="#DejaVuSans-52"/>
       <use xlink:href="#DejaVuSans-61" transform="translate(67.232422 0)"/>
       <use xlink:href="#DejaVuSans-64" transform="translate(128.511719 0)"/>
       <use xlink:href="#DejaVuSans-69" transform="translate(191.988281 0)"/>
       <use xlink:href="#DejaVuSans-78" transform="translate(219.771484 0)"/>
       <use xlink:href="#DejaVuSans-4d" transform="translate(278.951172 0)"/>
       <use xlink:href="#DejaVuSans-4c" transform="translate(365.230469 0)"/>
       <use xlink:href="#DejaVuSans-50" transform="translate(420.943359 0)"/>
       <use xlink:href="#DejaVuSans-20" transform="translate(481.246094 0)"/>
       <use xlink:href="#DejaVuSans-45" transform="translate(513.033203 0)"/>
       <use xlink:href="#DejaVuSans-6e" transform="translate(576.216797 0)"/>
       <use xlink:href="#DejaVuSans-61" transform="translate(639.595703 0)"/>
       <use xlink:href="#DejaVuSans-62" transform="translate(700.875 0)"/>
       <use xlink:href="#DejaVuSans-6c" transform="translate(764.351562 0)"/>
       <use xlink:href="#DejaVuSans-65" transform="translate(792.134766 0)"/>
       <use xlink:href="#DejaVuSans-64" transform="translate(853.658203 0)"/>
       <use xlink:href="#DejaVuSans-20" transform="translate(917.134766 0)"/>
       <use xlink:href="#DejaVuSans-28" transform="translate(948.921875 0)"/>
       <use xlink:href="#DejaVuSans-30" transform="translate(987.935547 0)"/>
       <use xlink:href="#DejaVuSans-2e" transform="translate(1051.558594 0)"/>
       <use xlink:href="#DejaVuSans-39" transform="translate(1083.345703 0)"/>
       <use xlink:href="#DejaVuSans-35" transform="translate(1146.96875 0)"/>
       <use xlink:href="#DejaVuSans-2c" transform="translate(1210.591797 0)"/>
       <use xlink:href="#DejaVuSans-20" transform="translate(1242.378906 0)"/>
       <use xlink:href="#DejaVuSans-6d" transform="translate(1274.166016 0)"/>
       <use xlink:href="#DejaVuSans-62" transform="translate(1371.578125 0)"/>
       <use xlink:href="#DejaVuSans-74" transform="translate(1435.054688 0)"/>
       <use xlink:href="#DejaVuSans-3d" transform="translate(1474.263672 0)"/>
       <use xlink:href="#DejaVuSans-31" transform="translate(1558.052734 0)"/>
       <use xlink:href="#DejaVuSans-36" transform="translate(1621.675781 0)"/>
       <use xlink:href="#DejaVuSans-33" transform="translate(1685.298828 0)"/>
       <use xlink:href="#DejaVuSans-38" transform="translate(1748.921875 0)"/>
       <use xlink:href="#DejaVuSans-34" transform="translate(1812.544922 0)"/>
       <use xlink:href="#DejaVuSans-29" transform="translate(1876.167969 0)"/>
      </g>
     </g>
    </g>
    <g id="xtick_3">
     <g id="text_3">
      <!-- RadixMLP Disabled (mbt=65536) -->
      <g style="fill: #262626" transform="translate(554.37625 541.833187) scale(0.1 -0.1)">
       <defs>
        <path id="DejaVuSans-44" d="M 1259 4147 
L 1259 519 
L 2022 519 
Q 2988 519 3436 956 
Q 3884 1394 3884 2338 
Q 3884 3275 3436 3711 
Q 2988 4147 2022 4147 
L 1259 4147 
z
M 628 4666 
L 1925 4666 
Q 3281 4666 3915 4102 
Q 4550 3538 4550 2338 
Q 4550 1131 3912 565 
Q 3275 0 1925 0 
L 628 0 
L 628 4666 
z
" transform="scale(0.015625)"/>
        <path id="DejaVuSans-73" d="M 2834 3397 
L 2834 2853 
Q 2591 2978 2328 3040 
Q 2066 3103 1784 3103 
Q 1356 3103 1142 2972 
Q 928 2841 928 2578 
Q 928 2378 1081 2264 
Q 1234 2150 1697 2047 
L 1894 2003 
Q 2506 1872 2764 1633 
Q 3022 1394 3022 966 
Q 3022 478 2636 193 
Q 2250 -91 1575 -91 
Q 1294 -91 989 -36 
Q 684 19 347 128 
L 347 722 
Q 666 556 975 473 
Q 1284 391 1588 391 
Q 1994 391 2212 530 
Q 2431 669 2431 922 
Q 2431 1156 2273 1281 
Q 2116 1406 1581 1522 
L 1381 1569 
Q 847 1681 609 1914 
Q 372 2147 372 2553 
Q 372 3047 722 3315 
Q 1072 3584 1716 3584 
Q 2034 3584 2315 3537 
Q 2597 3491 2834 3397 
z
" transform="scale(0.015625)"/>
       </defs>
       <use xlink:href="#DejaVuSans-52"/>
       <use xlink:href="#DejaVuSans-61" transform="translate(67.232422 0)"/>
       <use xlink:href="#DejaVuSans-64" transform="translate(128.511719 0)"/>
       <use xlink:href="#DejaVuSans-69" transform="translate(191.988281 0)"/>
       <use xlink:href="#DejaVuSans-78" transform="translate(219.771484 0)"/>
       <use xlink:href="#DejaVuSans-4d" transform="translate(278.951172 0)"/>
       <use xlink:href="#DejaVuSans-4c" transform="translate(365.230469 0)"/>
       <use xlink:href="#DejaVuSans-50" transform="translate(420.943359 0)"/>
       <use xlink:href="#DejaVuSans-20" transform="translate(481.246094 0)"/>
       <use xlink:href="#DejaVuSans-44" transform="translate(513.033203 0)"/>
       <use xlink:href="#DejaVuSans-69" transform="translate(590.035156 0)"/>
       <use xlink:href="#DejaVuSans-73" transform="translate(617.818359 0)"/>
       <use xlink:href="#DejaVuSans-61" transform="translate(669.917969 0)"/>
       <use xlink:href="#DejaVuSans-62" transform="translate(731.197266 0)"/>
       <use xlink:href="#DejaVuSans-6c" transform="translate(794.673828 0)"/>
       <use xlink:href="#DejaVuSans-65" transform="translate(822.457031 0)"/>
       <use xlink:href="#DejaVuSans-64" transform="translate(883.980469 0)"/>
       <use xlink:href="#DejaVuSans-20" transform="translate(947.457031 0)"/>
       <use xlink:href="#DejaVuSans-28" transform="translate(979.244141 0)"/>
       <use xlink:href="#DejaVuSans-6d" transform="translate(1018.257812 0)"/>
       <use xlink:href="#DejaVuSans-62" transform="translate(1115.669922 0)"/>
       <use xlink:href="#DejaVuSans-74" transform="translate(1179.146484 0)"/>
       <use xlink:href="#DejaVuSans-3d" transform="translate(1218.355469 0)"/>
       <use xlink:href="#DejaVuSans-36" transform="translate(1302.144531 0)"/>
       <use xlink:href="#DejaVuSans-35" transform="translate(1365.767578 0)"/>
       <use xlink:href="#DejaVuSans-35" transform="translate(1429.390625 0)"/>
       <use xlink:href="#DejaVuSans-33" transform="translate(1493.013672 0)"/>
       <use xlink:href="#DejaVuSans-36" transform="translate(1556.636719 0)"/>
       <use xlink:href="#DejaVuSans-29" transform="translate(1620.259766 0)"/>
      </g>
     </g>
    </g>
    <g id="xtick_4">
     <g id="text_4">
      <!-- RadixMLP Disabled (mbt=16384) -->
      <g style="fill: #262626" transform="translate(791.02625 541.833187) scale(0.1 -0.1)">
       <use xlink:href="#DejaVuSans-52"/>
       <use xlink:href="#DejaVuSans-61" transform="translate(67.232422 0)"/>
       <use xlink:href="#DejaVuSans-64" transform="translate(128.511719 0)"/>
       <use xlink:href="#DejaVuSans-69" transform="translate(191.988281 0)"/>
       <use xlink:href="#DejaVuSans-78" transform="translate(219.771484 0)"/>
       <use xlink:href="#DejaVuSans-4d" transform="translate(278.951172 0)"/>
       <use xlink:href="#DejaVuSans-4c" transform="translate(365.230469 0)"/>
       <use xlink:href="#DejaVuSans-50" transform="translate(420.943359 0)"/>
       <use xlink:href="#DejaVuSans-20" transform="translate(481.246094 0)"/>
       <use xlink:href="#DejaVuSans-44" transform="translate(513.033203 0)"/>
       <use xlink:href="#DejaVuSans-69" transform="translate(590.035156 0)"/>
       <use xlink:href="#DejaVuSans-73" transform="translate(617.818359 0)"/>
       <use xlink:href="#DejaVuSans-61" transform="translate(669.917969 0)"/>
       <use xlink:href="#DejaVuSans-62" transform="translate(731.197266 0)"/>
       <use xlink:href="#DejaVuSans-6c" transform="translate(794.673828 0)"/>
       <use xlink:href="#DejaVuSans-65" transform="translate(822.457031 0)"/>
       <use xlink:href="#DejaVuSans-64" transform="translate(883.980469 0)"/>
       <use xlink:href="#DejaVuSans-20" transform="translate(947.457031 0)"/>
       <use xlink:href="#DejaVuSans-28" transform="translate(979.244141 0)"/>
       <use xlink:href="#DejaVuSans-6d" transform="translate(1018.257812 0)"/>
       <use xlink:href="#DejaVuSans-62" transform="translate(1115.669922 0)"/>
       <use xlink:href="#DejaVuSans-74" transform="translate(1179.146484 0)"/>
       <use xlink:href="#DejaVuSans-3d" transform="translate(1218.355469 0)"/>
       <use xlink:href="#DejaVuSans-31" transform="translate(1302.144531 0)"/>
       <use xlink:href="#DejaVuSans-36" transform="translate(1365.767578 0)"/>
       <use xlink:href="#DejaVuSans-33" transform="translate(1429.390625 0)"/>
       <use xlink:href="#DejaVuSans-38" transform="translate(1493.013672 0)"/>
       <use xlink:href="#DejaVuSans-34" transform="translate(1556.636719 0)"/>
       <use xlink:href="#DejaVuSans-29" transform="translate(1620.259766 0)"/>
      </g>
     </g>
    </g>
    <g id="text_5">
     <!-- Configuration -->
     <g style="fill: #262626" transform="translate(478.326563 557.031) scale(0.12 -0.12)">
      <defs>
       <path id="DejaVuSans-43" d="M 4122 4306 
L 4122 3641 
Q 3803 3938 3442 4084 
Q 3081 4231 2675 4231 
Q 1875 4231 1450 3742 
Q 1025 3253 1025 2328 
Q 1025 1406 1450 917 
Q 1875 428 2675 428 
Q 3081 428 3442 575 
Q 3803 722 4122 1019 
L 4122 359 
Q 3791 134 3420 21 
Q 3050 -91 2638 -91 
Q 1578 -91 968 557 
Q 359 1206 359 2328 
Q 359 3453 968 4101 
Q 1578 4750 2638 4750 
Q 3056 4750 3426 4639 
Q 3797 4528 4122 4306 
z
" transform="scale(0.015625)"/>
       <path id="DejaVuSans-6f" d="M 1959 3097 
Q 1497 3097 1228 2736 
Q 959 2375 959 1747 
Q 959 1119 1226 758 
Q 1494 397 1959 397 
Q 2419 397 2687 759 
Q 2956 1122 2956 1747 
Q 2956 2369 2687 2733 
Q 2419 3097 1959 3097 
z
M 1959 3584 
Q 2709 3584 3137 3096 
Q 3566 2609 3566 1747 
Q 3566 888 3137 398 
Q 2709 -91 1959 -91 
Q 1206 -91 779 398 
Q 353 888 353 1747 
Q 353 2609 779 3096 
Q 1206 3584 1959 3584 
z
" transform="scale(0.015625)"/>
       <path id="DejaVuSans-66" d="M 2375 4863 
L 2375 4384 
L 1825 4384 
Q 1516 4384 1395 4259 
Q 1275 4134 1275 3809 
L 1275 3500 
L 2222 3500 
L 2222 3053 
L 1275 3053 
L 1275 0 
L 697 0 
L 697 3053 
L 147 3053 
L 147 3500 
L 697 3500 
L 697 3744 
Q 697 4328 969 4595 
Q 1241 4863 1831 4863 
L 2375 4863 
z
" transform="scale(0.015625)"/>
       <path id="DejaVuSans-67" d="M 2906 1791 
Q 2906 2416 2648 2759 
Q 2391 3103 1925 3103 
Q 1463 3103 1205 2759 
Q 947 2416 947 1791 
Q 947 1169 1205 825 
Q 1463 481 1925 481 
Q 2391 481 2648 825 
Q 2906 1169 2906 1791 
z
M 3481 434 
Q 3481 -459 3084 -895 
Q 2688 -1331 1869 -1331 
Q 1566 -1331 1297 -1286 
Q 1028 -1241 775 -1147 
L 775 -588 
Q 1028 -725 1275 -790 
Q 1522 -856 1778 -856 
Q 2344 -856 2625 -561 
Q 2906 -266 2906 331 
L 2906 616 
Q 2728 306 2450 153 
Q 2172 0 1784 0 
Q 1141 0 747 490 
Q 353 981 353 1791 
Q 353 2603 747 3093 
Q 1141 3584 1784 3584 
Q 2172 3584 2450 3431 
Q 2728 3278 2906 2969 
L 2906 3500 
L 3481 3500 
L 3481 434 
z
" transform="scale(0.015625)"/>
       <path id="DejaVuSans-75" d="M 544 1381 
L 544 3500 
L 1119 3500 
L 1119 1403 
Q 1119 906 1312 657 
Q 1506 409 1894 409 
Q 2359 409 2629 706 
Q 2900 1003 2900 1516 
L 2900 3500 
L 3475 3500 
L 3475 0 
L 2900 0 
L 2900 538 
Q 2691 219 2414 64 
Q 2138 -91 1772 -91 
Q 1169 -91 856 284 
Q 544 659 544 1381 
z
M 1991 3584 
L 1991 3584 
z
" transform="scale(0.015625)"/>
       <path id="DejaVuSans-72" d="M 2631 2963 
Q 2534 3019 2420 3045 
Q 2306 3072 2169 3072 
Q 1681 3072 1420 2755 
Q 1159 2438 1159 1844 
L 1159 0 
L 581 0 
L 581 3500 
L 1159 3500 
L 1159 2956 
Q 1341 3275 1631 3429 
Q 1922 3584 2338 3584 
Q 2397 3584 2469 3576 
Q 2541 3569 2628 3553 
L 2631 2963 
z
" transform="scale(0.015625)"/>
      </defs>
      <use xlink:href="#DejaVuSans-43"/>
      <use xlink:href="#DejaVuSans-6f" transform="translate(69.824219 0)"/>
      <use xlink:href="#DejaVuSans-6e" transform="translate(131.005859 0)"/>
      <use xlink:href="#DejaVuSans-66" transform="translate(194.384766 0)"/>
      <use xlink:href="#DejaVuSans-69" transform="translate(229.589844 0)"/>
      <use xlink:href="#DejaVuSans-67" transform="translate(257.373047 0)"/>
      <use xlink:href="#DejaVuSans-75" transform="translate(320.849609 0)"/>
      <use xlink:href="#DejaVuSans-72" transform="translate(384.228516 0)"/>
      <use xlink:href="#DejaVuSans-61" transform="translate(425.341797 0)"/>
      <use xlink:href="#DejaVuSans-74" transform="translate(486.621094 0)"/>
      <use xlink:href="#DejaVuSans-69" transform="translate(525.830078 0)"/>
      <use xlink:href="#DejaVuSans-6f" transform="translate(553.613281 0)"/>
      <use xlink:href="#DejaVuSans-6e" transform="translate(614.794922 0)"/>
     </g>
    </g>
   </g>
   <g id="matplotlib.axis_2">
    <g id="ytick_1">
     <g id="line2d_1">
      <path d="M 45.716875 437.517665 
L 992.316875 437.517665 
" clip-path="url(#p6450aea8e7)" style="fill: none; stroke: #cccccc; stroke-width: 0.8; stroke-linecap: round"/>
     </g>
     <g id="text_6">
      <!-- 0.2 -->
      <g style="fill: #262626" transform="translate(22.81375 441.316884) scale(0.1 -0.1)">
       <defs>
        <path id="DejaVuSans-32" d="M 1228 531 
L 3431 531 
L 3431 0 
L 469 0 
L 469 531 
Q 828 903 1448 1529 
Q 2069 2156 2228 2338 
Q 2531 2678 2651 2914 
Q 2772 3150 2772 3378 
Q 2772 3750 2511 3984 
Q 2250 4219 1831 4219 
Q 1534 4219 1204 4116 
Q 875 4013 500 3803 
L 500 4441 
Q 881 4594 1212 4672 
Q 1544 4750 1819 4750 
Q 2544 4750 2975 4387 
Q 3406 4025 3406 3419 
Q 3406 3131 3298 2873 
Q 3191 2616 2906 2266 
Q 2828 2175 2409 1742 
Q 1991 1309 1228 531 
z
" transform="scale(0.015625)"/>
       </defs>
       <use xlink:href="#DejaVuSans-30"/>
       <use xlink:href="#DejaVuSans-2e" transform="translate(63.623047 0)"/>
       <use xlink:href="#DejaVuSans-32" transform="translate(95.410156 0)"/>
      </g>
     </g>
    </g>
    <g id="ytick_2">
     <g id="line2d_2">
      <path d="M 45.716875 332.915331 
L 992.316875 332.915331 
" clip-path="url(#p6450aea8e7)" style="fill: none; stroke: #cccccc; stroke-width: 0.8; stroke-linecap: round"/>
     </g>
     <g id="text_7">
      <!-- 0.4 -->
      <g style="fill: #262626" transform="translate(22.81375 336.71455) scale(0.1 -0.1)">
       <use xlink:href="#DejaVuSans-30"/>
       <use xlink:href="#DejaVuSans-2e" transform="translate(63.623047 0)"/>
       <use xlink:href="#DejaVuSans-34" transform="translate(95.410156 0)"/>
      </g>
     </g>
    </g>
    <g id="ytick_3">
     <g id="line2d_3">
      <path d="M 45.716875 228.312997 
L 992.316875 228.312997 
" clip-path="url(#p6450aea8e7)" style="fill: none; stroke: #cccccc; stroke-width: 0.8; stroke-linecap: round"/>
     </g>
     <g id="text_8">
      <!-- 0.6 -->
      <g style="fill: #262626" transform="translate(22.81375 232.112216) scale(0.1 -0.1)">
       <use xlink:href="#DejaVuSans-30"/>
       <use xlink:href="#DejaVuSans-2e" transform="translate(63.623047 0)"/>
       <use xlink:href="#DejaVuSans-36" transform="translate(95.410156 0)"/>
      </g>
     </g>
    </g>
    <g id="ytick_4">
     <g id="line2d_4">
      <path d="M 45.716875 123.710663 
L 992.316875 123.710663 
" clip-path="url(#p6450aea8e7)" style="fill: none; stroke: #cccccc; stroke-width: 0.8; stroke-linecap: round"/>
     </g>
     <g id="text_9">
      <!-- 0.8 -->
      <g style="fill: #262626" transform="translate(22.81375 127.509882) scale(0.1 -0.1)">
       <use xlink:href="#DejaVuSans-30"/>
       <use xlink:href="#DejaVuSans-2e" transform="translate(63.623047 0)"/>
       <use xlink:href="#DejaVuSans-38" transform="translate(95.410156 0)"/>
      </g>
     </g>
    </g>
    <g id="text_10">
     <!-- Request Time (seconds) -->
     <g style="fill: #262626" transform="translate(16.318125 362.447875) rotate(-90) scale(0.12 -0.12)">
      <defs>
       <path id="DejaVuSans-71" d="M 947 1747 
Q 947 1113 1208 752 
Q 1469 391 1925 391 
Q 2381 391 2643 752 
Q 2906 1113 2906 1747 
Q 2906 2381 2643 2742 
Q 2381 3103 1925 3103 
Q 1469 3103 1208 2742 
Q 947 2381 947 1747 
z
M 2906 525 
Q 2725 213 2448 61 
Q 2172 -91 1784 -91 
Q 1150 -91 751 415 
Q 353 922 353 1747 
Q 353 2572 751 3078 
Q 1150 3584 1784 3584 
Q 2172 3584 2448 3432 
Q 2725 3281 2906 2969 
L 2906 3500 
L 3481 3500 
L 3481 -1331 
L 2906 -1331 
L 2906 525 
z
" transform="scale(0.015625)"/>
       <path id="DejaVuSans-54" d="M -19 4666 
L 3928 4666 
L 3928 4134 
L 2272 4134 
L 2272 0 
L 1638 0 
L 1638 4134 
L -19 4134 
L -19 4666 
z
" transform="scale(0.015625)"/>
       <path id="DejaVuSans-63" d="M 3122 3366 
L 3122 2828 
Q 2878 2963 2633 3030 
Q 2388 3097 2138 3097 
Q 1578 3097 1268 2742 
Q 959 2388 959 1747 
Q 959 1106 1268 751 
Q 1578 397 2138 397 
Q 2388 397 2633 464 
Q 2878 531 3122 666 
L 3122 134 
Q 2881 22 2623 -34 
Q 2366 -91 2075 -91 
Q 1284 -91 818 406 
Q 353 903 353 1747 
Q 353 2603 823 3093 
Q 1294 3584 2113 3584 
Q 2378 3584 2631 3529 
Q 2884 3475 3122 3366 
z
" transform="scale(0.015625)"/>
      </defs>
      <use xlink:href="#DejaVuSans-52"/>
      <use xlink:href="#DejaVuSans-65" transform="translate(64.982422 0)"/>
      <use xlink:href="#DejaVuSans-71" transform="translate(126.505859 0)"/>
      <use xlink:href="#DejaVuSans-75" transform="translate(189.982422 0)"/>
      <use xlink:href="#DejaVuSans-65" transform="translate(253.361328 0)"/>
      <use xlink:href="#DejaVuSans-73" transform="translate(314.884766 0)"/>
      <use xlink:href="#DejaVuSans-74" transform="translate(366.984375 0)"/>
      <use xlink:href="#DejaVuSans-20" transform="translate(406.193359 0)"/>
      <use xlink:href="#DejaVuSans-54" transform="translate(437.980469 0)"/>
      <use xlink:href="#DejaVuSans-69" transform="translate(495.939453 0)"/>
      <use xlink:href="#DejaVuSans-6d" transform="translate(523.722656 0)"/>
      <use xlink:href="#DejaVuSans-65" transform="translate(621.134766 0)"/>
      <use xlink:href="#DejaVuSans-20" transform="translate(682.658203 0)"/>
      <use xlink:href="#DejaVuSans-28" transform="translate(714.445312 0)"/>
      <use xlink:href="#DejaVuSans-73" transform="translate(753.458984 0)"/>
      <use xlink:href="#DejaVuSans-65" transform="translate(805.558594 0)"/>
      <use xlink:href="#DejaVuSans-63" transform="translate(867.082031 0)"/>
      <use xlink:href="#DejaVuSans-6f" transform="translate(922.0625 0)"/>
      <use xlink:href="#DejaVuSans-6e" transform="translate(983.244141 0)"/>
      <use xlink:href="#DejaVuSans-64" transform="translate(1046.623047 0)"/>
      <use xlink:href="#DejaVuSans-73" transform="translate(1110.099609 0)"/>
      <use xlink:href="#DejaVuSans-29" transform="translate(1162.199219 0)"/>
     </g>
    </g>
   </g>
   <g id="FillBetweenPolyCollection_1">
    <defs>
     <path id="m103ba752ba" d="M 164.303245 -80.540435 
L 163.780505 -80.540435 
L 163.832282 -82.995055 
L 163.944467 -85.449675 
L 164.015639 -87.904295 
L 164.03778 -90.358915 
L 164.041505 -92.813535 
L 164.041856 -95.268154 
L 164.041874 -97.722774 
L 164.041875 -100.177394 
L 164.041875 -102.632014 
L 164.041875 -105.086634 
L 164.041875 -107.541253 
L 164.041875 -109.995873 
L 164.041875 -112.450493 
L 164.041875 -114.905113 
L 164.041875 -117.359733 
L 164.041875 -119.814353 
L 164.041875 -122.268972 
L 164.041875 -124.723592 
L 164.041875 -127.178212 
L 164.041875 -129.632832 
L 164.041875 -132.087452 
L 164.041875 -134.542071 
L 164.041875 -136.996691 
L 164.041875 -139.451311 
L 164.041875 -141.905931 
L 164.041875 -144.360551 
L 164.041875 -146.815171 
L 164.041875 -149.26979 
L 164.041875 -151.72441 
L 164.041875 -154.17903 
L 164.041869 -156.63365 
L 164.041717 -159.08827 
L 164.039521 -161.542889 
L 164.021544 -163.997509 
L 163.940132 -166.452129 
L 163.746814 -168.906749 
L 163.54603 -171.361369 
L 163.55907 -173.815988 
L 163.769504 -176.270608 
L 163.952743 -178.725228 
L 164.023565 -181.179848 
L 164.029802 -183.634468 
L 164.000336 -186.089088 
L 163.944889 -188.543707 
L 163.910636 -190.998327 
L 163.939228 -193.452947 
L 163.995472 -195.907567 
L 164.029751 -198.362187 
L 164.040044 -200.816806 
L 164.041715 -203.271426 
L 164.041866 -205.726046 
L 164.041857 -208.180666 
L 164.041504 -210.635286 
L 164.037405 -213.089906 
L 164.01071 -215.544525 
L 163.916288 -217.999145 
L 163.74936 -220.453765 
L 163.648073 -222.908385 
L 163.735446 -225.363005 
L 163.904057 -227.817624 
L 164.006048 -230.272244 
L 164.036492 -232.726864 
L 164.041408 -235.181484 
L 164.041852 -237.636104 
L 164.041874 -240.090724 
L 164.041875 -242.545343 
L 164.041865 -244.999963 
L 164.041677 -247.454583 
L 164.039703 -249.909203 
L 164.028107 -252.363823 
L 163.991434 -254.818442 
L 163.935069 -257.273062 
L 163.911161 -259.727682 
L 163.949414 -262.182302 
L 164.004074 -264.636922 
L 164.032943 -267.091542 
L 164.040655 -269.546161 
L 164.041778 -272.000781 
L 164.04185 -274.455401 
L 164.04146 -276.910021 
L 164.037034 -279.364641 
L 164.007658 -281.81926 
L 163.886625 -284.27388 
L 163.534988 -286.7285 
L 162.679052 -289.18312 
L 160.81817 -291.63774 
L 157.152051 -294.092359 
L 150.197106 -296.546979 
L 137.918009 -299.001599 
L 119.292289 -301.456219 
L 96.531436 -303.910839 
L 76.704823 -306.365459 
L 69.381875 -308.820078 
L 79.565222 -311.274698 
L 102.006393 -313.729318 
L 125.754442 -316.183938 
L 143.598936 -318.638558 
L 154.34326 -321.093177 
L 159.940376 -323.547797 
L 168.143374 -323.547797 
L 168.143374 -323.547797 
L 173.74049 -321.093177 
L 184.484814 -318.638558 
L 202.329308 -316.183938 
L 226.077357 -313.729318 
L 248.518528 -311.274698 
L 258.701875 -308.820078 
L 251.378927 -306.365459 
L 231.552314 -303.910839 
L 208.791461 -301.456219 
L 190.165741 -299.001599 
L 177.886644 -296.546979 
L 170.931699 -294.092359 
L 167.26558 -291.63774 
L 165.404698 -289.18312 
L 164.548762 -286.7285 
L 164.197125 -284.27388 
L 164.076092 -281.81926 
L 164.046716 -279.364641 
L 164.04229 -276.910021 
L 164.0419 -274.455401 
L 164.041972 -272.000781 
L 164.043095 -269.546161 
L 164.050807 -267.091542 
L 164.079676 -264.636922 
L 164.134336 -262.182302 
L 164.172589 -259.727682 
L 164.148681 -257.273062 
L 164.092316 -254.818442 
L 164.055643 -252.363823 
L 164.044047 -249.909203 
L 164.042073 -247.454583 
L 164.041885 -244.999963 
L 164.041875 -242.545343 
L 164.041876 -240.090724 
L 164.041898 -237.636104 
L 164.042342 -235.181484 
L 164.047258 -232.726864 
L 164.077702 -230.272244 
L 164.179693 -227.817624 
L 164.348304 -225.363005 
L 164.435677 -222.908385 
L 164.33439 -220.453765 
L 164.167462 -217.999145 
L 164.07304 -215.544525 
L 164.046345 -213.089906 
L 164.042246 -210.635286 
L 164.041893 -208.180666 
L 164.041884 -205.726046 
L 164.042035 -203.271426 
L 164.043706 -200.816806 
L 164.053999 -198.362187 
L 164.088278 -195.907567 
L 164.144522 -193.452947 
L 164.173114 -190.998327 
L 164.138861 -188.543707 
L 164.083414 -186.089088 
L 164.053948 -183.634468 
L 164.060185 -181.179848 
L 164.131007 -178.725228 
L 164.314246 -176.270608 
L 164.52468 -173.815988 
L 164.53772 -171.361369 
L 164.336936 -168.906749 
L 164.143618 -166.452129 
L 164.062206 -163.997509 
L 164.044229 -161.542889 
L 164.042033 -159.08827 
L 164.041881 -156.63365 
L 164.041875 -154.17903 
L 164.041875 -151.72441 
L 164.041875 -149.26979 
L 164.041875 -146.815171 
L 164.041875 -144.360551 
L 164.041875 -141.905931 
L 164.041875 -139.451311 
L 164.041875 -136.996691 
L 164.041875 -134.542071 
L 164.041875 -132.087452 
L 164.041875 -129.632832 
L 164.041875 -127.178212 
L 164.041875 -124.723592 
L 164.041875 -122.268972 
L 164.041875 -119.814353 
L 164.041875 -117.359733 
L 164.041875 -114.905113 
L 164.041875 -112.450493 
L 164.041875 -109.995873 
L 164.041875 -107.541253 
L 164.041875 -105.086634 
L 164.041875 -102.632014 
L 164.041875 -100.177394 
L 164.041876 -97.722774 
L 164.041894 -95.268154 
L 164.042245 -92.813535 
L 164.04597 -90.358915 
L 164.068111 -87.904295 
L 164.139283 -85.449675 
L 164.251468 -82.995055 
L 164.303245 -80.540435 
z
" style="stroke: #3f3f3f; stroke-width: 1.25"/>
    </defs>
    <g clip-path="url(#p6450aea8e7)">
     <use xlink:href="#m103ba752ba" x="0" y="566.726625" style="fill: #e1812c; stroke: #3f3f3f; stroke-width: 1.25"/>
    </g>
   </g>
   <g id="FillBetweenPolyCollection_2">
    <defs>
     <path id="m8abe47cb1c" d="M 400.919612 -80.876911 
L 400.464138 -80.876911 
L 400.496321 -83.706934 
L 400.573544 -86.536957 
L 400.641356 -89.36698 
L 400.676147 -92.197003 
L 400.685372 -95.027026 
L 400.678023 -97.857049 
L 400.653587 -100.687071 
L 400.61487 -103.517094 
L 400.582666 -106.347117 
L 400.58279 -109.17714 
L 400.615132 -112.007163 
L 400.65383 -114.837186 
L 400.678385 -117.667209 
L 400.687108 -120.497231 
L 400.684095 -123.327254 
L 400.667466 -126.157277 
L 400.634044 -128.9873 
L 400.595121 -131.817323 
L 400.577859 -134.647346 
L 400.597247 -137.477369 
L 400.636548 -140.307391 
L 400.668932 -143.137414 
L 400.683905 -145.967437 
L 400.682901 -148.79746 
L 400.661728 -151.627483 
L 400.608989 -154.457506 
L 400.530398 -157.287529 
L 400.470247 -160.117551 
L 400.477618 -162.947574 
L 400.545978 -165.777597 
L 400.621861 -168.60762 
L 400.667873 -171.437643 
L 400.683976 -174.267666 
L 400.680928 -177.097689 
L 400.660764 -179.927711 
L 400.624217 -182.757734 
L 400.587902 -185.587757 
L 400.579329 -188.41778 
L 400.606073 -191.247803 
L 400.645786 -194.077826 
L 400.674254 -196.907849 
L 400.685848 -199.737871 
L 400.68425 -202.567894 
L 400.668595 -205.397917 
L 400.635913 -208.22794 
L 400.596695 -211.057963 
L 400.577844 -213.887986 
L 400.595656 -216.718009 
L 400.63468 -219.548031 
L 400.66777 -222.378054 
L 400.683451 -225.208077 
L 400.682786 -228.0381 
L 400.66175 -230.868123 
L 400.609149 -233.698146 
L 400.530707 -236.528169 
L 400.47053 -239.358191 
L 400.477627 -242.188214 
L 400.545715 -245.018237 
L 400.621549 -247.84826 
L 400.667577 -250.678283 
L 400.683296 -253.508306 
L 400.678831 -256.338329 
L 400.656196 -259.168351 
L 400.618105 -261.998374 
L 400.583417 -264.828397 
L 400.572816 -267.65842 
L 400.554179 -270.488443 
L 400.365887 -273.318466 
L 399.641821 -276.148489 
L 397.914482 -278.978512 
L 395.183182 -281.808534 
L 392.548677 -284.638557 
L 391.695014 -287.46858 
L 393.236911 -290.298603 
L 396.010977 -293.128626 
L 398.204535 -295.958649 
L 398.262488 -298.788672 
L 393.828411 -301.618694 
L 380.578076 -304.448717 
L 355.528283 -307.27874 
L 325.006165 -310.108763 
L 306.031875 -312.938786 
L 312.058119 -315.768809 
L 338.249886 -318.598832 
L 367.237299 -321.428854 
L 386.500192 -324.258877 
L 394.656106 -327.0889 
L 395.139 -329.918923 
L 390.476507 -332.748946 
L 382.813323 -335.578969 
L 376.245062 -338.408992 
L 375.323557 -341.239014 
L 380.745559 -344.069037 
L 388.688555 -346.89906 
L 395.014952 -349.729083 
L 398.452326 -352.559106 
L 399.859222 -355.389129 
L 400.33756 -358.219152 
L 400.497973 -361.049174 
L 400.885777 -361.049174 
L 400.885777 -361.049174 
L 401.04619 -358.219152 
L 401.524528 -355.389129 
L 402.931424 -352.559106 
L 406.368798 -349.729083 
L 412.695195 -346.89906 
L 420.638191 -344.069037 
L 426.060193 -341.239014 
L 425.138688 -338.408992 
L 418.570427 -335.578969 
L 410.907243 -332.748946 
L 406.24475 -329.918923 
L 406.727644 -327.0889 
L 414.883558 -324.258877 
L 434.146451 -321.428854 
L 463.133864 -318.598832 
L 489.325631 -315.768809 
L 495.351875 -312.938786 
L 476.377585 -310.108763 
L 445.855467 -307.27874 
L 420.805674 -304.448717 
L 407.555339 -301.618694 
L 403.121262 -298.788672 
L 403.179215 -295.958649 
L 405.372773 -293.128626 
L 408.146839 -290.298603 
L 409.688736 -287.46858 
L 408.835073 -284.638557 
L 406.200568 -281.808534 
L 403.469268 -278.978512 
L 401.741929 -276.148489 
L 401.017863 -273.318466 
L 400.829571 -270.488443 
L 400.810934 -267.65842 
L 400.800333 -264.828397 
L 400.765645 -261.998374 
L 400.727554 -259.168351 
L 400.704919 -256.338329 
L 400.700454 -253.508306 
L 400.716173 -250.678283 
L 400.762201 -247.84826 
L 400.838035 -245.018237 
L 400.906123 -242.188214 
L 400.91322 -239.358191 
L 400.853043 -236.528169 
L 400.774601 -233.698146 
L 400.722 -230.868123 
L 400.700964 -228.0381 
L 400.700299 -225.208077 
L 400.71598 -222.378054 
L 400.74907 -219.548031 
L 400.788094 -216.718009 
L 400.805906 -213.887986 
L 400.787055 -211.057963 
L 400.747837 -208.22794 
L 400.715155 -205.397917 
L 400.6995 -202.567894 
L 400.697902 -199.737871 
L 400.709496 -196.907849 
L 400.737964 -194.077826 
L 400.777677 -191.247803 
L 400.804421 -188.41778 
L 400.795848 -185.587757 
L 400.759533 -182.757734 
L 400.722986 -179.927711 
L 400.702822 -177.097689 
L 400.699774 -174.267666 
L 400.715877 -171.437643 
L 400.761889 -168.60762 
L 400.837772 -165.777597 
L 400.906132 -162.947574 
L 400.913503 -160.117551 
L 400.853352 -157.287529 
L 400.774761 -154.457506 
L 400.722022 -151.627483 
L 400.700849 -148.79746 
L 400.699845 -145.967437 
L 400.714818 -143.137414 
L 400.747202 -140.307391 
L 400.786503 -137.477369 
L 400.805891 -134.647346 
L 400.788629 -131.817323 
L 400.749706 -128.9873 
L 400.716284 -126.157277 
L 400.699655 -123.327254 
L 400.696642 -120.497231 
L 400.705365 -117.667209 
L 400.72992 -114.837186 
L 400.768618 -112.007163 
L 400.80096 -109.17714 
L 400.801084 -106.347117 
L 400.76888 -103.517094 
L 400.730163 -100.687071 
L 400.705727 -97.857049 
L 400.698378 -95.027026 
L 400.707603 -92.197003 
L 400.742394 -89.36698 
L 400.810206 -86.536957 
L 400.887429 -83.706934 
L 400.919612 -80.876911 
z
" style="stroke: #3f3f3f; stroke-width: 1.25"/>
    </defs>
    <g clip-path="url(#p6450aea8e7)">
     <use xlink:href="#m8abe47cb1c" x="0" y="566.726625" style="fill: #e1812c; stroke: #3f3f3f; stroke-width: 1.25"/>
    </g>
   </g>
   <g id="FillBetweenPolyCollection_3">
    <defs>
     <path id="m0dd620080c" d="M 637.451647 -61.024602 
L 637.232103 -61.024602 
L 637.266787 -65.374648 
L 637.317842 -69.724694 
L 637.338276 -74.07474 
L 637.341623 -78.424786 
L 637.341867 -82.774832 
L 637.341875 -87.124878 
L 637.341875 -91.474924 
L 637.341875 -95.82497 
L 637.341875 -100.175015 
L 637.341875 -104.525061 
L 637.341875 -108.875107 
L 637.341875 -113.225153 
L 637.341875 -117.575199 
L 637.341875 -121.925245 
L 637.341875 -126.275291 
L 637.341875 -130.625337 
L 637.341875 -134.975383 
L 637.341875 -139.325429 
L 637.341875 -143.675475 
L 637.341875 -148.025521 
L 637.341875 -152.375566 
L 637.341875 -156.725612 
L 637.341875 -161.075658 
L 637.341875 -165.425704 
L 637.341875 -169.77575 
L 637.341875 -174.125796 
L 637.341875 -178.475842 
L 637.341855 -182.825888 
L 637.34118 -187.175934 
L 637.33043 -191.52598 
L 637.253543 -195.876026 
L 637.022555 -200.226072 
L 636.801192 -204.576117 
L 636.913059 -208.926163 
L 637.182578 -213.276209 
L 637.314158 -217.626255 
L 637.339616 -221.976301 
L 637.341789 -226.326347 
L 637.341873 -230.676393 
L 637.341828 -235.026439 
L 637.340714 -239.376485 
L 637.328549 -243.726531 
L 637.270078 -248.076577 
L 637.158651 -252.426622 
L 637.108479 -256.776668 
L 637.15491 -261.126714 
L 637.202041 -265.47676 
L 637.257415 -269.826806 
L 637.313756 -274.176852 
L 637.337357 -278.526898 
L 637.341533 -282.876944 
L 637.341863 -287.22699 
L 637.341875 -291.577036 
L 637.341875 -295.927082 
L 637.341875 -300.277128 
L 637.341875 -304.627173 
L 637.341875 -308.977219 
L 637.341875 -313.327265 
L 637.341875 -317.677311 
L 637.341875 -322.027357 
L 637.341875 -326.377403 
L 637.341875 -330.727449 
L 637.341875 -335.077495 
L 637.341875 -339.427541 
L 637.341875 -343.777587 
L 637.341875 -348.127633 
L 637.341874 -352.477678 
L 637.34182 -356.827724 
L 637.340512 -361.17777 
L 637.325516 -365.527816 
L 637.241694 -369.877862 
L 637.0049 -374.227908 
L 636.675264 -378.577954 
L 636.554883 -382.928 
L 636.785578 -387.278046 
L 637.080629 -391.628092 
L 637.244397 -395.978138 
L 637.277245 -400.328184 
L 637.172735 -404.678229 
L 636.826444 -409.028275 
L 635.207087 -413.378321 
L 628.661649 -417.728367 
L 610.511067 -422.078413 
L 577.450142 -426.428459 
L 545.434106 -430.778505 
L 542.681875 -435.128551 
L 570.817525 -439.478597 
L 604.708867 -443.828643 
L 626.405916 -448.178689 
L 634.917266 -452.528735 
L 636.68428 -456.87878 
L 636.775783 -461.228826 
L 636.969196 -465.578872 
L 637.221661 -469.928918 
L 637.30807 -474.278964 
L 637.263123 -478.62901 
L 637.116949 -482.979056 
L 636.919807 -487.329102 
L 636.871459 -491.679148 
L 637.812291 -491.679148 
L 637.812291 -491.679148 
L 637.763943 -487.329102 
L 637.566801 -482.979056 
L 637.420627 -478.62901 
L 637.37568 -474.278964 
L 637.462089 -469.928918 
L 637.714554 -465.578872 
L 637.907967 -461.228826 
L 637.99947 -456.87878 
L 639.766484 -452.528735 
L 648.277834 -448.178689 
L 669.974883 -443.828643 
L 703.866225 -439.478597 
L 732.001875 -435.128551 
L 729.249644 -430.778505 
L 697.233608 -426.428459 
L 664.172683 -422.078413 
L 646.022101 -417.728367 
L 639.476663 -413.378321 
L 637.857306 -409.028275 
L 637.511015 -404.678229 
L 637.406505 -400.328184 
L 637.439353 -395.978138 
L 637.603121 -391.628092 
L 637.898172 -387.278046 
L 638.128867 -382.928 
L 638.008486 -378.577954 
L 637.67885 -374.227908 
L 637.442056 -369.877862 
L 637.358234 -365.527816 
L 637.343238 -361.17777 
L 637.34193 -356.827724 
L 637.341876 -352.477678 
L 637.341875 -348.127633 
L 637.341875 -343.777587 
L 637.341875 -339.427541 
L 637.341875 -335.077495 
L 637.341875 -330.727449 
L 637.341875 -326.377403 
L 637.341875 -322.027357 
L 637.341875 -317.677311 
L 637.341875 -313.327265 
L 637.341875 -308.977219 
L 637.341875 -304.627173 
L 637.341875 -300.277128 
L 637.341875 -295.927082 
L 637.341875 -291.577036 
L 637.341887 -287.22699 
L 637.342217 -282.876944 
L 637.346393 -278.526898 
L 637.369994 -274.176852 
L 637.426335 -269.826806 
L 637.481709 -265.47676 
L 637.52884 -261.126714 
L 637.575271 -256.776668 
L 637.525099 -252.426622 
L 637.413672 -248.076577 
L 637.355201 -243.726531 
L 637.343036 -239.376485 
L 637.341922 -235.026439 
L 637.341877 -230.676393 
L 637.341961 -226.326347 
L 637.344134 -221.976301 
L 637.369592 -217.626255 
L 637.501172 -213.276209 
L 637.770691 -208.926163 
L 637.882558 -204.576117 
L 637.661195 -200.226072 
L 637.430207 -195.876026 
L 637.35332 -191.52598 
L 637.34257 -187.175934 
L 637.341895 -182.825888 
L 637.341875 -178.475842 
L 637.341875 -174.125796 
L 637.341875 -169.77575 
L 637.341875 -165.425704 
L 637.341875 -161.075658 
L 637.341875 -156.725612 
L 637.341875 -152.375566 
L 637.341875 -148.025521 
L 637.341875 -143.675475 
L 637.341875 -139.325429 
L 637.341875 -134.975383 
L 637.341875 -130.625337 
L 637.341875 -126.275291 
L 637.341875 -121.925245 
L 637.341875 -117.575199 
L 637.341875 -113.225153 
L 637.341875 -108.875107 
L 637.341875 -104.525061 
L 637.341875 -100.175015 
L 637.341875 -95.82497 
L 637.341875 -91.474924 
L 637.341875 -87.124878 
L 637.341883 -82.774832 
L 637.342127 -78.424786 
L 637.345474 -74.07474 
L 637.365908 -69.724694 
L 637.416963 -65.374648 
L 637.451647 -61.024602 
z
" style="stroke: #3f3f3f; stroke-width: 1.25"/>
    </defs>
    <g clip-path="url(#p6450aea8e7)">
     <use xlink:href="#m0dd620080c" x="0" y="566.726625" style="fill: #3274a1; stroke: #3f3f3f; stroke-width: 1.25"/>
    </g>
   </g>
   <g id="FillBetweenPolyCollection_4">
    <defs>
     <path id="m715e99f370" d="M 874.102529 -83.745883 
L 873.881221 -83.745883 
L 873.89965 -87.855155 
L 873.938469 -91.964426 
L 873.970245 -96.073698 
L 873.984695 -100.18297 
L 873.984636 -104.292242 
L 873.970038 -108.401513 
L 873.938122 -112.510785 
L 873.899352 -116.620057 
L 873.881222 -120.729329 
L 873.89995 -124.8386 
L 873.938813 -128.947872 
L 873.970426 -133.057144 
L 873.984609 -137.166416 
L 873.983993 -141.275687 
L 873.968301 -145.384959 
L 873.935306 -149.494231 
L 873.897013 -153.603503 
L 873.881351 -157.712774 
L 873.902423 -161.822046 
L 873.941533 -165.931318 
L 873.971652 -170.04059 
L 873.982354 -174.149861 
L 873.970043 -178.259133 
L 873.919899 -182.368405 
L 873.819714 -186.477676 
L 873.705334 -190.586948 
L 873.660559 -194.69622 
L 873.725758 -198.805492 
L 873.843374 -202.914763 
L 873.934123 -207.024035 
L 873.974944 -211.133307 
L 873.981885 -215.242579 
L 873.967167 -219.35185 
L 873.933855 -223.461122 
L 873.895881 -227.570394 
L 873.881495 -231.679666 
L 873.903708 -235.788937 
L 873.942928 -239.898209 
L 873.9727 -244.007481 
L 873.984443 -248.116753 
L 873.97871 -252.226024 
L 873.948213 -256.335296 
L 873.884133 -260.444568 
L 873.806671 -264.553839 
L 873.770654 -268.663111 
L 873.808276 -272.772383 
L 873.885987 -276.881655 
L 873.949284 -280.990926 
L 873.978804 -285.100198 
L 873.98319 -289.20947 
L 873.969025 -293.318742 
L 873.936698 -297.428013 
L 873.898161 -301.537285 
L 873.881261 -305.646557 
L 873.901182 -309.755829 
L 873.940207 -313.8651 
L 873.971269 -317.974372 
L 873.984998 -322.083644 
L 873.984404 -326.192916 
L 873.969195 -330.302187 
L 873.936722 -334.411459 
L 873.898169 -338.520731 
L 873.881261 -342.630003 
L 873.901174 -346.739274 
L 873.940196 -350.848546 
L 873.971228 -354.957818 
L 873.984759 -359.067089 
L 873.98313 -363.176361 
L 873.961921 -367.285633 
L 873.890908 -371.394905 
L 873.647499 -375.504176 
L 872.859158 -379.613448 
L 870.928843 -383.72272 
L 867.824993 -387.831992 
L 865.06866 -391.941263 
L 864.79199 -396.050535 
L 867.211644 -400.159807 
L 870.30309 -404.269079 
L 871.979712 -408.37835 
L 870.547201 -412.487622 
L 862.290382 -416.596894 
L 841.410774 -420.706166 
L 808.641195 -424.815437 
L 780.773623 -428.924709 
L 779.331875 -433.033981 
L 805.063143 -437.143252 
L 837.321846 -441.252524 
L 858.956609 -445.361796 
L 868.078343 -449.471068 
L 869.089539 -453.580339 
L 864.414825 -457.689611 
L 855.898717 -461.798883 
L 848.652219 -465.908155 
L 848.528807 -470.017426 
L 855.581365 -474.126698 
L 864.267629 -478.23597 
L 870.106697 -482.345242 
L 872.712504 -486.454513 
L 873.573238 -490.563785 
L 874.410512 -490.563785 
L 874.410512 -490.563785 
L 875.271246 -486.454513 
L 877.877053 -482.345242 
L 883.716121 -478.23597 
L 892.402385 -474.126698 
L 899.454943 -470.017426 
L 899.331531 -465.908155 
L 892.085033 -461.798883 
L 883.568925 -457.689611 
L 878.894211 -453.580339 
L 879.905407 -449.471068 
L 889.027141 -445.361796 
L 910.661904 -441.252524 
L 942.920607 -437.143252 
L 968.651875 -433.033981 
L 967.210127 -428.924709 
L 939.342555 -424.815437 
L 906.572976 -420.706166 
L 885.693368 -416.596894 
L 877.436549 -412.487622 
L 876.004038 -408.37835 
L 877.68066 -404.269079 
L 880.772106 -400.159807 
L 883.19176 -396.050535 
L 882.91509 -391.941263 
L 880.158757 -387.831992 
L 877.054907 -383.72272 
L 875.124592 -379.613448 
L 874.336251 -375.504176 
L 874.092842 -371.394905 
L 874.021829 -367.285633 
L 874.00062 -363.176361 
L 873.998991 -359.067089 
L 874.012522 -354.957818 
L 874.043554 -350.848546 
L 874.082576 -346.739274 
L 874.102489 -342.630003 
L 874.085581 -338.520731 
L 874.047028 -334.411459 
L 874.014555 -330.302187 
L 873.999346 -326.192916 
L 873.998752 -322.083644 
L 874.012481 -317.974372 
L 874.043543 -313.8651 
L 874.082568 -309.755829 
L 874.102489 -305.646557 
L 874.085589 -301.537285 
L 874.047052 -297.428013 
L 874.014725 -293.318742 
L 874.00056 -289.20947 
L 874.004946 -285.100198 
L 874.034466 -280.990926 
L 874.097763 -276.881655 
L 874.175474 -272.772383 
L 874.213096 -268.663111 
L 874.177079 -264.553839 
L 874.099617 -260.444568 
L 874.035537 -256.335296 
L 874.00504 -252.226024 
L 873.999307 -248.116753 
L 874.01105 -244.007481 
L 874.040822 -239.898209 
L 874.080042 -235.788937 
L 874.102255 -231.679666 
L 874.087869 -227.570394 
L 874.049895 -223.461122 
L 874.016583 -219.35185 
L 874.001865 -215.242579 
L 874.008806 -211.133307 
L 874.049627 -207.024035 
L 874.140376 -202.914763 
L 874.257992 -198.805492 
L 874.323191 -194.69622 
L 874.278416 -190.586948 
L 874.164036 -186.477676 
L 874.063851 -182.368405 
L 874.013707 -178.259133 
L 874.001396 -174.149861 
L 874.012098 -170.04059 
L 874.042217 -165.931318 
L 874.081327 -161.822046 
L 874.102399 -157.712774 
L 874.086737 -153.603503 
L 874.048444 -149.494231 
L 874.015449 -145.384959 
L 873.999757 -141.275687 
L 873.999141 -137.166416 
L 874.013324 -133.057144 
L 874.044937 -128.947872 
L 874.0838 -124.8386 
L 874.102528 -120.729329 
L 874.084398 -116.620057 
L 874.045628 -112.510785 
L 874.013712 -108.401513 
L 873.999114 -104.292242 
L 873.999055 -100.18297 
L 874.013505 -96.073698 
L 874.045281 -91.964426 
L 874.0841 -87.855155 
L 874.102529 -83.745883 
z
" style="stroke: #3f3f3f; stroke-width: 1.25"/>
    </defs>
    <g clip-path="url(#p6450aea8e7)">
     <use xlink:href="#m715e99f370" x="0" y="566.726625" style="fill: #3274a1; stroke: #3f3f3f; stroke-width: 1.25"/>
    </g>
   </g>
   <g id="line2d_5">
    <path d="M 164.041875 271.076786 
L 164.041875 245.855973 
" clip-path="url(#p6450aea8e7)" style="fill: none; stroke: #3f3f3f; stroke-width: 1.875; stroke-linecap: round"/>
   </g>
   <g id="line2d_6">
    <path d="M 164.041875 261.682532 
L 164.041875 255.247729 
" clip-path="url(#p6450aea8e7)" style="fill: none; stroke: #3f3f3f; stroke-width: 5.625; stroke-linecap: round"/>
   </g>
   <g id="line2d_7">
    <path d="M 164.041875 258.215126 
" clip-path="url(#p6450aea8e7)" style="fill: none; stroke: #3f3f3f; stroke-width: 1.5; stroke-linecap: round"/>
    <defs>
     <path id="m0909cfe132" d="M 2.34375 0 
L -2.34375 -0 
" style="stroke: #ffffff; stroke-width: 1.125"/>
    </defs>
    <g clip-path="url(#p6450aea8e7)">
     <use xlink:href="#m0909cfe132" x="164.041875" y="258.215126" style="fill: #ffffff; stroke: #ffffff; stroke-width: 1.125"/>
    </g>
   </g>
   <g id="line2d_8">
    <path d="M 400.691875 258.663036 
L 400.691875 241.631668 
" clip-path="url(#p6450aea8e7)" style="fill: none; stroke: #3f3f3f; stroke-width: 1.875; stroke-linecap: round"/>
   </g>
   <g id="line2d_9">
    <path d="M 400.691875 254.623855 
L 400.691875 249.32719 
" clip-path="url(#p6450aea8e7)" style="fill: none; stroke: #3f3f3f; stroke-width: 5.625; stroke-linecap: round"/>
   </g>
   <g id="line2d_10">
    <path d="M 400.691875 252.558029 
" clip-path="url(#p6450aea8e7)" style="fill: none; stroke: #3f3f3f; stroke-width: 1.5; stroke-linecap: round"/>
    <g clip-path="url(#p6450aea8e7)">
     <use xlink:href="#m0909cfe132" x="400.691875" y="252.558029" style="fill: #ffffff; stroke: #ffffff; stroke-width: 1.125"/>
    </g>
   </g>
   <g id="line2d_11">
    <path d="M 637.341875 146.589771 
L 637.341875 121.221141 
" clip-path="url(#p6450aea8e7)" style="fill: none; stroke: #3f3f3f; stroke-width: 1.875; stroke-linecap: round"/>
   </g>
   <g id="line2d_12">
    <path d="M 637.341875 136.730309 
L 637.341875 130.127413 
" clip-path="url(#p6450aea8e7)" style="fill: none; stroke: #3f3f3f; stroke-width: 5.625; stroke-linecap: round"/>
   </g>
   <g id="line2d_13">
    <path d="M 637.341875 133.6583 
" clip-path="url(#p6450aea8e7)" style="fill: none; stroke: #3f3f3f; stroke-width: 1.5; stroke-linecap: round"/>
    <g clip-path="url(#p6450aea8e7)">
     <use xlink:href="#m0909cfe132" x="637.341875" y="133.6583" style="fill: #ffffff; stroke: #ffffff; stroke-width: 1.125"/>
    </g>
   </g>
   <g id="line2d_14">
    <path d="M 873.991875 140.687906 
L 873.991875 127.397922 
" clip-path="url(#p6450aea8e7)" style="fill: none; stroke: #3f3f3f; stroke-width: 1.875; stroke-linecap: round"/>
   </g>
   <g id="line2d_15">
    <path d="M 873.991875 136.848241 
L 873.991875 133.064605 
" clip-path="url(#p6450aea8e7)" style="fill: none; stroke: #3f3f3f; stroke-width: 5.625; stroke-linecap: round"/>
   </g>
   <g id="line2d_16">
    <path d="M 873.991875 135.37624 
" clip-path="url(#p6450aea8e7)" style="fill: none; stroke: #3f3f3f; stroke-width: 1.5; stroke-linecap: round"/>
    <g clip-path="url(#p6450aea8e7)">
     <use xlink:href="#m0909cfe132" x="873.991875" y="135.37624" style="fill: #ffffff; stroke: #ffffff; stroke-width: 1.125"/>
    </g>
   </g>
   <g id="patch_3">
    <path d="M 45.716875 527.23475 
L 45.716875 53.51475 
" style="fill: none; stroke: #cccccc; stroke-width: 0.8; stroke-linejoin: miter; stroke-linecap: square"/>
   </g>
   <g id="patch_4">
    <path d="M 992.316875 527.23475 
L 992.316875 53.51475 
" style="fill: none; stroke: #cccccc; stroke-width: 0.8; stroke-linejoin: miter; stroke-linecap: square"/>
   </g>
   <g id="patch_5">
    <path d="M 45.716875 527.23475 
L 992.316875 527.23475 
" style="fill: none; stroke: #cccccc; stroke-width: 0.8; stroke-linejoin: miter; stroke-linecap: square"/>
   </g>
   <g id="patch_6">
    <path d="M 45.716875 53.51475 
L 992.316875 53.51475 
" style="fill: none; stroke: #cccccc; stroke-width: 0.8; stroke-linejoin: miter; stroke-linecap: square"/>
   </g>
   <g id="text_11">
    <g id="patch_7">
     <path d="M 135.36 314.717351 
L 192.72375 314.717351 
Q 195.42375 314.717351 195.42375 312.017351 
L 195.42375 273.072945 
Q 195.42375 270.372945 192.72375 270.372945 
L 135.36 270.372945 
Q 132.66 270.372945 132.66 273.072945 
L 132.66 312.017351 
Q 132.66 314.717351 135.36 314.717351 
z
" style="fill: #ffffff; opacity: 0.8; stroke: #ffffff; stroke-linejoin: miter"/>
    </g>
    <!-- P50: 0.54s -->
    <g style="fill: #262626" transform="translate(140.292422 279.911539) scale(0.09 -0.09)">
     <defs>
      <path id="DejaVuSans-3a" d="M 750 794 
L 1409 794 
L 1409 0 
L 750 0 
L 750 794 
z
M 750 3309 
L 1409 3309 
L 1409 2516 
L 750 2516 
L 750 3309 
z
" transform="scale(0.015625)"/>
     </defs>
     <use xlink:href="#DejaVuSans-50"/>
     <use xlink:href="#DejaVuSans-35" transform="translate(60.302734 0)"/>
     <use xlink:href="#DejaVuSans-30" transform="translate(123.925781 0)"/>
     <use xlink:href="#DejaVuSans-3a" transform="translate(187.548828 0)"/>
     <use xlink:href="#DejaVuSans-20" transform="translate(221.240234 0)"/>
     <use xlink:href="#DejaVuSans-30" transform="translate(253.027344 0)"/>
     <use xlink:href="#DejaVuSans-2e" transform="translate(316.650391 0)"/>
     <use xlink:href="#DejaVuSans-35" transform="translate(348.4375 0)"/>
     <use xlink:href="#DejaVuSans-34" transform="translate(412.060547 0)"/>
     <use xlink:href="#DejaVuSans-73" transform="translate(475.683594 0)"/>
    </g>
    <!-- P90: 0.55s -->
    <g style="fill: #262626" transform="translate(140.292422 289.98957) scale(0.09 -0.09)">
     <use xlink:href="#DejaVuSans-50"/>
     <use xlink:href="#DejaVuSans-39" transform="translate(60.302734 0)"/>
     <use xlink:href="#DejaVuSans-30" transform="translate(123.925781 0)"/>
     <use xlink:href="#DejaVuSans-3a" transform="translate(187.548828 0)"/>
     <use xlink:href="#DejaVuSans-20" transform="translate(221.240234 0)"/>
     <use xlink:href="#DejaVuSans-30" transform="translate(253.027344 0)"/>
     <use xlink:href="#DejaVuSans-2e" transform="translate(316.650391 0)"/>
     <use xlink:href="#DejaVuSans-35" transform="translate(348.4375 0)"/>
     <use xlink:href="#DejaVuSans-35" transform="translate(412.060547 0)"/>
     <use xlink:href="#DejaVuSans-73" transform="translate(475.683594 0)"/>
    </g>
    <!-- Mean: 0.54s -->
    <g style="fill: #262626" transform="translate(136.470938 300.067601) scale(0.09 -0.09)">
     <use xlink:href="#DejaVuSans-4d"/>
     <use xlink:href="#DejaVuSans-65" transform="translate(86.279297 0)"/>
     <use xlink:href="#DejaVuSans-61" transform="translate(147.802734 0)"/>
     <use xlink:href="#DejaVuSans-6e" transform="translate(209.082031 0)"/>
     <use xlink:href="#DejaVuSans-3a" transform="translate(272.460938 0)"/>
     <use xlink:href="#DejaVuSans-20" transform="translate(306.152344 0)"/>
     <use xlink:href="#DejaVuSans-30" transform="translate(337.939453 0)"/>
     <use xlink:href="#DejaVuSans-2e" transform="translate(401.5625 0)"/>
     <use xlink:href="#DejaVuSans-35" transform="translate(433.349609 0)"/>
     <use xlink:href="#DejaVuSans-34" transform="translate(496.972656 0)"/>
     <use xlink:href="#DejaVuSans-73" transform="translate(560.595703 0)"/>
    </g>
    <!-- Total: 43.66s -->
    <g style="fill: #262626" transform="translate(135.36 310.145632) scale(0.09 -0.09)">
     <use xlink:href="#DejaVuSans-54"/>
     <use xlink:href="#DejaVuSans-6f" transform="translate(44.083984 0)"/>
     <use xlink:href="#DejaVuSans-74" transform="translate(105.265625 0)"/>
     <use xlink:href="#DejaVuSans-61" transform="translate(144.474609 0)"/>
     <use xlink:href="#DejaVuSans-6c" transform="translate(205.753906 0)"/>
     <use xlink:href="#DejaVuSans-3a" transform="translate(233.537109 0)"/>
     <use xlink:href="#DejaVuSans-20" transform="translate(267.228516 0)"/>
     <use xlink:href="#DejaVuSans-34" transform="translate(299.015625 0)"/>
     <use xlink:href="#DejaVuSans-33" transform="translate(362.638672 0)"/>
     <use xlink:href="#DejaVuSans-2e" transform="translate(426.261719 0)"/>
     <use xlink:href="#DejaVuSans-36" transform="translate(458.048828 0)"/>
     <use xlink:href="#DejaVuSans-36" transform="translate(521.671875 0)"/>
     <use xlink:href="#DejaVuSans-73" transform="translate(585.294922 0)"/>
    </g>
   </g>
   <g id="text_12">
    <g id="patch_8">
     <path d="M 372.01 280.966112 
L 429.37375 280.966112 
Q 432.07375 280.966112 432.07375 278.266112 
L 432.07375 239.321705 
Q 432.07375 236.621705 429.37375 236.621705 
L 372.01 236.621705 
Q 369.31 236.621705 369.31 239.321705 
L 369.31 278.266112 
Q 369.31 280.966112 372.01 280.966112 
z
" style="fill: #ffffff; opacity: 0.8; stroke: #ffffff; stroke-linejoin: miter"/>
    </g>
    <!-- P50: 0.55s -->
    <g style="fill: #262626" transform="translate(376.942422 246.160299) scale(0.09 -0.09)">
     <use xlink:href="#DejaVuSans-50"/>
     <use xlink:href="#DejaVuSans-35" transform="translate(60.302734 0)"/>
     <use xlink:href="#DejaVuSans-30" transform="translate(123.925781 0)"/>
     <use xlink:href="#DejaVuSans-3a" transform="translate(187.548828 0)"/>
     <use xlink:href="#DejaVuSans-20" transform="translate(221.240234 0)"/>
     <use xlink:href="#DejaVuSans-30" transform="translate(253.027344 0)"/>
     <use xlink:href="#DejaVuSans-2e" transform="translate(316.650391 0)"/>
     <use xlink:href="#DejaVuSans-35" transform="translate(348.4375 0)"/>
     <use xlink:href="#DejaVuSans-35" transform="translate(412.060547 0)"/>
     <use xlink:href="#DejaVuSans-73" transform="translate(475.683594 0)"/>
    </g>
    <!-- P90: 0.60s -->
    <g style="fill: #262626" transform="translate(376.942422 256.23833) scale(0.09 -0.09)">
     <use xlink:href="#DejaVuSans-50"/>
     <use xlink:href="#DejaVuSans-39" transform="translate(60.302734 0)"/>
     <use xlink:href="#DejaVuSans-30" transform="translate(123.925781 0)"/>
     <use xlink:href="#DejaVuSans-3a" transform="translate(187.548828 0)"/>
     <use xlink:href="#DejaVuSans-20" transform="translate(221.240234 0)"/>
     <use xlink:href="#DejaVuSans-30" transform="translate(253.027344 0)"/>
     <use xlink:href="#DejaVuSans-2e" transform="translate(316.650391 0)"/>
     <use xlink:href="#DejaVuSans-36" transform="translate(348.4375 0)"/>
     <use xlink:href="#DejaVuSans-30" transform="translate(412.060547 0)"/>
     <use xlink:href="#DejaVuSans-73" transform="translate(475.683594 0)"/>
    </g>
    <!-- Mean: 0.56s -->
    <g style="fill: #262626" transform="translate(373.120938 266.316362) scale(0.09 -0.09)">
     <use xlink:href="#DejaVuSans-4d"/>
     <use xlink:href="#DejaVuSans-65" transform="translate(86.279297 0)"/>
     <use xlink:href="#DejaVuSans-61" transform="translate(147.802734 0)"/>
     <use xlink:href="#DejaVuSans-6e" transform="translate(209.082031 0)"/>
     <use xlink:href="#DejaVuSans-3a" transform="translate(272.460938 0)"/>
     <use xlink:href="#DejaVuSans-20" transform="translate(306.152344 0)"/>
     <use xlink:href="#DejaVuSans-30" transform="translate(337.939453 0)"/>
     <use xlink:href="#DejaVuSans-2e" transform="translate(401.5625 0)"/>
     <use xlink:href="#DejaVuSans-35" transform="translate(433.349609 0)"/>
     <use xlink:href="#DejaVuSans-36" transform="translate(496.972656 0)"/>
     <use xlink:href="#DejaVuSans-73" transform="translate(560.595703 0)"/>
    </g>
    <!-- Total: 45.08s -->
    <g style="fill: #262626" transform="translate(372.01 276.394393) scale(0.09 -0.09)">
     <use xlink:href="#DejaVuSans-54"/>
     <use xlink:href="#DejaVuSans-6f" transform="translate(44.083984 0)"/>
     <use xlink:href="#DejaVuSans-74" transform="translate(105.265625 0)"/>
     <use xlink:href="#DejaVuSans-61" transform="translate(144.474609 0)"/>
     <use xlink:href="#DejaVuSans-6c" transform="translate(205.753906 0)"/>
     <use xlink:href="#DejaVuSans-3a" transform="translate(233.537109 0)"/>
     <use xlink:href="#DejaVuSans-20" transform="translate(267.228516 0)"/>
     <use xlink:href="#DejaVuSans-34" transform="translate(299.015625 0)"/>
     <use xlink:href="#DejaVuSans-35" transform="translate(362.638672 0)"/>
     <use xlink:href="#DejaVuSans-2e" transform="translate(426.261719 0)"/>
     <use xlink:href="#DejaVuSans-30" transform="translate(458.048828 0)"/>
     <use xlink:href="#DejaVuSans-38" transform="translate(521.671875 0)"/>
     <use xlink:href="#DejaVuSans-73" transform="translate(585.294922 0)"/>
    </g>
   </g>
   <g id="text_13">
    <g id="patch_9">
     <path d="M 608.66 163.399136 
L 666.02375 163.399136 
Q 668.72375 163.399136 668.72375 160.699136 
L 668.72375 121.754729 
Q 668.72375 119.054729 666.02375 119.054729 
L 608.66 119.054729 
Q 605.96 119.054729 605.96 121.754729 
L 605.96 160.699136 
Q 605.96 163.399136 608.66 163.399136 
z
" style="fill: #ffffff; opacity: 0.8; stroke: #ffffff; stroke-linejoin: miter"/>
    </g>
    <!-- P50: 0.78s -->
    <g style="fill: #262626" transform="translate(613.592422 128.593323) scale(0.09 -0.09)">
     <defs>
      <path id="DejaVuSans-37" d="M 525 4666 
L 3525 4666 
L 3525 4397 
L 1831 0 
L 1172 0 
L 2766 4134 
L 525 4134 
L 525 4666 
z
" transform="scale(0.015625)"/>
     </defs>
     <use xlink:href="#DejaVuSans-50"/>
     <use xlink:href="#DejaVuSans-35" transform="translate(60.302734 0)"/>
     <use xlink:href="#DejaVuSans-30" transform="translate(123.925781 0)"/>
     <use xlink:href="#DejaVuSans-3a" transform="translate(187.548828 0)"/>
     <use xlink:href="#DejaVuSans-20" transform="translate(221.240234 0)"/>
     <use xlink:href="#DejaVuSans-30" transform="translate(253.027344 0)"/>
     <use xlink:href="#DejaVuSans-2e" transform="translate(316.650391 0)"/>
     <use xlink:href="#DejaVuSans-37" transform="translate(348.4375 0)"/>
     <use xlink:href="#DejaVuSans-38" transform="translate(412.060547 0)"/>
     <use xlink:href="#DejaVuSans-73" transform="translate(475.683594 0)"/>
    </g>
    <!-- P90: 0.79s -->
    <g style="fill: #262626" transform="translate(613.592422 138.671354) scale(0.09 -0.09)">
     <use xlink:href="#DejaVuSans-50"/>
     <use xlink:href="#DejaVuSans-39" transform="translate(60.302734 0)"/>
     <use xlink:href="#DejaVuSans-30" transform="translate(123.925781 0)"/>
     <use xlink:href="#DejaVuSans-3a" transform="translate(187.548828 0)"/>
     <use xlink:href="#DejaVuSans-20" transform="translate(221.240234 0)"/>
     <use xlink:href="#DejaVuSans-30" transform="translate(253.027344 0)"/>
     <use xlink:href="#DejaVuSans-2e" transform="translate(316.650391 0)"/>
     <use xlink:href="#DejaVuSans-37" transform="translate(348.4375 0)"/>
     <use xlink:href="#DejaVuSans-39" transform="translate(412.060547 0)"/>
     <use xlink:href="#DejaVuSans-73" transform="translate(475.683594 0)"/>
    </g>
    <!-- Mean: 0.78s -->
    <g style="fill: #262626" transform="translate(609.770938 148.749386) scale(0.09 -0.09)">
     <use xlink:href="#DejaVuSans-4d"/>
     <use xlink:href="#DejaVuSans-65" transform="translate(86.279297 0)"/>
     <use xlink:href="#DejaVuSans-61" transform="translate(147.802734 0)"/>
     <use xlink:href="#DejaVuSans-6e" transform="translate(209.082031 0)"/>
     <use xlink:href="#DejaVuSans-3a" transform="translate(272.460938 0)"/>
     <use xlink:href="#DejaVuSans-20" transform="translate(306.152344 0)"/>
     <use xlink:href="#DejaVuSans-30" transform="translate(337.939453 0)"/>
     <use xlink:href="#DejaVuSans-2e" transform="translate(401.5625 0)"/>
     <use xlink:href="#DejaVuSans-37" transform="translate(433.349609 0)"/>
     <use xlink:href="#DejaVuSans-38" transform="translate(496.972656 0)"/>
     <use xlink:href="#DejaVuSans-73" transform="translate(560.595703 0)"/>
    </g>
    <!-- Total: 62.89s -->
    <g style="fill: #262626" transform="translate(608.66 158.827417) scale(0.09 -0.09)">
     <use xlink:href="#DejaVuSans-54"/>
     <use xlink:href="#DejaVuSans-6f" transform="translate(44.083984 0)"/>
     <use xlink:href="#DejaVuSans-74" transform="translate(105.265625 0)"/>
     <use xlink:href="#DejaVuSans-61" transform="translate(144.474609 0)"/>
     <use xlink:href="#DejaVuSans-6c" transform="translate(205.753906 0)"/>
     <use xlink:href="#DejaVuSans-3a" transform="translate(233.537109 0)"/>
     <use xlink:href="#DejaVuSans-20" transform="translate(267.228516 0)"/>
     <use xlink:href="#DejaVuSans-36" transform="translate(299.015625 0)"/>
     <use xlink:href="#DejaVuSans-32" transform="translate(362.638672 0)"/>
     <use xlink:href="#DejaVuSans-2e" transform="translate(426.261719 0)"/>
     <use xlink:href="#DejaVuSans-38" transform="translate(458.048828 0)"/>
     <use xlink:href="#DejaVuSans-39" transform="translate(521.671875 0)"/>
     <use xlink:href="#DejaVuSans-73" transform="translate(585.294922 0)"/>
    </g>
   </g>
   <g id="text_14">
    <g id="patch_10">
     <path d="M 845.31 164.402962 
L 902.67375 164.402962 
Q 905.37375 164.402962 905.37375 161.702962 
L 905.37375 122.758556 
Q 905.37375 120.058556 902.67375 120.058556 
L 845.31 120.058556 
Q 842.61 120.058556 842.61 122.758556 
L 842.61 161.702962 
Q 842.61 164.402962 845.31 164.402962 
z
" style="fill: #ffffff; opacity: 0.8; stroke: #ffffff; stroke-linejoin: miter"/>
    </g>
    <!-- P50: 0.78s -->
    <g style="fill: #262626" transform="translate(850.242422 129.59715) scale(0.09 -0.09)">
     <use xlink:href="#DejaVuSans-50"/>
     <use xlink:href="#DejaVuSans-35" transform="translate(60.302734 0)"/>
     <use xlink:href="#DejaVuSans-30" transform="translate(123.925781 0)"/>
     <use xlink:href="#DejaVuSans-3a" transform="translate(187.548828 0)"/>
     <use xlink:href="#DejaVuSans-20" transform="translate(221.240234 0)"/>
     <use xlink:href="#DejaVuSans-30" transform="translate(253.027344 0)"/>
     <use xlink:href="#DejaVuSans-2e" transform="translate(316.650391 0)"/>
     <use xlink:href="#DejaVuSans-37" transform="translate(348.4375 0)"/>
     <use xlink:href="#DejaVuSans-38" transform="translate(412.060547 0)"/>
     <use xlink:href="#DejaVuSans-73" transform="translate(475.683594 0)"/>
    </g>
    <!-- P90: 0.85s -->
    <g style="fill: #262626" transform="translate(850.242422 139.675181) scale(0.09 -0.09)">
     <use xlink:href="#DejaVuSans-50"/>
     <use xlink:href="#DejaVuSans-39" transform="translate(60.302734 0)"/>
     <use xlink:href="#DejaVuSans-30" transform="translate(123.925781 0)"/>
     <use xlink:href="#DejaVuSans-3a" transform="translate(187.548828 0)"/>
     <use xlink:href="#DejaVuSans-20" transform="translate(221.240234 0)"/>
     <use xlink:href="#DejaVuSans-30" transform="translate(253.027344 0)"/>
     <use xlink:href="#DejaVuSans-2e" transform="translate(316.650391 0)"/>
     <use xlink:href="#DejaVuSans-38" transform="translate(348.4375 0)"/>
     <use xlink:href="#DejaVuSans-35" transform="translate(412.060547 0)"/>
     <use xlink:href="#DejaVuSans-73" transform="translate(475.683594 0)"/>
    </g>
    <!-- Mean: 0.78s -->
    <g style="fill: #262626" transform="translate(846.420938 149.753212) scale(0.09 -0.09)">
     <use xlink:href="#DejaVuSans-4d"/>
     <use xlink:href="#DejaVuSans-65" transform="translate(86.279297 0)"/>
     <use xlink:href="#DejaVuSans-61" transform="translate(147.802734 0)"/>
     <use xlink:href="#DejaVuSans-6e" transform="translate(209.082031 0)"/>
     <use xlink:href="#DejaVuSans-3a" transform="translate(272.460938 0)"/>
     <use xlink:href="#DejaVuSans-20" transform="translate(306.152344 0)"/>
     <use xlink:href="#DejaVuSans-30" transform="translate(337.939453 0)"/>
     <use xlink:href="#DejaVuSans-2e" transform="translate(401.5625 0)"/>
     <use xlink:href="#DejaVuSans-37" transform="translate(433.349609 0)"/>
     <use xlink:href="#DejaVuSans-38" transform="translate(496.972656 0)"/>
     <use xlink:href="#DejaVuSans-73" transform="translate(560.595703 0)"/>
    </g>
    <!-- Total: 63.33s -->
    <g style="fill: #262626" transform="translate(845.31 159.831243) scale(0.09 -0.09)">
     <use xlink:href="#DejaVuSans-54"/>
     <use xlink:href="#DejaVuSans-6f" transform="translate(44.083984 0)"/>
     <use xlink:href="#DejaVuSans-74" transform="translate(105.265625 0)"/>
     <use xlink:href="#DejaVuSans-61" transform="translate(144.474609 0)"/>
     <use xlink:href="#DejaVuSans-6c" transform="translate(205.753906 0)"/>
     <use xlink:href="#DejaVuSans-3a" transform="translate(233.537109 0)"/>
     <use xlink:href="#DejaVuSans-20" transform="translate(267.228516 0)"/>
     <use xlink:href="#DejaVuSans-36" transform="translate(299.015625 0)"/>
     <use xlink:href="#DejaVuSans-33" transform="translate(362.638672 0)"/>
     <use xlink:href="#DejaVuSans-2e" transform="translate(426.261719 0)"/>
     <use xlink:href="#DejaVuSans-33" transform="translate(458.048828 0)"/>
     <use xlink:href="#DejaVuSans-33" transform="translate(521.671875 0)"/>
     <use xlink:href="#DejaVuSans-73" transform="translate(585.294922 0)"/>
    </g>
   </g>
   <g id="text_15">
    <!-- Latency Distribution Comparison - Qwen/Qwen3-Embedding-0.6B -->
    <g style="fill: #262626" transform="translate(289.715469 17.837812) scale(0.14 -0.14)">
     <defs>
      <path id="DejaVuSans-79" d="M 2059 -325 
Q 1816 -950 1584 -1140 
Q 1353 -1331 966 -1331 
L 506 -1331 
L 506 -850 
L 844 -850 
Q 1081 -850 1212 -737 
Q 1344 -625 1503 -206 
L 1606 56 
L 191 3500 
L 800 3500 
L 1894 763 
L 2988 3500 
L 3597 3500 
L 2059 -325 
z
" transform="scale(0.015625)"/>
      <path id="DejaVuSans-70" d="M 1159 525 
L 1159 -1331 
L 581 -1331 
L 581 3500 
L 1159 3500 
L 1159 2969 
Q 1341 3281 1617 3432 
Q 1894 3584 2278 3584 
Q 2916 3584 3314 3078 
Q 3713 2572 3713 1747 
Q 3713 922 3314 415 
Q 2916 -91 2278 -91 
Q 1894 -91 1617 61 
Q 1341 213 1159 525 
z
M 3116 1747 
Q 3116 2381 2855 2742 
Q 2594 3103 2138 3103 
Q 1681 3103 1420 2742 
Q 1159 2381 1159 1747 
Q 1159 1113 1420 752 
Q 1681 391 2138 391 
Q 2594 391 2855 752 
Q 3116 1113 3116 1747 
z
" transform="scale(0.015625)"/>
      <path id="DejaVuSans-2d" d="M 313 2009 
L 1997 2009 
L 1997 1497 
L 313 1497 
L 313 2009 
z
" transform="scale(0.015625)"/>
      <path id="DejaVuSans-51" d="M 2522 4238 
Q 1834 4238 1429 3725 
Q 1025 3213 1025 2328 
Q 1025 1447 1429 934 
Q 1834 422 2522 422 
Q 3209 422 3611 934 
Q 4013 1447 4013 2328 
Q 4013 3213 3611 3725 
Q 3209 4238 2522 4238 
z
M 3406 84 
L 4238 -825 
L 3475 -825 
L 2784 -78 
Q 2681 -84 2626 -87 
Q 2572 -91 2522 -91 
Q 1538 -91 948 567 
Q 359 1225 359 2328 
Q 359 3434 948 4092 
Q 1538 4750 2522 4750 
Q 3503 4750 4090 4092 
Q 4678 3434 4678 2328 
Q 4678 1516 4351 937 
Q 4025 359 3406 84 
z
" transform="scale(0.015625)"/>
      <path id="DejaVuSans-77" d="M 269 3500 
L 844 3500 
L 1563 769 
L 2278 3500 
L 2956 3500 
L 3675 769 
L 4391 3500 
L 4966 3500 
L 4050 0 
L 3372 0 
L 2619 2869 
L 1863 0 
L 1184 0 
L 269 3500 
z
" transform="scale(0.015625)"/>
      <path id="DejaVuSans-2f" d="M 1625 4666 
L 2156 4666 
L 531 -594 
L 0 -594 
L 1625 4666 
z
" transform="scale(0.015625)"/>
      <path id="DejaVuSans-42" d="M 1259 2228 
L 1259 519 
L 2272 519 
Q 2781 519 3026 730 
Q 3272 941 3272 1375 
Q 3272 1813 3026 2020 
Q 2781 2228 2272 2228 
L 1259 2228 
z
M 1259 4147 
L 1259 2741 
L 2194 2741 
Q 2656 2741 2882 2914 
Q 3109 3088 3109 3444 
Q 3109 3797 2882 3972 
Q 2656 4147 2194 4147 
L 1259 4147 
z
M 628 4666 
L 2241 4666 
Q 2963 4666 3353 4366 
Q 3744 4066 3744 3513 
Q 3744 3084 3544 2831 
Q 3344 2578 2956 2516 
Q 3422 2416 3680 2098 
Q 3938 1781 3938 1306 
Q 3938 681 3513 340 
Q 3088 0 2303 0 
L 628 0 
L 628 4666 
z
" transform="scale(0.015625)"/>
     </defs>
     <use xlink:href="#DejaVuSans-4c"/>
     <use xlink:href="#DejaVuSans-61" transform="translate(55.712891 0)"/>
     <use xlink:href="#DejaVuSans-74" transform="translate(116.992188 0)"/>
     <use xlink:href="#DejaVuSans-65" transform="translate(156.201172 0)"/>
     <use xlink:href="#DejaVuSans-6e" transform="translate(217.724609 0)"/>
     <use xlink:href="#DejaVuSans-63" transform="translate(281.103516 0)"/>
     <use xlink:href="#DejaVuSans-79" transform="translate(336.083984 0)"/>
     <use xlink:href="#DejaVuSans-20" transform="translate(395.263672 0)"/>
     <use xlink:href="#DejaVuSans-44" transform="translate(427.050781 0)"/>
     <use xlink:href="#DejaVuSans-69" transform="translate(504.052734 0)"/>
     <use xlink:href="#DejaVuSans-73" transform="translate(531.835938 0)"/>
     <use xlink:href="#DejaVuSans-74" transform="translate(583.935547 0)"/>
     <use xlink:href="#DejaVuSans-72" transform="translate(623.144531 0)"/>
     <use xlink:href="#DejaVuSans-69" transform="translate(664.257812 0)"/>
     <use xlink:href="#DejaVuSans-62" transform="translate(692.041016 0)"/>
     <use xlink:href="#DejaVuSans-75" transform="translate(755.517578 0)"/>
     <use xlink:href="#DejaVuSans-74" transform="translate(818.896484 0)"/>
     <use xlink:href="#DejaVuSans-69" transform="translate(858.105469 0)"/>
     <use xlink:href="#DejaVuSans-6f" transform="translate(885.888672 0)"/>
     <use xlink:href="#DejaVuSans-6e" transform="translate(947.070312 0)"/>
     <use xlink:href="#DejaVuSans-20" transform="translate(1010.449219 0)"/>
     <use xlink:href="#DejaVuSans-43" transform="translate(1042.236328 0)"/>
     <use xlink:href="#DejaVuSans-6f" transform="translate(1112.060547 0)"/>
     <use xlink:href="#DejaVuSans-6d" transform="translate(1173.242188 0)"/>
     <use xlink:href="#DejaVuSans-70" transform="translate(1270.654297 0)"/>
     <use xlink:href="#DejaVuSans-61" transform="translate(1334.130859 0)"/>
     <use xlink:href="#DejaVuSans-72" transform="translate(1395.410156 0)"/>
     <use xlink:href="#DejaVuSans-69" transform="translate(1436.523438 0)"/>
     <use xlink:href="#DejaVuSans-73" transform="translate(1464.306641 0)"/>
     <use xlink:href="#DejaVuSans-6f" transform="translate(1516.40625 0)"/>
     <use xlink:href="#DejaVuSans-6e" transform="translate(1577.587891 0)"/>
     <use xlink:href="#DejaVuSans-20" transform="translate(1640.966797 0)"/>
     <use xlink:href="#DejaVuSans-2d" transform="translate(1672.753906 0)"/>
     <use xlink:href="#DejaVuSans-20" transform="translate(1708.837891 0)"/>
     <use xlink:href="#DejaVuSans-51" transform="translate(1740.625 0)"/>
     <use xlink:href="#DejaVuSans-77" transform="translate(1819.335938 0)"/>
     <use xlink:href="#DejaVuSans-65" transform="translate(1901.123047 0)"/>
     <use xlink:href="#DejaVuSans-6e" transform="translate(1962.646484 0)"/>
     <use xlink:href="#DejaVuSans-2f" transform="translate(2026.025391 0)"/>
     <use xlink:href="#DejaVuSans-51" transform="translate(2059.716797 0)"/>
     <use xlink:href="#DejaVuSans-77" transform="translate(2138.427734 0)"/>
     <use xlink:href="#DejaVuSans-65" transform="translate(2220.214844 0)"/>
     <use xlink:href="#DejaVuSans-6e" transform="translate(2281.738281 0)"/>
     <use xlink:href="#DejaVuSans-33" transform="translate(2345.117188 0)"/>
     <use xlink:href="#DejaVuSans-2d" transform="translate(2408.740234 0)"/>
     <use xlink:href="#DejaVuSans-45" transform="translate(2444.824219 0)"/>
     <use xlink:href="#DejaVuSans-6d" transform="translate(2508.007812 0)"/>
     <use xlink:href="#DejaVuSans-62" transform="translate(2605.419922 0)"/>
     <use xlink:href="#DejaVuSans-65" transform="translate(2668.896484 0)"/>
     <use xlink:href="#DejaVuSans-64" transform="translate(2730.419922 0)"/>
     <use xlink:href="#DejaVuSans-64" transform="translate(2793.896484 0)"/>
     <use xlink:href="#DejaVuSans-69" transform="translate(2857.373047 0)"/>
     <use xlink:href="#DejaVuSans-6e" transform="translate(2885.15625 0)"/>
     <use xlink:href="#DejaVuSans-67" transform="translate(2948.535156 0)"/>
     <use xlink:href="#DejaVuSans-2d" transform="translate(3012.011719 0)"/>
     <use xlink:href="#DejaVuSans-30" transform="translate(3048.095703 0)"/>
     <use xlink:href="#DejaVuSans-2e" transform="translate(3111.71875 0)"/>
     <use xlink:href="#DejaVuSans-36" transform="translate(3143.505859 0)"/>
     <use xlink:href="#DejaVuSans-42" transform="translate(3207.128906 0)"/>
    </g>
    <!--  -->
    <g style="fill: #262626" transform="translate(519.016875 33.51475) scale(0.14 -0.14)"/>
   </g>
   <g id="legend_1">
    <g id="patch_11">
     <path d="M 855.390313 90.871 
L 985.316875 90.871 
Q 987.316875 90.871 987.316875 88.871 
L 987.316875 60.51475 
Q 987.316875 58.51475 985.316875 58.51475 
L 855.390313 58.51475 
Q 853.390313 58.51475 853.390313 60.51475 
L 853.390313 88.871 
Q 853.390313 90.871 855.390313 90.871 
z
" style="fill: #ffffff; opacity: 0.8; stroke: #cccccc; stroke-linejoin: miter"/>
    </g>
    <g id="patch_12">
     <path d="M 857.390313 70.113187 
L 877.390313 70.113187 
L 877.390313 63.113187 
L 857.390313 63.113187 
z
" style="fill: #1f77b4; stroke: #ffffff; stroke-linejoin: miter"/>
    </g>
    <g id="text_16">
     <!-- Radix MLP Disabled -->
     <g style="fill: #262626" transform="translate(885.390313 70.113187) scale(0.1 -0.1)">
      <use xlink:href="#DejaVuSans-52"/>
      <use xlink:href="#DejaVuSans-61" transform="translate(67.232422 0)"/>
      <use xlink:href="#DejaVuSans-64" transform="translate(128.511719 0)"/>
      <use xlink:href="#DejaVuSans-69" transform="translate(191.988281 0)"/>
      <use xlink:href="#DejaVuSans-78" transform="translate(219.771484 0)"/>
      <use xlink:href="#DejaVuSans-20" transform="translate(278.951172 0)"/>
      <use xlink:href="#DejaVuSans-4d" transform="translate(310.738281 0)"/>
      <use xlink:href="#DejaVuSans-4c" transform="translate(397.017578 0)"/>
      <use xlink:href="#DejaVuSans-50" transform="translate(452.730469 0)"/>
      <use xlink:href="#DejaVuSans-20" transform="translate(513.033203 0)"/>
      <use xlink:href="#DejaVuSans-44" transform="translate(544.820312 0)"/>
      <use xlink:href="#DejaVuSans-69" transform="translate(621.822266 0)"/>
      <use xlink:href="#DejaVuSans-73" transform="translate(649.605469 0)"/>
      <use xlink:href="#DejaVuSans-61" transform="translate(701.705078 0)"/>
      <use xlink:href="#DejaVuSans-62" transform="translate(762.984375 0)"/>
      <use xlink:href="#DejaVuSans-6c" transform="translate(826.460938 0)"/>
      <use xlink:href="#DejaVuSans-65" transform="translate(854.244141 0)"/>
      <use xlink:href="#DejaVuSans-64" transform="translate(915.767578 0)"/>
     </g>
    </g>
    <g id="patch_13">
     <path d="M 857.390313 84.791312 
L 877.390313 84.791312 
L 877.390313 77.791312 
L 857.390313 77.791312 
z
" style="fill: #ff7f0e; stroke: #ffffff; stroke-linejoin: miter"/>
    </g>
    <g id="text_17">
     <!-- Radix MLP Enabled -->
     <g style="fill: #262626" transform="translate(885.390313 84.791312) scale(0.1 -0.1)">
      <use xlink:href="#DejaVuSans-52"/>
      <use xlink:href="#DejaVuSans-61" transform="translate(67.232422 0)"/>
      <use xlink:href="#DejaVuSans-64" transform="translate(128.511719 0)"/>
      <use xlink:href="#DejaVuSans-69" transform="translate(191.988281 0)"/>
      <use xlink:href="#DejaVuSans-78" transform="translate(219.771484 0)"/>
      <use xlink:href="#DejaVuSans-20" transform="translate(278.951172 0)"/>
      <use xlink:href="#DejaVuSans-4d" transform="translate(310.738281 0)"/>
      <use xlink:href="#DejaVuSans-4c" transform="translate(397.017578 0)"/>
      <use xlink:href="#DejaVuSans-50" transform="translate(452.730469 0)"/>
      <use xlink:href="#DejaVuSans-20" transform="translate(513.033203 0)"/>
      <use xlink:href="#DejaVuSans-45" transform="translate(544.820312 0)"/>
      <use xlink:href="#DejaVuSans-6e" transform="translate(608.003906 0)"/>
      <use xlink:href="#DejaVuSans-61" transform="translate(671.382812 0)"/>
      <use xlink:href="#DejaVuSans-62" transform="translate(732.662109 0)"/>
      <use xlink:href="#DejaVuSans-6c" transform="translate(796.138672 0)"/>
      <use xlink:href="#DejaVuSans-65" transform="translate(823.921875 0)"/>
      <use xlink:href="#DejaVuSans-64" transform="translate(885.445312 0)"/>
     </g>
    </g>
   </g>
  </g>
 </g>
 <defs>
  <clipPath id="p6450aea8e7">
   <rect x="45.716875" y="53.51475" width="946.6" height="473.72"/>
  </clipPath>
 </defs>
</svg>
